<?xml version="1.0" encoding="utf-8" standalone="no"?>
<!DOCTYPE svg PUBLIC "-//W3C//DTD SVG 1.1//EN"
  "http://www.w3.org/Graphics/SVG/1.1/DTD/svg11.dtd">
<svg xmlns:xlink="http://www.w3.org/1999/xlink" width="1145.413123pt" height="639.95775pt" viewBox="0 0 1145.413123 639.95775" xmlns="http://www.w3.org/2000/svg" version="1.1">
 <metadata>
  <rdf:RDF xmlns:dc="http://purl.org/dc/elements/1.1/" xmlns:cc="http://creativecommons.org/ns#" xmlns:rdf="http://www.w3.org/1999/02/22-rdf-syntax-ns#">
   <cc:Work>
    <dc:type rdf:resource="http://purl.org/dc/dcmitype/StillImage"/>
    <dc:date>2024-01-02T19:26:39.784029</dc:date>
    <dc:format>image/svg+xml</dc:format>
    <dc:creator>
     <cc:Agent>
      <dc:title>Matplotlib v3.8.2, https://matplotlib.org/</dc:title>
     </cc:Agent>
    </dc:creator>
   </cc:Work>
  </rdf:RDF>
 </metadata>
 <defs>
  <style type="text/css">*{stroke-linejoin: round; stroke-linecap: butt}</style>
 </defs>
 <g id="figure_1">
  <g id="patch_1">
   <path d="M 0 639.95775 
L 1145.413123 639.95775 
L 1145.413123 0 
L 0 0 
L 0 639.95775 
z
" style="fill: none"/>
  </g>
  <g id="axes_1">
   <g id="patch_2">
    <path d="M 63.611 581.702 
L 1128.365623 581.702 
L 1128.365623 27.927 
L 63.611 27.927 
L 63.611 581.702 
z
" style="fill: none"/>
   </g>
   <g id="matplotlib.axis_1">
    <g id="xtick_1">
     <g id="line2d_1">
      <defs>
       <path id="mf674871bb9" d="M 0 0 
L 0 3.5 
" style="stroke: #e4e4e9; stroke-opacity: 0.819608; stroke-width: 1.6"/>
      </defs>
      <g>
       <use xlink:href="#mf674871bb9" x="63.611" y="581.702" style="fill: #e4e4e9; fill-opacity: 0.819608; stroke: #e4e4e9; stroke-opacity: 0.819608; stroke-width: 1.6"/>
      </g>
     </g>
     <g id="text_1">
      <!-- 0.0 -->
      <g style="fill: #e4e4e9; opacity: 0.819608" transform="translate(52.7635 608.402) scale(0.16 -0.16)">
       <defs>
        <path id="FiraSans-Regular-30" d="M 1786 4346 
C 826 4346 352 3558 352 2138 
C 352 717 826 -77 1786 -77 
C 2746 -77 3219 717 3219 2138 
C 3219 3552 2746 4346 1786 4346 
z
M 1786 3878 
C 2317 3878 2605 3392 2605 2138 
C 2605 877 2317 390 1786 390 
C 1248 390 966 877 966 2138 
C 966 3392 1248 3878 1786 3878 
z
" transform="scale(0.015625)"/>
        <path id="FiraSans-Regular-2e" d="M 762 813 
C 512 813 320 614 320 371 
C 320 122 512 -77 762 -77 
C 1018 -77 1210 122 1210 371 
C 1210 614 1018 813 762 813 
z
" transform="scale(0.015625)"/>
       </defs>
       <use xlink:href="#FiraSans-Regular-30"/>
       <use xlink:href="#FiraSans-Regular-2e" x="55.799988"/>
       <use xlink:href="#FiraSans-Regular-30" x="79.799973"/>
      </g>
     </g>
    </g>
    <g id="xtick_2">
     <g id="line2d_2">
      <g>
       <use xlink:href="#mf674871bb9" x="276.561925" y="581.702" style="fill: #e4e4e9; fill-opacity: 0.819608; stroke: #e4e4e9; stroke-opacity: 0.819608; stroke-width: 1.6"/>
      </g>
     </g>
     <g id="text_2">
      <!-- 0.2 -->
      <g style="fill: #e4e4e9; opacity: 0.819608" transform="translate(266.218175 608.402) scale(0.16 -0.16)">
       <defs>
        <path id="FiraSans-Regular-32" d="M 1459 4346 
C 922 4346 506 4128 160 3699 
L 544 3392 
C 832 3718 1069 3859 1427 3859 
C 1843 3859 2131 3597 2131 3149 
C 2131 2451 1760 2042 250 467 
L 250 0 
L 2778 0 
L 2848 493 
L 922 493 
C 2234 1805 2746 2374 2746 3174 
C 2746 3840 2246 4346 1459 4346 
z
" transform="scale(0.015625)"/>
       </defs>
       <use xlink:href="#FiraSans-Regular-30"/>
       <use xlink:href="#FiraSans-Regular-2e" x="55.799988"/>
       <use xlink:href="#FiraSans-Regular-32" x="79.799973"/>
      </g>
     </g>
    </g>
    <g id="xtick_3">
     <g id="line2d_3">
      <g>
       <use xlink:href="#mf674871bb9" x="489.512849" y="581.702" style="fill: #e4e4e9; fill-opacity: 0.819608; stroke: #e4e4e9; stroke-opacity: 0.819608; stroke-width: 1.6"/>
      </g>
     </g>
     <g id="text_3">
      <!-- 0.4 -->
      <g style="fill: #e4e4e9; opacity: 0.819608" transform="translate(478.872849 608.402) scale(0.16 -0.16)">
       <defs>
        <path id="FiraSans-Regular-34" d="M 3213 1523 
L 2656 1523 
L 2656 2675 
L 2144 2675 
L 2093 1523 
L 877 1523 
L 2035 4141 
L 1542 4346 
L 256 1478 
L 256 1056 
L 2086 1056 
L 2086 0 
L 2656 0 
L 2656 1056 
L 3213 1056 
L 3213 1523 
z
" transform="scale(0.015625)"/>
       </defs>
       <use xlink:href="#FiraSans-Regular-30"/>
       <use xlink:href="#FiraSans-Regular-2e" x="55.799988"/>
       <use xlink:href="#FiraSans-Regular-34" x="79.799973"/>
      </g>
     </g>
    </g>
    <g id="xtick_4">
     <g id="line2d_4">
      <g>
       <use xlink:href="#mf674871bb9" x="702.463774" y="581.702" style="fill: #e4e4e9; fill-opacity: 0.819608; stroke: #e4e4e9; stroke-opacity: 0.819608; stroke-width: 1.6"/>
      </g>
     </g>
     <g id="text_4">
      <!-- 0.6 -->
      <g style="fill: #e4e4e9; opacity: 0.819608" transform="translate(691.816274 608.402) scale(0.16 -0.16)">
       <defs>
        <path id="FiraSans-Regular-36" d="M 1971 2816 
C 1568 2816 1222 2650 941 2253 
C 973 3232 1344 3878 1965 3878 
C 2202 3878 2426 3814 2624 3693 
L 2854 4083 
C 2605 4250 2317 4346 1971 4346 
C 960 4346 352 3411 352 2010 
C 352 781 749 -77 1792 -77 
C 2547 -77 3155 518 3155 1453 
C 3155 2368 2598 2816 1971 2816 
z
M 1792 390 
C 1222 390 973 826 947 1760 
C 1165 2112 1485 2349 1869 2349 
C 2272 2349 2560 2112 2560 1434 
C 2560 806 2298 390 1792 390 
z
" transform="scale(0.015625)"/>
       </defs>
       <use xlink:href="#FiraSans-Regular-30"/>
       <use xlink:href="#FiraSans-Regular-2e" x="55.799988"/>
       <use xlink:href="#FiraSans-Regular-36" x="79.799973"/>
      </g>
     </g>
    </g>
    <g id="xtick_5">
     <g id="line2d_5">
      <g>
       <use xlink:href="#mf674871bb9" x="915.414699" y="581.702" style="fill: #e4e4e9; fill-opacity: 0.819608; stroke: #e4e4e9; stroke-opacity: 0.819608; stroke-width: 1.6"/>
      </g>
     </g>
     <g id="text_5">
      <!-- 0.8 -->
      <g style="fill: #e4e4e9; opacity: 0.819608" transform="translate(904.623449 608.402) scale(0.16 -0.16)">
       <defs>
        <path id="FiraSans-Regular-38" d="M 2336 2298 
C 2822 2541 3066 2829 3066 3264 
C 3066 3994 2406 4346 1766 4346 
C 1114 4346 467 3968 467 3245 
C 467 2803 672 2477 1133 2246 
C 608 2016 288 1683 288 1133 
C 288 429 870 -77 1754 -77 
C 2624 -77 3238 429 3238 1146 
C 3238 1683 2925 2061 2336 2298 
z
M 1766 3904 
C 2234 3904 2490 3642 2490 3245 
C 2490 2880 2330 2656 1946 2438 
L 1837 2477 
C 1344 2637 1043 2797 1043 3238 
C 1043 3667 1325 3904 1766 3904 
z
M 1760 390 
C 1229 390 902 666 902 1133 
C 902 1600 1107 1894 1530 2099 
L 1690 2042 
C 2381 1805 2624 1600 2624 1139 
C 2624 691 2298 390 1760 390 
z
" transform="scale(0.015625)"/>
       </defs>
       <use xlink:href="#FiraSans-Regular-30"/>
       <use xlink:href="#FiraSans-Regular-2e" x="55.799988"/>
       <use xlink:href="#FiraSans-Regular-38" x="79.799973"/>
      </g>
     </g>
    </g>
    <g id="xtick_6">
     <g id="line2d_6">
      <g>
       <use xlink:href="#mf674871bb9" x="1128.365623" y="581.702" style="fill: #e4e4e9; fill-opacity: 0.819608; stroke: #e4e4e9; stroke-opacity: 0.819608; stroke-width: 1.6"/>
      </g>
     </g>
     <g id="text_6">
      <!-- 1.0 -->
      <g style="fill: #e4e4e9; opacity: 0.819608" transform="translate(1118.518123 608.402) scale(0.16 -0.16)">
       <defs>
        <path id="FiraSans-Regular-31" d="M 2067 4282 
L 1549 4282 
L 224 3462 
L 480 3046 
L 1478 3654 
L 1478 0 
L 2067 0 
L 2067 4282 
z
" transform="scale(0.015625)"/>
       </defs>
       <use xlink:href="#FiraSans-Regular-31"/>
       <use xlink:href="#FiraSans-Regular-2e" x="43.299988"/>
       <use xlink:href="#FiraSans-Regular-30" x="67.299973"/>
      </g>
     </g>
    </g>
    <g id="text_7">
     <!-- $X$ -->
     <g style="fill: #e4e4e9; opacity: 0.819608" transform="translate(589.916312 629.0095) scale(0.176 -0.176)">
      <defs>
       <path id="DejaVuSans-Oblique-58" d="M 878 4666 
L 1516 4666 
L 2316 2981 
L 3763 4666 
L 4500 4666 
L 2578 2438 
L 3738 0 
L 3103 0 
L 2163 1966 
L 459 0 
L -275 0 
L 1906 2509 
L 878 4666 
z
" transform="scale(0.015625)"/>
      </defs>
      <use xlink:href="#DejaVuSans-Oblique-58" transform="translate(0 0.09375)"/>
     </g>
    </g>
   </g>
   <g id="matplotlib.axis_2">
    <g id="ytick_1">
     <g id="line2d_7">
      <defs>
       <path id="md121a24207" d="M 0 0 
L -3.5 0 
" style="stroke: #e4e4e9; stroke-opacity: 0.819608; stroke-width: 1.6"/>
      </defs>
      <g>
       <use xlink:href="#md121a24207" x="63.611" y="581.702" style="fill: #e4e4e9; fill-opacity: 0.819608; stroke: #e4e4e9; stroke-opacity: 0.819608; stroke-width: 1.6"/>
      </g>
     </g>
     <g id="text_8">
      <!-- 0.0 -->
      <g style="fill: #e4e4e9; opacity: 0.819608" transform="translate(27.216 587.702) scale(0.16 -0.16)">
       <use xlink:href="#FiraSans-Regular-30"/>
       <use xlink:href="#FiraSans-Regular-2e" x="55.799988"/>
       <use xlink:href="#FiraSans-Regular-30" x="79.799973"/>
      </g>
     </g>
    </g>
    <g id="ytick_2">
     <g id="line2d_8">
      <g>
       <use xlink:href="#md121a24207" x="63.611" y="489.712797" style="fill: #e4e4e9; fill-opacity: 0.819608; stroke: #e4e4e9; stroke-opacity: 0.819608; stroke-width: 1.6"/>
      </g>
     </g>
     <g id="text_9">
      <!-- 0.5 -->
      <g style="fill: #e4e4e9; opacity: 0.819608" transform="translate(28.1285 495.712797) scale(0.16 -0.16)">
       <defs>
        <path id="FiraSans-Regular-35" d="M 2771 4282 
L 454 4282 
L 454 2125 
L 915 2125 
C 1120 2221 1293 2272 1523 2272 
C 1965 2272 2304 2042 2304 1382 
C 2304 755 1965 403 1427 403 
C 1056 403 781 538 512 806 
L 166 467 
C 499 128 890 -77 1434 -77 
C 2323 -77 2918 518 2918 1370 
C 2918 2221 2426 2726 1702 2726 
C 1472 2726 1242 2675 1018 2560 
L 1018 3821 
L 2688 3821 
L 2771 4282 
z
" transform="scale(0.015625)"/>
       </defs>
       <use xlink:href="#FiraSans-Regular-30"/>
       <use xlink:href="#FiraSans-Regular-2e" x="55.799988"/>
       <use xlink:href="#FiraSans-Regular-35" x="79.799973"/>
      </g>
     </g>
    </g>
    <g id="ytick_3">
     <g id="line2d_9">
      <g>
       <use xlink:href="#md121a24207" x="63.611" y="397.723595" style="fill: #e4e4e9; fill-opacity: 0.819608; stroke: #e4e4e9; stroke-opacity: 0.819608; stroke-width: 1.6"/>
      </g>
     </g>
     <g id="text_10">
      <!-- 1.0 -->
      <g style="fill: #e4e4e9; opacity: 0.819608" transform="translate(29.216 403.723595) scale(0.16 -0.16)">
       <use xlink:href="#FiraSans-Regular-31"/>
       <use xlink:href="#FiraSans-Regular-2e" x="43.299988"/>
       <use xlink:href="#FiraSans-Regular-30" x="67.299973"/>
      </g>
     </g>
    </g>
    <g id="ytick_4">
     <g id="line2d_10">
      <g>
       <use xlink:href="#md121a24207" x="63.611" y="305.734392" style="fill: #e4e4e9; fill-opacity: 0.819608; stroke: #e4e4e9; stroke-opacity: 0.819608; stroke-width: 1.6"/>
      </g>
     </g>
     <g id="text_11">
      <!-- 1.5 -->
      <g style="fill: #e4e4e9; opacity: 0.819608" transform="translate(30.1285 311.734392) scale(0.16 -0.16)">
       <use xlink:href="#FiraSans-Regular-31"/>
       <use xlink:href="#FiraSans-Regular-2e" x="43.299988"/>
       <use xlink:href="#FiraSans-Regular-35" x="67.299973"/>
      </g>
     </g>
    </g>
    <g id="ytick_5">
     <g id="line2d_11">
      <g>
       <use xlink:href="#md121a24207" x="63.611" y="213.745189" style="fill: #e4e4e9; fill-opacity: 0.819608; stroke: #e4e4e9; stroke-opacity: 0.819608; stroke-width: 1.6"/>
      </g>
     </g>
     <g id="text_12">
      <!-- 2.0 -->
      <g style="fill: #e4e4e9; opacity: 0.819608" transform="translate(28.2235 219.745189) scale(0.16 -0.16)">
       <use xlink:href="#FiraSans-Regular-32"/>
       <use xlink:href="#FiraSans-Regular-2e" x="49.499985"/>
       <use xlink:href="#FiraSans-Regular-30" x="73.499969"/>
      </g>
     </g>
    </g>
    <g id="ytick_6">
     <g id="line2d_12">
      <g>
       <use xlink:href="#md121a24207" x="63.611" y="121.755987" style="fill: #e4e4e9; fill-opacity: 0.819608; stroke: #e4e4e9; stroke-opacity: 0.819608; stroke-width: 1.6"/>
      </g>
     </g>
     <g id="text_13">
      <!-- 2.5 -->
      <g style="fill: #e4e4e9; opacity: 0.819608" transform="translate(29.136 127.755987) scale(0.16 -0.16)">
       <use xlink:href="#FiraSans-Regular-32"/>
       <use xlink:href="#FiraSans-Regular-2e" x="49.499985"/>
       <use xlink:href="#FiraSans-Regular-35" x="73.499969"/>
      </g>
     </g>
    </g>
    <g id="ytick_7">
     <g id="line2d_13">
      <g>
       <use xlink:href="#md121a24207" x="63.611" y="29.766784" style="fill: #e4e4e9; fill-opacity: 0.819608; stroke: #e4e4e9; stroke-opacity: 0.819608; stroke-width: 1.6"/>
      </g>
     </g>
     <g id="text_14">
      <!-- 3.0 -->
      <g style="fill: #e4e4e9; opacity: 0.819608" transform="translate(28.1585 35.766784) scale(0.16 -0.16)">
       <defs>
        <path id="FiraSans-Regular-33" d="M 1440 4346 
C 979 4346 582 4179 218 3840 
L 525 3488 
C 813 3757 1069 3872 1408 3872 
C 1837 3872 2118 3622 2118 3219 
C 2118 2720 1766 2464 1344 2464 
L 1126 2464 
L 1056 2010 
L 1376 2010 
C 1894 2010 2227 1830 2227 1242 
C 2227 736 1901 403 1363 403 
C 1018 403 730 531 448 826 
L 96 499 
C 422 109 870 -77 1382 -77 
C 2272 -77 2842 486 2842 1235 
C 2842 1882 2413 2221 1875 2272 
C 2355 2387 2707 2714 2707 3258 
C 2707 3834 2259 4346 1440 4346 
z
" transform="scale(0.015625)"/>
       </defs>
       <use xlink:href="#FiraSans-Regular-33"/>
       <use xlink:href="#FiraSans-Regular-2e" x="49.899994"/>
       <use xlink:href="#FiraSans-Regular-30" x="73.899979"/>
      </g>
     </g>
    </g>
    <g id="text_15">
     <!-- $f(X)$ -->
     <g style="fill: #e4e4e9; opacity: 0.819608" transform="translate(7.2 301.06625) scale(0.176 -0.176)">
      <defs>
       <path id="DejaVuSans-Oblique-66" d="M 3059 4863 
L 2969 4384 
L 2419 4384 
Q 2106 4384 1964 4261 
Q 1822 4138 1753 3809 
L 1691 3500 
L 2638 3500 
L 2553 3053 
L 1606 3053 
L 1013 0 
L 434 0 
L 1031 3053 
L 481 3053 
L 563 3500 
L 1113 3500 
L 1159 3744 
Q 1278 4363 1576 4613 
Q 1875 4863 2516 4863 
L 3059 4863 
z
" transform="scale(0.015625)"/>
       <path id="DejaVuSans-28" d="M 1984 4856 
Q 1566 4138 1362 3434 
Q 1159 2731 1159 2009 
Q 1159 1288 1364 580 
Q 1569 -128 1984 -844 
L 1484 -844 
Q 1016 -109 783 600 
Q 550 1309 550 2009 
Q 550 2706 781 3412 
Q 1013 4119 1484 4856 
L 1984 4856 
z
" transform="scale(0.015625)"/>
       <path id="DejaVuSans-29" d="M 513 4856 
L 1013 4856 
Q 1481 4119 1714 3412 
Q 1947 2706 1947 2009 
Q 1947 1309 1714 600 
Q 1481 -109 1013 -844 
L 513 -844 
Q 928 -128 1133 580 
Q 1338 1288 1338 2009 
Q 1338 2731 1133 3434 
Q 928 4138 513 4856 
z
" transform="scale(0.015625)"/>
      </defs>
      <use xlink:href="#DejaVuSans-Oblique-66" transform="translate(0 0.015625)"/>
      <use xlink:href="#DejaVuSans-28" transform="translate(35.205078 0.015625)"/>
      <use xlink:href="#DejaVuSans-Oblique-58" transform="translate(74.21875 0.015625)"/>
      <use xlink:href="#DejaVuSans-29" transform="translate(142.724609 0.015625)"/>
     </g>
    </g>
   </g>
   <g id="line2d_14">
    <path d="M 70.860858 -1 
L 71.071743 7.686521 
L 72.137564 43.058223 
L 73.203384 72.34315 
L 74.269204 97.105335 
L 75.335025 118.398505 
L 76.400845 136.961951 
L 77.466666 153.331704 
L 79.598307 180.992847 
L 81.729948 203.592417 
L 83.861588 222.501971 
L 85.993229 238.62357 
L 88.12487 252.57804 
L 90.256511 264.808499 
L 92.388152 275.640824 
L 94.519793 285.32073 
L 96.651434 294.037457 
L 98.783075 301.939433 
L 100.914716 309.144931 
L 103.046356 315.749514 
L 105.177997 321.831347 
L 108.375459 330.112364 
L 111.57292 337.53561 
L 114.770381 344.237493 
L 117.967843 350.325873 
L 121.165304 355.887308 
L 124.362765 360.992174 
L 127.560227 365.698355 
L 130.757688 370.053957 
L 133.955149 374.099332 
L 138.218431 379.068839 
L 142.481713 383.614335 
L 146.744995 387.790945 
L 151.008276 391.644243 
L 155.271558 395.212286 
L 159.53484 398.527127 
L 164.863942 402.355694 
L 170.193044 405.875582 
L 175.522147 409.123935 
L 180.851249 412.131904 
L 187.246171 415.460969 
L 193.641094 418.519868 
L 200.036017 421.340482 
L 207.49676 424.365568 
L 214.957503 427.138308 
L 222.418246 429.688403 
L 230.94481 432.362002 
L 239.471373 434.808501 
L 249.063757 437.321665 
L 258.656141 439.611291 
L 269.314346 441.924374 
L 281.038371 444.221692 
L 292.762395 446.291385 
L 305.552241 448.32084 
L 319.407907 450.282496 
L 334.329393 452.152606 
L 349.250879 453.800849 
L 365.238186 455.348717 
L 382.291313 456.778405 
L 400.41026 458.073854 
L 419.595028 459.220194 
L 439.845617 460.203144 
L 461.162026 461.008381 
L 483.544255 461.620846 
L 505.926484 462.010746 
L 529.374534 462.193351 
L 552.822584 462.153627 
L 576.270633 461.896333 
L 599.718683 461.422336 
L 623.166733 460.728725 
L 646.614783 459.808747 
L 668.997012 458.709493 
L 690.313421 457.449526 
L 711.62983 455.966333 
L 731.880418 454.332947 
L 751.065186 452.56478 
L 769.184134 450.677671 
L 786.237261 448.688439 
L 803.290388 446.469464 
L 819.277695 444.156234 
L 834.199181 441.769381 
L 848.054847 439.33235 
L 860.844692 436.871728 
L 873.634537 434.184149 
L 885.358562 431.497148 
L 897.082587 428.569986 
L 907.740792 425.674845 
L 917.333176 422.855441 
L 926.92556 419.809325 
L 935.452123 416.88921 
L 943.978687 413.745669 
L 952.50525 410.352248 
L 959.965993 407.153674 
L 967.426736 403.715558 
L 974.887479 400.009297 
L 981.282402 396.593711 
L 987.677325 392.931648 
L 994.072247 388.994169 
L 999.40135 385.478226 
L 1004.730452 381.72467 
L 1010.059554 377.707042 
L 1015.388656 373.394553 
L 1020.717759 368.751126 
L 1024.98104 364.769747 
L 1029.244322 360.524015 
L 1033.507604 355.984511 
L 1037.770886 351.117013 
L 1042.034167 345.881444 
L 1046.297449 340.230514 
L 1050.560731 334.107964 
L 1053.758192 329.166431 
L 1056.955654 323.888299 
L 1060.153115 318.234493 
L 1063.350576 312.159276 
L 1066.548038 305.608725 
L 1069.745499 298.51874 
L 1072.94296 290.81244 
L 1076.140422 282.396684 
L 1079.337883 273.157376 
L 1082.535344 262.952981 
L 1084.666985 255.527818 
L 1086.798626 247.531273 
L 1088.930267 238.887005 
L 1091.061908 229.503599 
L 1093.193549 219.270511 
L 1095.32519 208.052594 
L 1097.456831 195.682585 
L 1099.588471 181.950574 
L 1101.720112 166.588933 
L 1103.851753 149.250169 
L 1105.983394 129.473422 
L 1108.115035 106.632026 
L 1110.246676 79.848001 
L 1112.378317 47.84564 
L 1113.444137 29.31887 
L 1114.955459 -1 
L 1114.955459 -1 
" clip-path="url(#p31b0c54e86)" style="fill: none; stroke: #a6cee3; stroke-opacity: 0.8; stroke-width: 3; stroke-linecap: square"/>
   </g>
   <g id="line2d_15">
    <path d="M 63.611 581.702 
L 174.456326 581.593954 
L 214.957503 581.326484 
L 245.866296 580.912305 
L 272.511807 580.33899 
L 295.959857 579.616064 
L 317.276266 578.738651 
L 336.461034 577.735251 
L 354.579981 576.571904 
L 371.633108 575.259324 
L 387.620415 573.813958 
L 403.607722 572.138043 
L 418.529208 570.345308 
L 432.384874 568.465313 
L 446.240539 566.361034 
L 459.030385 564.20472 
L 471.82023 561.8287 
L 484.610075 559.218533 
L 496.3341 556.607472 
L 508.058125 553.775332 
L 519.78215 550.709973 
L 531.506175 547.398931 
L 542.164379 544.164939 
L 552.822584 540.707495 
L 563.480788 537.016536 
L 574.138993 533.081776 
L 584.797197 528.892709 
L 594.389581 524.896253 
L 603.981965 520.677147 
L 613.574349 516.227271 
L 623.166733 511.538359 
L 632.759117 506.602001 
L 642.351501 501.409641 
L 651.943885 495.952576 
L 661.536269 490.22196 
L 671.128653 484.2088 
L 680.721037 477.903959 
L 689.247601 472.047286 
L 697.774164 465.946199 
L 706.300728 459.593991 
L 714.827291 452.983864 
L 723.353855 446.108929 
L 731.880418 438.962206 
L 740.406982 431.536626 
L 748.933545 423.825026 
L 757.460109 415.820155 
L 765.986673 407.514671 
L 774.513236 398.901139 
L 783.0398 389.972035 
L 791.566363 380.719744 
L 800.092927 371.136561 
L 808.61949 361.214687 
L 817.146054 350.946237 
L 825.672617 340.323231 
L 834.199181 329.3376 
L 842.725744 317.981185 
L 851.252308 306.245735 
L 859.778872 294.122908 
L 868.305435 281.604272 
L 876.831999 268.681304 
L 885.358562 255.34539 
L 893.885126 241.587825 
L 902.411689 227.399815 
L 910.938253 212.772472 
L 919.464816 197.69682 
L 927.99138 182.163791 
L 936.517944 166.164226 
L 945.044507 149.688877 
L 953.571071 132.728401 
L 962.097634 115.27337 
L 970.624198 97.314261 
L 979.150761 78.841461 
L 987.677325 59.845267 
L 996.203888 40.315884 
L 1004.730452 20.243429 
L 1013.508621 -1 
L 1013.508621 -1 
" clip-path="url(#p31b0c54e86)" style="fill: none; stroke: #1f78b4; stroke-opacity: 0.8; stroke-width: 3; stroke-linecap: square"/>
   </g>
   <g id="line2d_16">
    <path d="M 63.611 29.766784 
L 81.729948 48.391537 
L 99.848895 66.696633 
L 117.967843 84.682071 
L 136.08679 102.347851 
L 154.205738 119.693974 
L 172.324685 136.72044 
L 190.443633 153.427248 
L 208.56258 169.814398 
L 225.615707 184.945593 
L 242.668835 199.793631 
L 259.721962 214.358512 
L 276.775089 228.640236 
L 293.828216 242.638803 
L 310.881343 256.354214 
L 327.93447 269.786467 
L 344.987597 282.935564 
L 362.040724 295.801504 
L 379.093851 308.384287 
L 396.146978 320.683913 
L 413.200106 332.700382 
L 430.253233 344.433695 
L 447.30636 355.88385 
L 464.359487 367.050849 
L 480.346794 377.262746 
L 496.3341 387.225775 
L 512.321407 396.939936 
L 528.308714 406.405228 
L 544.29602 415.621652 
L 560.283327 424.589208 
L 576.270633 433.307895 
L 592.25794 441.777714 
L 608.245247 449.998665 
L 624.232553 457.970747 
L 640.21986 465.693961 
L 656.207167 473.168307 
L 672.194473 480.393784 
L 688.18178 487.370393 
L 704.169087 494.098134 
L 720.156393 500.577006 
L 736.1437 506.80701 
L 752.131007 512.788146 
L 768.118313 518.520413 
L 784.10562 524.003812 
L 800.092927 529.238343 
L 816.080233 534.224005 
L 831.00172 538.652755 
L 845.923206 542.864714 
L 860.844692 546.85988 
L 875.766178 550.638254 
L 890.687664 554.199837 
L 905.609151 557.544627 
L 920.530637 560.672626 
L 935.452123 563.583832 
L 950.373609 566.278247 
L 965.295096 568.755869 
L 980.216582 571.0167 
L 995.138068 573.060738 
L 1010.059554 574.887985 
L 1024.98104 576.49844 
L 1039.902527 577.892102 
L 1054.824013 579.068973 
L 1069.745499 580.029052 
L 1084.666985 580.772339 
L 1099.588471 581.298833 
L 1114.509958 581.608536 
L 1128.365623 581.702 
L 1128.365623 581.702 
" clip-path="url(#p31b0c54e86)" style="fill: none; stroke: #b2df8a; stroke-opacity: 0.8; stroke-width: 3; stroke-linecap: square"/>
   </g>
   <g id="line2d_17">
    <path d="M 63.611 581.702 
L 123.296945 540.579211 
L 155.271558 518.819566 
L 181.917069 500.943304 
L 206.430939 484.766871 
L 228.813169 470.269896 
L 249.063757 457.413317 
L 268.248525 445.48952 
L 286.367473 434.480686 
L 304.48642 423.739354 
L 321.539547 413.893713 
L 337.526854 404.912265 
L 353.514161 396.18691 
L 368.435647 388.287483 
L 383.357133 380.636315 
L 398.278619 373.245557 
L 412.134285 366.626507 
L 425.989951 360.252204 
L 439.845617 354.132376 
L 452.635462 348.717586 
L 465.425307 343.535571 
L 478.215153 338.593984 
L 491.004998 333.900478 
L 502.729023 329.822567 
L 514.453048 325.965437 
L 526.177073 322.334985 
L 537.901098 318.937104 
L 549.625122 315.777689 
L 561.349147 312.862636 
L 572.007352 310.429596 
L 582.665556 308.207808 
L 593.323761 306.2017 
L 603.981965 304.415701 
L 614.640169 302.85424 
L 625.298374 301.521746 
L 635.956578 300.422647 
L 646.614783 299.561373 
L 657.272987 298.942351 
L 666.865371 298.596018 
L 676.457755 298.452726 
L 686.050139 298.515702 
L 695.642523 298.788177 
L 705.234907 299.273378 
L 714.827291 299.974534 
L 724.419675 300.894874 
L 734.012059 302.037625 
L 743.604443 303.406018 
L 753.196827 305.003279 
L 762.789211 306.832638 
L 772.381595 308.897323 
L 781.973979 311.200564 
L 791.566363 313.745588 
L 801.158747 316.535623 
L 810.751131 319.5739 
L 820.343515 322.863645 
L 829.935899 326.408088 
L 839.528283 330.210458 
L 849.120667 334.273982 
L 858.713051 338.601889 
L 868.305435 343.197409 
L 877.897819 348.063769 
L 887.490203 353.204198 
L 897.082587 358.621924 
L 906.674971 364.320177 
L 916.267355 370.302185 
L 925.859739 376.571176 
L 935.452123 383.130378 
L 945.044507 389.983021 
L 954.636891 397.132334 
L 964.229275 404.581543 
L 973.821659 412.333879 
L 983.414043 420.39257 
L 993.006427 428.760843 
L 1002.598811 437.441929 
L 1012.191195 446.439055 
L 1021.783579 455.75545 
L 1031.375963 465.394342 
L 1040.968347 475.35896 
L 1050.560731 485.652533 
L 1060.153115 496.27829 
L 1069.745499 507.239457 
L 1079.337883 518.539266 
L 1088.930267 530.180943 
L 1098.522651 542.167717 
L 1108.115035 554.502818 
L 1117.707419 567.189473 
L 1127.299803 580.230911 
L 1128.365623 581.702 
L 1128.365623 581.702 
" clip-path="url(#p31b0c54e86)" style="fill: none; stroke: #33a02c; stroke-opacity: 0.8; stroke-width: 3; stroke-linecap: square"/>
   </g>
   <g id="line2d_18">
    <path d="M 63.611 581.702 
L 96.651434 524.831182 
L 113.704561 495.909397 
L 128.626047 471.028892 
L 141.415892 450.111843 
L 153.139917 431.334166 
L 164.863942 412.990739 
L 175.522147 396.735481 
L 185.114531 382.480573 
L 194.706915 368.608393 
L 204.299299 355.144629 
L 212.825862 343.539685 
L 221.352426 332.293596 
L 229.878989 321.422305 
L 238.405553 310.941028 
L 245.866296 302.101232 
L 253.327039 293.58032 
L 260.787782 285.387016 
L 268.248525 277.529554 
L 275.709268 270.015672 
L 283.170011 262.852593 
L 289.564934 256.997117 
L 295.959857 251.408218 
L 302.354779 246.089512 
L 308.749702 241.044321 
L 315.144625 236.275668 
L 321.539547 231.78627 
L 327.93447 227.57854 
L 334.329393 223.654581 
L 340.724315 220.016184 
L 347.119238 216.664826 
L 353.514161 213.601671 
L 359.909083 210.827563 
L 365.238186 208.736997 
L 370.567288 206.847668 
L 375.89639 205.159558 
L 381.225492 203.672496 
L 386.554594 202.386159 
L 391.883697 201.300069 
L 397.212799 200.413597 
L 402.541901 199.725959 
L 407.871003 199.236221 
L 413.200106 198.943299 
L 418.529208 198.845958 
L 423.85831 198.942813 
L 429.187412 199.232334 
L 434.516514 199.712841 
L 439.845617 200.382513 
L 446.240539 201.433037 
L 452.635462 202.74945 
L 459.030385 204.327797 
L 465.425307 206.163834 
L 471.82023 208.253043 
L 478.215153 210.590629 
L 484.610075 213.17153 
L 491.004998 215.990424 
L 497.399921 219.041735 
L 503.794843 222.319638 
L 510.189766 225.818071 
L 517.650509 230.16989 
L 525.111252 234.802919 
L 532.571995 239.706383 
L 540.032738 244.869133 
L 547.493482 250.279663 
L 556.020045 256.751329 
L 564.546609 263.512983 
L 573.073172 270.545966 
L 582.665556 278.758597 
L 592.25794 287.262655 
L 602.916145 297.018924 
L 614.640169 308.078775 
L 627.430015 320.475052 
L 641.285681 334.215167 
L 659.404628 352.525658 
L 722.288034 416.427477 
L 737.209521 431.084777 
L 749.999366 443.336764 
L 761.723391 454.265291 
L 772.381595 463.914757 
L 783.0398 473.263604 
L 792.632184 481.399389 
L 802.224568 489.253934 
L 811.816952 496.811788 
L 821.409336 504.059153 
L 829.935899 510.230794 
L 838.462463 516.140233 
L 846.989026 521.7813 
L 855.51559 527.148988 
L 864.042153 532.239472 
L 872.568717 537.050127 
L 881.09528 541.57954 
L 889.621844 545.827513 
L 898.148408 549.79507 
L 906.674971 553.484443 
L 915.201535 556.899071 
L 923.728098 560.043574 
L 932.254662 562.923734 
L 940.781225 565.546461 
L 949.307789 567.919755 
L 957.834352 570.052659 
L 966.360916 571.955201 
L 974.887479 573.638335 
L 983.414043 575.113863 
L 993.006427 576.541355 
L 1002.598811 577.740928 
L 1013.257015 578.830576 
L 1023.91522 579.691422 
L 1035.639245 580.408424 
L 1048.42909 580.959816 
L 1063.350576 581.362595 
L 1081.469524 581.60513 
L 1107.049215 581.697549 
L 1128.365623 581.702 
L 1128.365623 581.702 
" clip-path="url(#p31b0c54e86)" style="fill: none; stroke: #fb9a99; stroke-opacity: 0.8; stroke-width: 3; stroke-linecap: square"/>
   </g>
   <g id="patch_3">
    <path d="M 63.611 581.702 
L 63.611 27.927 
" style="fill: none; stroke: #ffffff; stroke-width: 0.8; stroke-linejoin: miter; stroke-linecap: square"/>
   </g>
   <g id="patch_4">
    <path d="M 63.611 581.702 
L 1128.365623 581.702 
" style="fill: none; stroke: #ffffff; stroke-width: 0.8; stroke-linejoin: miter; stroke-linecap: square"/>
   </g>
   <g id="text_16">
    <!-- PDF of $X \sim \mathrm{Kumaraswamy}(\alpha, \beta)$ -->
    <g style="fill: #e4e4e9; opacity: 0.819608" transform="translate(451.124312 21.927) scale(0.192 -0.192)">
     <defs>
      <path id="FiraSans-Regular-50" d="M 1798 4410 
L 640 4410 
L 640 0 
L 1248 0 
L 1248 1619 
L 1805 1619 
C 2778 1619 3514 2035 3514 3046 
C 3514 3974 2861 4410 1798 4410 
z
M 1779 2099 
L 1248 2099 
L 1248 3936 
L 1792 3936 
C 2445 3936 2867 3699 2867 3040 
C 2867 2291 2432 2099 1779 2099 
z
" transform="scale(0.015625)"/>
      <path id="FiraSans-Regular-44" d="M 1562 4410 
L 640 4410 
L 640 0 
L 1696 0 
C 2650 0 3770 429 3770 2227 
C 3770 4058 2688 4410 1562 4410 
z
M 1696 3923 
C 2400 3923 3123 3718 3123 2227 
C 3123 774 2432 480 1741 480 
L 1248 480 
L 1248 3923 
L 1696 3923 
z
" transform="scale(0.015625)"/>
      <path id="FiraSans-Regular-46" d="M 640 0 
L 1248 0 
L 1248 1939 
L 2688 1939 
L 2688 2419 
L 1248 2419 
L 1248 3923 
L 2912 3923 
L 2982 4410 
L 640 4410 
L 640 0 
z
" transform="scale(0.015625)"/>
      <path id="FiraSans-Regular-20" transform="scale(0.015625)"/>
      <path id="FiraSans-Regular-6f" d="M 1875 3450 
C 915 3450 365 2726 365 1683 
C 365 614 909 -77 1869 -77 
C 2822 -77 3373 646 3373 1690 
C 3373 2758 2835 3450 1875 3450 
z
M 1875 2976 
C 2432 2976 2739 2566 2739 1690 
C 2739 806 2432 397 1869 397 
C 1306 397 998 806 998 1683 
C 998 2566 1312 2976 1875 2976 
z
" transform="scale(0.015625)"/>
      <path id="FiraSans-Regular-66" d="M 1754 4326 
C 1926 4326 2125 4294 2342 4198 
L 2528 4627 
C 2259 4742 2042 4800 1722 4800 
C 1037 4800 666 4397 666 3834 
L 666 3373 
L 64 3373 
L 64 2918 
L 666 2918 
L 666 0 
L 1254 0 
L 1254 2918 
L 2010 2918 
L 2074 3373 
L 1254 3373 
L 1254 3840 
C 1254 4166 1382 4326 1754 4326 
z
" transform="scale(0.015625)"/>
      <path id="DejaVuSans-223c" d="M 4684 2556 
L 4684 1997 
Q 4356 1753 4076 1645 
Q 3797 1538 3494 1538 
Q 3150 1538 2694 1722 
Q 2663 1734 2641 1744 
Q 2622 1750 2575 1769 
Q 2091 1959 1797 1959 
Q 1522 1959 1253 1840 
Q 984 1722 678 1459 
L 678 2019 
Q 1006 2263 1286 2370 
Q 1566 2478 1869 2478 
Q 2213 2478 2672 2294 
Q 2706 2278 2722 2272 
Q 2741 2266 2788 2247 
Q 3272 2056 3566 2056 
Q 3834 2056 4098 2173 
Q 4363 2291 4684 2556 
z
" transform="scale(0.015625)"/>
      <path id="DejaVuSans-4b" d="M 628 4666 
L 1259 4666 
L 1259 2694 
L 3353 4666 
L 4166 4666 
L 1850 2491 
L 4331 0 
L 3500 0 
L 1259 2247 
L 1259 0 
L 628 0 
L 628 4666 
z
" transform="scale(0.015625)"/>
      <path id="DejaVuSans-75" d="M 544 1381 
L 544 3500 
L 1119 3500 
L 1119 1403 
Q 1119 906 1312 657 
Q 1506 409 1894 409 
Q 2359 409 2629 706 
Q 2900 1003 2900 1516 
L 2900 3500 
L 3475 3500 
L 3475 0 
L 2900 0 
L 2900 538 
Q 2691 219 2414 64 
Q 2138 -91 1772 -91 
Q 1169 -91 856 284 
Q 544 659 544 1381 
z
M 1991 3584 
L 1991 3584 
z
" transform="scale(0.015625)"/>
      <path id="DejaVuSans-6d" d="M 3328 2828 
Q 3544 3216 3844 3400 
Q 4144 3584 4550 3584 
Q 5097 3584 5394 3201 
Q 5691 2819 5691 2113 
L 5691 0 
L 5113 0 
L 5113 2094 
Q 5113 2597 4934 2840 
Q 4756 3084 4391 3084 
Q 3944 3084 3684 2787 
Q 3425 2491 3425 1978 
L 3425 0 
L 2847 0 
L 2847 2094 
Q 2847 2600 2669 2842 
Q 2491 3084 2119 3084 
Q 1678 3084 1418 2786 
Q 1159 2488 1159 1978 
L 1159 0 
L 581 0 
L 581 3500 
L 1159 3500 
L 1159 2956 
Q 1356 3278 1631 3431 
Q 1906 3584 2284 3584 
Q 2666 3584 2933 3390 
Q 3200 3197 3328 2828 
z
" transform="scale(0.015625)"/>
      <path id="DejaVuSans-61" d="M 2194 1759 
Q 1497 1759 1228 1600 
Q 959 1441 959 1056 
Q 959 750 1161 570 
Q 1363 391 1709 391 
Q 2188 391 2477 730 
Q 2766 1069 2766 1631 
L 2766 1759 
L 2194 1759 
z
M 3341 1997 
L 3341 0 
L 2766 0 
L 2766 531 
Q 2569 213 2275 61 
Q 1981 -91 1556 -91 
Q 1019 -91 701 211 
Q 384 513 384 1019 
Q 384 1609 779 1909 
Q 1175 2209 1959 2209 
L 2766 2209 
L 2766 2266 
Q 2766 2663 2505 2880 
Q 2244 3097 1772 3097 
Q 1472 3097 1187 3025 
Q 903 2953 641 2809 
L 641 3341 
Q 956 3463 1253 3523 
Q 1550 3584 1831 3584 
Q 2591 3584 2966 3190 
Q 3341 2797 3341 1997 
z
" transform="scale(0.015625)"/>
      <path id="DejaVuSans-72" d="M 2631 2963 
Q 2534 3019 2420 3045 
Q 2306 3072 2169 3072 
Q 1681 3072 1420 2755 
Q 1159 2438 1159 1844 
L 1159 0 
L 581 0 
L 581 3500 
L 1159 3500 
L 1159 2956 
Q 1341 3275 1631 3429 
Q 1922 3584 2338 3584 
Q 2397 3584 2469 3576 
Q 2541 3569 2628 3553 
L 2631 2963 
z
" transform="scale(0.015625)"/>
      <path id="DejaVuSans-73" d="M 2834 3397 
L 2834 2853 
Q 2591 2978 2328 3040 
Q 2066 3103 1784 3103 
Q 1356 3103 1142 2972 
Q 928 2841 928 2578 
Q 928 2378 1081 2264 
Q 1234 2150 1697 2047 
L 1894 2003 
Q 2506 1872 2764 1633 
Q 3022 1394 3022 966 
Q 3022 478 2636 193 
Q 2250 -91 1575 -91 
Q 1294 -91 989 -36 
Q 684 19 347 128 
L 347 722 
Q 666 556 975 473 
Q 1284 391 1588 391 
Q 1994 391 2212 530 
Q 2431 669 2431 922 
Q 2431 1156 2273 1281 
Q 2116 1406 1581 1522 
L 1381 1569 
Q 847 1681 609 1914 
Q 372 2147 372 2553 
Q 372 3047 722 3315 
Q 1072 3584 1716 3584 
Q 2034 3584 2315 3537 
Q 2597 3491 2834 3397 
z
" transform="scale(0.015625)"/>
      <path id="DejaVuSans-77" d="M 269 3500 
L 844 3500 
L 1563 769 
L 2278 3500 
L 2956 3500 
L 3675 769 
L 4391 3500 
L 4966 3500 
L 4050 0 
L 3372 0 
L 2619 2869 
L 1863 0 
L 1184 0 
L 269 3500 
z
" transform="scale(0.015625)"/>
      <path id="DejaVuSans-79" d="M 2059 -325 
Q 1816 -950 1584 -1140 
Q 1353 -1331 966 -1331 
L 506 -1331 
L 506 -850 
L 844 -850 
Q 1081 -850 1212 -737 
Q 1344 -625 1503 -206 
L 1606 56 
L 191 3500 
L 800 3500 
L 1894 763 
L 2988 3500 
L 3597 3500 
L 2059 -325 
z
" transform="scale(0.015625)"/>
      <path id="DejaVuSans-Oblique-3b1" d="M 2619 1628 
L 2622 2350 
Q 2625 3088 2069 3091 
Q 1653 3094 1394 2747 
Q 1069 2319 959 1747 
Q 825 1059 994 731 
Q 1169 397 1547 397 
Q 1966 397 2319 1063 
L 2619 1628 
z
M 2166 3578 
Q 3141 3594 3128 2584 
Q 3128 2584 3616 3500 
L 4128 3500 
L 3119 1603 
L 3109 919 
Q 3109 766 3194 638 
Q 3291 488 3391 488 
L 3669 488 
L 3575 0 
L 3228 0 
Q 2934 0 2722 263 
Q 2622 394 2619 669 
Q 2416 334 2066 50 
Q 1900 -81 1453 -78 
Q 722 -72 456 397 
Q 184 884 353 1747 
Q 534 2675 1009 3097 
Q 1544 3569 2166 3578 
z
" transform="scale(0.015625)"/>
      <path id="DejaVuSans-2c" d="M 750 794 
L 1409 794 
L 1409 256 
L 897 -744 
L 494 -744 
L 750 256 
L 750 794 
z
" transform="scale(0.015625)"/>
      <path id="DejaVuSans-Oblique-3b2" d="M 872 216 
L 572 -1331 
L -6 -1331 
L 928 3478 
Q 1206 4903 2538 4903 
Q 3888 4903 3659 3700 
Q 3503 2844 2894 2531 
Q 3713 2250 3553 1416 
Q 3272 -69 1759 -66 
Q 1097 -63 872 216 
z
M 1019 966 
Q 1259 422 1875 425 
Q 2775 425 2966 1406 
Q 3138 2288 1675 2219 
L 1778 2750 
Q 2909 2731 3106 3750 
Q 3241 4438 2509 4434 
Q 1691 4434 1503 3459 
L 1019 966 
z
" transform="scale(0.015625)"/>
     </defs>
     <use xlink:href="#FiraSans-Regular-50" transform="translate(0 0.390625)"/>
     <use xlink:href="#FiraSans-Regular-44" transform="translate(58.099991 0.390625)"/>
     <use xlink:href="#FiraSans-Regular-46" transform="translate(122.499985 0.390625)"/>
     <use xlink:href="#FiraSans-Regular-20" transform="translate(171.599976 0.390625)"/>
     <use xlink:href="#FiraSans-Regular-6f" transform="translate(198.09996 0.390625)"/>
     <use xlink:href="#FiraSans-Regular-66" transform="translate(256.499954 0.390625)"/>
     <use xlink:href="#FiraSans-Regular-20" transform="translate(289.999939 0.390625)"/>
     <use xlink:href="#DejaVuSans-Oblique-58" transform="translate(316.499924 0.390625)"/>
     <use xlink:href="#DejaVuSans-223c" transform="translate(404.488205 0.390625)"/>
     <use xlink:href="#DejaVuSans-4b" transform="translate(507.759689 0.390625)"/>
     <use xlink:href="#DejaVuSans-75" transform="translate(573.335861 0.390625)"/>
     <use xlink:href="#DejaVuSans-6d" transform="translate(636.714767 0.390625)"/>
     <use xlink:href="#DejaVuSans-61" transform="translate(734.126877 0.390625)"/>
     <use xlink:href="#DejaVuSans-72" transform="translate(795.406174 0.390625)"/>
     <use xlink:href="#DejaVuSans-61" transform="translate(836.519455 0.390625)"/>
     <use xlink:href="#DejaVuSans-73" transform="translate(897.798752 0.390625)"/>
     <use xlink:href="#DejaVuSans-77" transform="translate(949.898361 0.390625)"/>
     <use xlink:href="#DejaVuSans-61" transform="translate(1031.685471 0.390625)"/>
     <use xlink:href="#DejaVuSans-6d" transform="translate(1092.964767 0.390625)"/>
     <use xlink:href="#DejaVuSans-79" transform="translate(1190.376877 0.390625)"/>
     <use xlink:href="#DejaVuSans-28" transform="translate(1249.556564 0.390625)"/>
     <use xlink:href="#DejaVuSans-Oblique-3b1" transform="translate(1288.570236 0.390625)"/>
     <use xlink:href="#DejaVuSans-2c" transform="translate(1354.488205 0.390625)"/>
     <use xlink:href="#DejaVuSans-Oblique-3b2" transform="translate(1405.757736 0.390625)"/>
     <use xlink:href="#DejaVuSans-29" transform="translate(1469.576096 0.390625)"/>
    </g>
   </g>
   <g id="legend_1">
    <g id="patch_5">
     <path d="M 508.468312 159.127 
L 683.508312 159.127 
Q 686.708312 159.127 686.708312 155.927 
L 686.708312 39.127 
Q 686.708312 35.927 683.508312 35.927 
L 508.468312 35.927 
Q 505.268312 35.927 505.268312 39.127 
L 505.268312 155.927 
Q 505.268312 159.127 508.468312 159.127 
z
" style="opacity: 0.8; stroke: #cccccc; stroke-width: 0.48; stroke-linejoin: miter"/>
    </g>
    <g id="line2d_19">
     <path d="M 511.668312 48.9995 
L 527.668312 48.9995 
L 543.668312 48.9995 
" style="fill: none; stroke: #a6cee3; stroke-opacity: 0.8; stroke-width: 3; stroke-linecap: square"/>
    </g>
    <g id="text_17">
     <!-- $\alpha = 1/2,\ \beta = 1/2$ -->
     <g style="fill: #e4e4e9; opacity: 0.819608" transform="translate(556.468312 54.5995) scale(0.16 -0.16)">
      <defs>
       <path id="DejaVuSans-3d" d="M 678 2906 
L 4684 2906 
L 4684 2381 
L 678 2381 
L 678 2906 
z
M 678 1631 
L 4684 1631 
L 4684 1100 
L 678 1100 
L 678 1631 
z
" transform="scale(0.015625)"/>
       <path id="DejaVuSans-31" d="M 794 531 
L 1825 531 
L 1825 4091 
L 703 3866 
L 703 4441 
L 1819 4666 
L 2450 4666 
L 2450 531 
L 3481 531 
L 3481 0 
L 794 0 
L 794 531 
z
" transform="scale(0.015625)"/>
       <path id="DejaVuSans-2f" d="M 1625 4666 
L 2156 4666 
L 531 -594 
L 0 -594 
L 1625 4666 
z
" transform="scale(0.015625)"/>
       <path id="DejaVuSans-32" d="M 1228 531 
L 3431 531 
L 3431 0 
L 469 0 
L 469 531 
Q 828 903 1448 1529 
Q 2069 2156 2228 2338 
Q 2531 2678 2651 2914 
Q 2772 3150 2772 3378 
Q 2772 3750 2511 3984 
Q 2250 4219 1831 4219 
Q 1534 4219 1204 4116 
Q 875 4013 500 3803 
L 500 4441 
Q 881 4594 1212 4672 
Q 1544 4750 1819 4750 
Q 2544 4750 2975 4387 
Q 3406 4025 3406 3419 
Q 3406 3131 3298 2873 
Q 3191 2616 2906 2266 
Q 2828 2175 2409 1742 
Q 1991 1309 1228 531 
z
" transform="scale(0.015625)"/>
      </defs>
      <use xlink:href="#DejaVuSans-Oblique-3b1" transform="translate(0 0.390625)"/>
      <use xlink:href="#DejaVuSans-3d" transform="translate(85.400391 0.390625)"/>
      <use xlink:href="#DejaVuSans-31" transform="translate(188.671875 0.390625)"/>
      <use xlink:href="#DejaVuSans-2f" transform="translate(252.294922 0.390625)"/>
      <use xlink:href="#DejaVuSans-32" transform="translate(282.361328 0.390625)"/>
      <use xlink:href="#DejaVuSans-2c" transform="translate(345.984375 0.390625)"/>
      <use xlink:href="#DejaVuSans-Oblique-3b2" transform="translate(429.724285 0.390625)"/>
      <use xlink:href="#DejaVuSans-3d" transform="translate(513.025066 0.390625)"/>
      <use xlink:href="#DejaVuSans-31" transform="translate(616.29655 0.390625)"/>
      <use xlink:href="#DejaVuSans-2f" transform="translate(679.919597 0.390625)"/>
      <use xlink:href="#DejaVuSans-32" transform="translate(709.986003 0.390625)"/>
     </g>
    </g>
    <g id="line2d_20">
     <path d="M 511.668312 72.6795 
L 527.668312 72.6795 
L 543.668312 72.6795 
" style="fill: none; stroke: #1f78b4; stroke-opacity: 0.8; stroke-width: 3; stroke-linecap: square"/>
    </g>
    <g id="text_18">
     <!-- $\alpha = 5,\ \beta = 1$ -->
     <g style="fill: #e4e4e9; opacity: 0.819608" transform="translate(556.468312 78.2795) scale(0.16 -0.16)">
      <defs>
       <path id="DejaVuSans-35" d="M 691 4666 
L 3169 4666 
L 3169 4134 
L 1269 4134 
L 1269 2991 
Q 1406 3038 1543 3061 
Q 1681 3084 1819 3084 
Q 2600 3084 3056 2656 
Q 3513 2228 3513 1497 
Q 3513 744 3044 326 
Q 2575 -91 1722 -91 
Q 1428 -91 1123 -41 
Q 819 9 494 109 
L 494 744 
Q 775 591 1075 516 
Q 1375 441 1709 441 
Q 2250 441 2565 725 
Q 2881 1009 2881 1497 
Q 2881 1984 2565 2268 
Q 2250 2553 1709 2553 
Q 1456 2553 1204 2497 
Q 953 2441 691 2322 
L 691 4666 
z
" transform="scale(0.015625)"/>
      </defs>
      <use xlink:href="#DejaVuSans-Oblique-3b1" transform="translate(0 0.390625)"/>
      <use xlink:href="#DejaVuSans-3d" transform="translate(85.400391 0.390625)"/>
      <use xlink:href="#DejaVuSans-35" transform="translate(188.671875 0.390625)"/>
      <use xlink:href="#DejaVuSans-2c" transform="translate(252.294922 0.390625)"/>
      <use xlink:href="#DejaVuSans-Oblique-3b2" transform="translate(336.034832 0.390625)"/>
      <use xlink:href="#DejaVuSans-3d" transform="translate(419.335613 0.390625)"/>
      <use xlink:href="#DejaVuSans-31" transform="translate(522.607097 0.390625)"/>
     </g>
    </g>
    <g id="line2d_21">
     <path d="M 511.668312 96.3595 
L 527.668312 96.3595 
L 543.668312 96.3595 
" style="fill: none; stroke: #b2df8a; stroke-opacity: 0.8; stroke-width: 3; stroke-linecap: square"/>
    </g>
    <g id="text_19">
     <!-- $\alpha = 1,\ \beta = 3$ -->
     <g style="fill: #e4e4e9; opacity: 0.819608" transform="translate(556.468312 101.9595) scale(0.16 -0.16)">
      <defs>
       <path id="DejaVuSans-33" d="M 2597 2516 
Q 3050 2419 3304 2112 
Q 3559 1806 3559 1356 
Q 3559 666 3084 287 
Q 2609 -91 1734 -91 
Q 1441 -91 1130 -33 
Q 819 25 488 141 
L 488 750 
Q 750 597 1062 519 
Q 1375 441 1716 441 
Q 2309 441 2620 675 
Q 2931 909 2931 1356 
Q 2931 1769 2642 2001 
Q 2353 2234 1838 2234 
L 1294 2234 
L 1294 2753 
L 1863 2753 
Q 2328 2753 2575 2939 
Q 2822 3125 2822 3475 
Q 2822 3834 2567 4026 
Q 2313 4219 1838 4219 
Q 1578 4219 1281 4162 
Q 984 4106 628 3988 
L 628 4550 
Q 988 4650 1302 4700 
Q 1616 4750 1894 4750 
Q 2613 4750 3031 4423 
Q 3450 4097 3450 3541 
Q 3450 3153 3228 2886 
Q 3006 2619 2597 2516 
z
" transform="scale(0.015625)"/>
      </defs>
      <use xlink:href="#DejaVuSans-Oblique-3b1" transform="translate(0 0.390625)"/>
      <use xlink:href="#DejaVuSans-3d" transform="translate(85.400391 0.390625)"/>
      <use xlink:href="#DejaVuSans-31" transform="translate(188.671875 0.390625)"/>
      <use xlink:href="#DejaVuSans-2c" transform="translate(252.294922 0.390625)"/>
      <use xlink:href="#DejaVuSans-Oblique-3b2" transform="translate(336.034832 0.390625)"/>
      <use xlink:href="#DejaVuSans-3d" transform="translate(419.335613 0.390625)"/>
      <use xlink:href="#DejaVuSans-33" transform="translate(522.607097 0.390625)"/>
     </g>
    </g>
    <g id="line2d_22">
     <path d="M 511.668312 120.0395 
L 527.668312 120.0395 
L 543.668312 120.0395 
" style="fill: none; stroke: #33a02c; stroke-opacity: 0.8; stroke-width: 3; stroke-linecap: square"/>
    </g>
    <g id="text_20">
     <!-- $\alpha = 2,\ \beta = 2$ -->
     <g style="fill: #e4e4e9; opacity: 0.819608" transform="translate(556.468312 125.6395) scale(0.16 -0.16)">
      <use xlink:href="#DejaVuSans-Oblique-3b1" transform="translate(0 0.390625)"/>
      <use xlink:href="#DejaVuSans-3d" transform="translate(85.400391 0.390625)"/>
      <use xlink:href="#DejaVuSans-32" transform="translate(188.671875 0.390625)"/>
      <use xlink:href="#DejaVuSans-2c" transform="translate(252.294922 0.390625)"/>
      <use xlink:href="#DejaVuSans-Oblique-3b2" transform="translate(336.034832 0.390625)"/>
      <use xlink:href="#DejaVuSans-3d" transform="translate(419.335613 0.390625)"/>
      <use xlink:href="#DejaVuSans-32" transform="translate(522.607097 0.390625)"/>
     </g>
    </g>
    <g id="line2d_23">
     <path d="M 511.668312 143.7195 
L 527.668312 143.7195 
L 543.668312 143.7195 
" style="fill: none; stroke: #fb9a99; stroke-opacity: 0.8; stroke-width: 3; stroke-linecap: square"/>
    </g>
    <g id="text_21">
     <!-- $\alpha = 2,\ \beta = 5$ -->
     <g style="fill: #e4e4e9; opacity: 0.819608" transform="translate(556.468312 149.3195) scale(0.16 -0.16)">
      <use xlink:href="#DejaVuSans-Oblique-3b1" transform="translate(0 0.390625)"/>
      <use xlink:href="#DejaVuSans-3d" transform="translate(85.400391 0.390625)"/>
      <use xlink:href="#DejaVuSans-32" transform="translate(188.671875 0.390625)"/>
      <use xlink:href="#DejaVuSans-2c" transform="translate(252.294922 0.390625)"/>
      <use xlink:href="#DejaVuSans-Oblique-3b2" transform="translate(336.034832 0.390625)"/>
      <use xlink:href="#DejaVuSans-3d" transform="translate(419.335613 0.390625)"/>
      <use xlink:href="#DejaVuSans-35" transform="translate(522.607097 0.390625)"/>
     </g>
    </g>
   </g>
  </g>
 </g>
 <defs>
  <clipPath id="p31b0c54e86">
   <rect x="63.611" y="27.927" width="1064.754623" height="553.775"/>
  </clipPath>
 </defs>
</svg>
