<svg xmlns="http://www.w3.org/2000/svg" xml:space="preserve" viewBox="0 0 129.1 175.6">
  <g fill-rule="evenodd" clip-rule="evenodd">
    <path d="m24.1 32.4-.1.2h-.1l-.2.2-.3-.1-.4-.1-3-1.1-.2-.1-.2-.2v-.3l-.4-2.4-.1-.3-.2-.4-.2-.4-.3-.3-.3-.4-.3-.3-.2-.2-.2-.2-.2-.1H17l-.2-.2-.2-.1h-.5l-.2-.1-.2-.1h-.8l-.2.1h-.2l-.3.1H14l-.3.1v.2h-.3l-.4.2-.2.1-.2.2-.3.2-.1.2-.2.3-.1.2-.3.2-.1.2-.1.3-.1.2-.1.3-.2.3-.1.2-.1.3-.1.2-.1.3-.2.3v.2l-.2.3-.1.3-.2.1h-.2l-.5.1-.4.1-.5.2H8l-.4.2-.2.1-.3.1-.3.2-.3.1-.2.2-.2.1-.2.2h-.2l-.2.2-.2.2-.1.1H5l-.2.2h-.3l-.7.2-.6.2-.5.3-.6.4-.4.3-.4.4-.4.4-.3.4-.3.5-.1.4-.1.6-.1.5v.5l.1.5.2.5.2.5.3.5.4.6.4.4.6.5.2.2.4.2.3.2h.3l.4.2.3.1h.3l.3.1.3.1h1.8l.2.2h.6l.7.4.7.2.8.2.8.2.4.1.4.2.5.2.3.1.4.2.4.3.4.2.3.2.5.3.3.3.4.3.3.3.3.3.3.4.3.3.3.3.3.4.3.3.2.4.2.3.3.4h.1l.2-.1v-.7h.2l.3.3.2.1.2.2.4.2.3.1.3.1.3.2.4.1.4.2.3.1h.4l.3.2h.3l.4.2.2.1h.3l.2.1.1.2h.2l7.3 7.3.2.2.1.3.1.2.1.3.2.2v.7l.2.3v.2l.2.3.1.2.2.2.2.1h.4l.1-.2.2-.2.1-.2v-.6h.4l.2.2.3.2.2.2.3.3.3.3.3.4.4.4.3.4.4.4.3.5.4.5.4.5.4.5.4.4.4.5.4.5.5.4.3.4.4.4.5.3.4.3.5.4.5.3.4.3.6.3.6.2h.4l.5.1.5.2h.5l.5.2.3.1.6.5.6.4.7.4.6.3.7.4.8.3.7.3.8.3.7.3.8.3.8.2.8.2.7.2.8.1.8.3h.8l.7.2.7.1h.8l.7.1.3.1.1.2v.2l-.2.4-.1.1-.2.2v.2H61v.8l.2.2h.7l.4-.1v.1l-.2.4-.2.1-.2.2-.3.2-.3.3-.3.2-.3.2-.4.3-.4.3-.3.4-.4.2-.4.3-.3.3-.2.4-.3.2-.2.3-.2.4-.1.2v.8l.2.3v.4h-.2l-.2.4-.2.2-.3.1-.3.3-.3.3-.2.3-.3.3-.3.4-.2.3-.3.3-.2.4-.2.4-.2.3-.2.4-.1.4-.1.3V91l.2.3.2.3v1.1h-.6l-.4-.2-.2-.1-.3-.2-.4-.2-.3-.2-.4-.2-.3-.3-.4-.3-.3-.2-.4-.3-.3-.3-.4-.3-.3-.3-.3-.2-.3-.3-.3-.3-.2-.2-.3-.3-.1-.2-.1-.1-.2-.2h-.8l-.1.3v.2l-.1.6v.8l-.1.2H46l-.2-.2-.4-.2h-.3l-.5-.1-.3-.2h-1.2l-.4-.1h-1.3l-.4.1-.4.2h-.4l-.4.1-.4.1-.4.2h-.3l-.4.3-.3.1-.3.2-.3.2-.2.3-.2.3-.1.3-.2.2-.2.3-.2.2-.6.5-.7.5-.6.4-.4.5-.4.4-.4.5-.4.4-.4.5-.3.4-.3.5-.4.5-.2.5-.4.5-.3.5-.2.5-.4.5-.2.5-.3.6-.3.5-.3.5-.2.5-.2.6-.3.5-.1.4v.1l.1.2h.3l.2.1h.1v.4l-1.2 2.8-.1.2h-.2l-.3-.2-2.8-1.7-.2-.2h-.1l-.3-.2-.2-.2-.3-.3-.2-.2-.3-.2-.2-.3-.2-.2-.2-.3-.2-.2-.2-.2v-.2l-.1-.3v-.1l-.3-.1H21l-.3.2-.2.3-.2.4-.2.4v.3l-.1.3-.2.1h-1.6l-.6-.1-.6-.1h-1.3l-.6.2-.6.2-.5.3-.6.3-.4.1-.5.2-.4.2-.3.1-.4.2-.3.2-.3.2-.4.2-.2.2-.2.2-.3.3-.2.3-.3.2-.2.3-.2.4-.2.3-.1.4-.2.3-.2.4-.2.5v.1h-.1l-.2.3-.2.2-.2.1-.1.2-.2.1-.2.2-.2.1-.1.2-.2.2-.2.2-.2.2-.2.2-.1.2-.2.2-.1.2-.2.3-.1.3v.3l-.1.3-.2.3v2.2l.2.3v1.3l-.1.9v2.5l.2.7.1.7.2.7.4.6.4.6.3.5.4.5.5.4.6.5.6.3.6.3.8.2.8.2h.8l.8.1h1.2l.1.1.1.2v.7l.1.1h.4l.6.1h.5l.5.2.6.1.5.3.6.3.6.3.5.3.5.3.4.2.4.2.3.3.5.3.4.3.3.3.5.3.3.3.4.3.4.4.4.3.3.3.5.3.3.3.4.2.3.3.4.3.3.2.4.2.3.2.9.4.8.3 1 .3 1 .2 1 .2h2.9l1-.1 1-.2.8-.2 1-.4.7-.5.8-.5.7-.5.6-.7.6-.8.4-.8.3-1 .3-1v-3.6l-.1-.4v-.7l-.2-.3v-.8h1.2l.2-.1.2-.1v-.2l.1-.3v-.3l-.1-.3-.2-.2-.2-.2-.2-.3-.1-.2-.2-.2v-.7l-.2-.3v-.3l-.1-.2v-.8l-.2-.4v-.5l-.2-.5v-1.4l-.2-.4v-1l-.2-.5v-.5l-.1-.4-.2-.5v-.4l-.1-.3v-.2l.3-.2h.5l.1-.3v-.8l-.2-.4a4 4 0 0 1-.1-2.4l.1-.3v-.4l.2-.3.2-.4.2-.3.2-.4.2-.3.2-.3.2-.4.3-.3.2-.2.3-.3.2-.3.3-.2.2-.2h.2l.3-.2.1-.1.2.1.3.3.4.2h.4l.5-.1h1.5l.5.1.6.1.5.1.5.1.4.2.5.2.5.2.6.2.4.3.5.2.5.3.4.2.4.3.5.3.4.3.4.3.1.1.3.3.4.3.3.3.4.4 2.6 2.5.1.1.2.2.2.2.2.2.1.1.2.2.2.1.2.2.2.1h.2l.1.1.5.1h1l.5.3.4.2.5.2.5.2h.6l.5.2h.5l.4.2.5.1h.4v1.1l-.2.4-.2.3-.2.5-.2.3-.2.4-.3.4-.3.4-.2.4-.4.4-.3.4-.3.4-.2.4-.2.4-.3.3-.2.4-.1.3-.1.4v1l.1.2h.2l.2.2.2.1-.1.3-.3.8-.3.8-.2.7v.4l-.1.3v4.5l.1.4v.4l.2.4.2.4.1.3.2.3.2.3.2.1.3.2v.3l.2.4.1.4v.3l.2.5.2.4v.3l.2.5.2.3.1.4.2.4.2.4.1.4.1.3.2.4.1.5.2.4v.5l.1.6v.5l.2.5.2.5v.2h.9l.2.2.1.2.2.3.1.4.2.5.2.4.2.4.3.5.2.3.3.4 2.1 2.6.2.2v.3l-.2.2-.2.2-.1.2-.2.2-1.4 2.4-.2.3-.3.4-.3.3-.3.2-.4.3-.4.2-.5.2-.5.3-.4.2-.5.2-.5.3-.5.2-.4.2-.5.3-.5.2-.5.3-.4.4-.5.3-.5.4-.3.4-.1.2-.2.2-.2.3-.1.2-.1.2-.1.2-.1.2v.2l-.2.2v.2l-.1.2v1.2l.1.2.1.1.2.3v.2l-.2.4v1l-.1.2v1.3l.1.3v.3l.2.2.1.3.1.3.2.3.2.3.1.2.2.3.2.2.3.3h.3l.4.3.2.1.4.1h.3l.3.2h.4l.3.2.2.1.3.2.4.2.2.2.3.1.2.1.2.3h.2l.2.2.2.1h.2l.2.2h.2l.3.2h.8l.3.1h1.5l.3.3.2.2.4.1.2.2.3.1.3.2.3.1h.3l.3.2h.3l.3.1.3.1h.3l.4.2h.5l.3.1h3.2l1.2-.3 1.1-.3 1-.4 1-.4 1-.6.9-.6.9-.6.8-.7.9-.8.8-.9.7-.9.7-.9.7-.9.5-1 .6-.9.6-1 .4-1 .5-1 .2-.5.1-.5.2-.5.2-.5.1-.5.1-.5.2-.4v-.6l.2-.5v-1.5l.2-.8v-.4l.2-.1.2-.1.3-.1.2-.2.1-.3v-1.2l-.1-.6v-3.1l-.1-.4v-.5l-.2-.5-.1-.4-.1-.5-.2-.5-.1-.5-.2-.4-.2-.4-.3-.4-.2-.4-.3-.5-.4-.3-.3-.4-.4-.4-.2-.3-.3-.2-.3-.3-.4-.2-.3-.2-.4-.1-.3-.2h-.3l-.1-.2v-.6l-.1-.3-.1-.3-.3-.2-.3-.1h-.3l-.3-.2h-1.1l-.3.1h-.3l-2 1.1-.2.1h-.3l-.2.1h-.3v-.2l-.2-.1-.2-.1v-.3l-.2-.2-1.5-2.1v-.2l-.2-.2-.1-.1v-.5l.3-.2.1-.2v-.5l-.3-.2-.2-.3-.2-.3-.1-.2-.2-.3-.1-.2-.1-.2-.2-.2v-.2l-.1-.3-.2-.2v-.2l-.1-.2v-.3l-.1-.2-.1-.2v-.3l-.2-.2v-.3l-.1-.3v-.4l-.1-.2v-.2h.2l.3-.2.2-.2.1-.2v-2.8l.1-.4v-.3l.1-.3v-.4l.2-.3v-.4l.2-.4v-.3l.2-.1h.8l.2-.1v-1.2l.1-.4v-.4l.1-.4.2-.2v-.4l.2-.3.1-.3.2-.3.2-.3.1-.3.2-.3.2-.2.1-.3v-.3l.2-.3.1-.3v-.2l.1-.3.2-2.4.1-.3.3-.2 2.9-1.2.5-.2.5-.3.6-.3.5-.5.5-.4.5-.5.5-.5.5-.5.4-.6.5-.6.3-.6.4-.7.2-.6.4-.6.2-.7.2-.6v-.7l.2-.6v-1.4h.8l.4-.2.3-.2.4-.2.2-.1.1-.3v-.7l-.1-.2-.1-.3v-.3l-.1-.3v-.3l-.1-.3v-.6L98 98v-3.2l.2-.2v-.2l.2-.2.1-.3.2-.3v-.7l.2-.4v-1l-.1-.5v-.4l-.1-.5-.2-.6V89l-.2-.5-.1-.5-.2-.4-.1-.4-.2-.4-.1-.5-.1-.3-.2-.3-.5-.8-.5-.7-.5-.9-.1-.3.2-.2h.4l.1-.1.1-.3.1-.1v-1l-.1-.1-.1-.2v-.1l-.6-.5-.4-.6-.5-.5-.3-.6-.2-.4-.2-.3-.1-.4-.2-.3-.2-.4-.1-.5-.1-.4-.3-.4-.1-.4-.1-.4-.2-.4-.3-.4-.1-.4-.2-.4-.2-.3-.2-.4-.3-.3-.2-.4-.3-.3-.3-.2-.1-.2v-.4l.3-.5.2-.5 3.8-5 .2-.3v-.2h.2l.4-.2h.3l.2-.2.2-.2.2-.3.2-.3.2-.2.1-.3.2-.2.2-.2.2-.3.2-.2.3-.2.2-.3.2-.3.3-.2.2-.3.3-.3.2-.3.2-.2.1-.3.2-.2.2-.3.2-.3.2-.3.1-.3.2-.2.1-.2h.2l.3.2.2-.1h.2v-.4l.4-.5.4-.7.3-.5.5-.6.5-.5.4-.6.4-.6.5-.6.4-.6.4-.5.5-.6.4-.6.4-.6.4-.6.3-.6.3-.7.3-.5.2-.7.2-.7v-.7l.1-.5.2-.3V44l.2-.1.1-.1.2-.2.1-.2.1-.2 2.7-10v-.8l.1-.8.3-.4.2-.3 1-.5 1-.5 1-.6.3-.2.3-.3.3-.2.3-.3.3-.3.2-.3.3-.3.2-.2.3-.3.2-.3.2-.4.3-.2.3-.4.2-.3.2-.3.3-.3.2-.3.2-.3.3-.3.2-.2.8-.8.8-.7.8-.7V21l.1-.2.2-.2.2-.2.3-.3.3-.2.4-.3.4-.3.3-.3.4-.3.3-.2.3-.3.2-.2.4-.5.3-.5.3-.5.2-.6.2-.7.3-.6V12l-.1-.6-.2-.6-.2-.5-.4-.5-.3-.4-.5-.4-.5-.2-.7-.2-.7-.1h-.9V7l.1-.2V6l-.1-.2v-.3l-.1-.3V5l-.2-.2v-.3l-.2-.2-.2-.2-.2-.2-.2-.2-.2-.3-.2-.2-.3-.2-.3-.1-.4-.2h-.3l-.5-.1h-.4l-.4-.2h-.2l-.2-.2h-.1l-.1-.2h-.2v-.2h-.2v-.2h-.2v-.1h-1.1l-.2.2-.4.1h-.4v-.3l-.2-.3-.2-.3-.2-.3-.2-.3-.3-.1-.4-.1-.3-.1h-2.2l-.4.1-.4.1-.4.1-.3.2-.3.3-.3.2-.3.2-.1.2-.4.5-.3.5-.2.5-.2.4-.2.4-.2.5-.1.4-.1.4-.1.4-.2.5v.4l-.2.4v.4l-.1.5-.2.4-.1.5-.2.4-.1.4-.2.4-.2.5v.2l-.3.4-.1.3-.3.4-.2.3-.1.4-.2.3-.3.2-.2.1-1.3.5h-.5l-.3-.3-.3-.4-1.3-1.1-.3-.2-.3-.3-.5-.3-.3-.2-.4-.2-.4-.2-.5-.2-.4-.1-.5-.1-.4-.1h-.5l-.4-.2h-2.3l-.4.2H94l-.4.2-.5.2-.4.3-.5.3-.3.3-.3.3-.3.4-.2.5-.2.4-.1.5-.1.4v.5l-.1.5v1l.2.4.1.5.1.5.3.4.2.4.3.4.2.2.2.2.2.2.3.2.2.1.2.2.3.2.2.1h.3l.2.2.3.2h.2l.3.2.3.1h.3l.2.2.3.2v.3l.1.3.2.3.2.3.3.3.3.2.2.3.3.4.2.2.1.4.2.3.2.5.1.3.2.4.2.3.1.4.1.3.3.4.2.3.2.3.2.4.2.2.3.4.2.2.1.2v.6l-.2.4v.3l-.2.5-.1.3-.2.4-.1.4-.2.3v.4l-.2.3-.2.4-.2.3-.1.4-.2.4-.2.3-.2.4-.2.3-.2.4-.1.3-.3.4-.2.3-.2.4v.3h.3l.4.2v.5l-.3.7-.3.6-3.5 5.5-.2.2h-.1v-.4l.2-.3.2-.3.2-.4v-.3l.1-.4v-.3l.1-.4.1-.4v-2l-.1-.3v-.4l-.1-.4v-.7l-.1-.3-.1-.4v-.4h.1l.4.1.3.1h1.1l.2-.3.1-.1V36l-.2-.2-.2-.4-.2-.2-.1-.3-.2-.4-.2-.3-.1-.3-.1-.4-.1-.3-.1-.4-.1-.3-.1-.4-.2-.3v-.4l-.2-.2-.1-.4-.2-.3-.2-.3-.1-.3-.2-.3-.3-.3-.1-.2-.2-.2v-.3l.1-.1.2-.2.2-.3.2-.3v-.4l.1-.2v-.5l-.1-.2h-.3l-.5-.3-.5-.2-.4-.2-.4-.2-.5-.2-.3-.3-.4-.2-.3-.2-.4-.2-.4-.2-.4-.3-.4-.3-.5-.2-.3-.2v-.5l.1-.3.1-.2V22l-.3-.1h-1.1l-.4-.2h-.4l-.3-.2-.4-.1-.2-.1-.3-.2-.4-.1-.2-.2-.3-.1-.4-.1-.3-.1h-.4l-.4-.2h-.4l-.5-.1h-1.1l-.7.1h-.3l-.2-.2v-.2l-.1-.5-.1-.3-.3-.4-.2-.1h-.7l-.3.2-.5.3-.4.3-.4.2-.4.2-.5.3-.4.2-.5.1-.4.2-.5.2-.4.1h-.2l-.2-.2v-.4l-.2-1.1-.2-1.1-.5-1-.5-.8-.6-.9-.7-.7-.8-.5-.9-.5-.9-.5-.9-.3-1-.2h-3l-1 .3-.9.5-1 .5-.8.6-.7.8-.6 1-.3.4-.3.4-.2.5-.2.5v.5l-.3 1.1v.3h-.3l-2.3-.9-.9-.3-.8-.1h-.8l-1 .1-.8.2-.8.3-.7.4-.8.6-.7.5-.7.7-.5.7-.5.8-.4.7-.4.9-.3.9-.1.8v1.9l.2 1 .4.8.1.4.2.4.2.5.2.4.2.4.3.4 1.2 1 .2.3v.3l-1.8 3.5-.2.3-.2.4-.3.3-.4.3-.3.2-.4.3-.3.3-.4.3-.4.2-.4.3-.3.2-.3.3-.3.2-.3.2-.2.3-.1.3-.1.3v.5l.2.3.1.4.1.2v.1l-.2.2h-.2l-.2.3-1.7 2-.2.3H37l-.2-.2-3.7-4.2V42l-.1-.4v-.4l.1-.4v-2.4l-.2-.5v-1.3l.2-.3.4-.4.5-.3.3-.4.4-.5.3-.4v-.2l.2-.3.2-.3.1-.2.1-.3.2-.2.1-.3.2-.3.1-.3.1-.3.2-.3V31l.1-.3v-.3l.2-.2v-.5l-.2-1-.1-.7-.4-.7-.4-.6-.5-.4-.6-.3-.6-.3-.8-.2h-1.4l-.8.2-.8.2-.7.2-.7.3-.7.5-.7.4-.6.5-.6.5-.4.7-.4.6z"/>
    <path fill="#ed1c24" d="M91.2 26.8h.3l.2.1.3.2.2.2-.1.2-.3.4-.4.3-.2.1-.2.3.2.2.2.2.4.4.5.6.4.3 1.3 4.3.1.5v.2h-.2l-1.5-.6H92l-.2.1v.2l.3.3.4.4.3.5.2.5.2.6.1.6v2.5l-.1.7-.2.6-.1.7-.2.7-.2.7-.1.7-.2.6-.2.6-.1.7-.2.4V48H91l-.5-.3h-.2l-.1.2v.3l-.1.6-.1.7-.1.6-.3.6-.2.6-.2.6-.3.6-.3.5-.4.5-.3.6-.4.6-.4.5-.4.5-.4.5-.5.4-.4.5-.4.5-.5.4-.4.5-.4.5-2.6 2.3v.2l.1.1 2.8-1.4.4-.3.5-.4.3-.4.4-.4.3-.4.4-.5.3-.3.4-.4.3-.4.3-.4.3-.4.3-.4.2-.3.3-.5.2-.3.3-.4.2-.4.2-.5.3-.4.2-.4.1-.5.2-.5.2-.4.2-.6.1-.5v-.2l.3-.1h.5l.1-.2h.2l.1-.2h.1l.1-.2.2-.1v-.4l.2-.1v-.2l.1-.2v-.2l.1-.1.1-.2v-.2l.2-.2v-.1l.2-.2v-.1l.5-.5.3-.5.4-.5.4-.4.3-.6.5-.4.3-.5.4-.6.3-.5.3-.6.3-.5.4-.5.3-.6.3-.5.2-.6.3-.6.3-.5.2-.6.3-.5.2-.6v-.5h-.7l.2-.2.1-.2 1.8-4.7V30l.1-.2v-.2l.1-.1v-.2h.7l.6.3.6.2h.6v-.3l-.3-.2-.5-.3-.4-.1-.4-.2-.3-.3-.3-.3-.4-.4-.2-.2-.3-.3-.2-.3-.2-.3-.2-.4-.2-.3-.2-.4-.2-.3-.2-.4-.2-.4-.2-.4-.2-.4-.1-.4-.2-.3-.3-.4v-.3l-.3-.4-.2-.3v-.3h.7v-.3l-.3-.1-.2-.3-.3-.1-.3-.1-.3-.2-.3-.2-.3-.1-.4-.2-.3-.2-.3-.1-.4-.2-.3-.2-.4-.2-.3-.2-.3-.2-.3-.2-.3-.2-.2-.2-.2-.2-.2-.3-.2-.2-.3-.5-.3-.7-.1-.6-.2-.5v-1l.2-.5.1-.4.3-.5.3-.4.3-.3.4-.3.5-.2.4-.2.6-.2.5-.1.6-.1h1.2l.7.1.3.1h.2l.4.2h.2l.3.2.2.1.3.1.2.2h.2l.2.2.3.1.2.2.2.2.2.1.2.2.3.1.2.2.2.2.3.1.2.2h.2l.2.2.2.2.1.2.2.1.2.2.1.2.2.2.1.2.1.2.2.2.2.2.1.2.2.2.1.2.2.1.2.2.2.1.2.1.2.2.4.2h.2v-.2l-.2-.3-.5-.4-.5-.5-.3-.6-.2-.3v-.1l.1-.1h.3l.5-.2.5-.2.4-.3.4-.4.3-.5.4-.5.3-.6.3-.6.3-.7.2-.7.2-.7.2-.7.2-.7.2-.7.2-.8.2-.6.3-.6.2-.6.2-.5.2-.4.2-.3.2-.3.2-.2.2-.2.3-.3.2-.2.3-.2.3-.2.3-.1.2-.2h.3l.3-.2h1.3l.2.2.3.2.4.2.3.2.2.2.1.1v.2l-.1.1-.2.2-.3.4-.3.3-.4.3-.2.4-.2.3-.2.4-.2.4-.1.4-.2.4-.2.5v.3l-.3.4-.1.5V8l-.2.4-.2.4-.1.4-.1.5-.3.4-.1.3-.4.8-.5.6-.5.7-.3.5v.1l.5-.1.5-.3.4-.4.4-.4.3-.5.4-.5.3-.5.2-.7.3-.6.2-.6.2-.7.3-.7.3-.6.2-.6.3-.7.3-.5.4-.6.5-.4.4-.4.6-.4.5-.3h.5v.3l-.1.2-.2.4v.1h2.2l.6.2.4.2.5.2.4.2.3.3.3.3.2.3.2.4.1.3v1.3l-.1.5-.2.5-.4.4-.3.5-.4.5-.3.2-.2.2h-.2l-.1-.3-.1-.1h-.2l-.3.2-.3.2-.4.3-.3.2-.2.3-.3.4-.2.3-.3.3-.2.4-.2.3-.2.4-.3.3-.2.4-.2.3-.3.4-.2.3-.3.3-.3.3-.3.3-.3.2-.4.3-.3.2v.2h.2l.3-.1.4-.1.3-.2.3-.2.3-.2.2-.2.3-.3.3-.2.2-.3.2-.3.2-.2.2-.3.2-.2.2-.4.3-.2.2-.3.2-.3.3-.2.2-.3.2-.3.3-.2.2-.2h.1v.3l.1.3.2.1h.2l.1-.2.3-.5.4-.4.4-.4.3-.3.5-.2.5-.2h1.7l.4.1.5.3.3.2.3.4.3.3.2.5.2.5.1.4.1.6v1.2l-.2.5-.2.5-.2.4-.2.4-.3.4-.2.4-.4.3-.3.4-.4.3-.3.3-.4.3-.4.3-.4.3-.5.3-.4.2-.4.3-.5.3-.4.3-.4.3-.4.2-.1.2.2.2h.5l.1.1v.2l-.3.2-.4.3-.4.4-.4.4-.4.4-.3.5-.5.5-.4.5-.3.6-.5.5-.4.4-.4.6-.5.5-.4.4-.4.5-.4.4-.5.4-.5.3-.4.2-.5.3-.5.2-1.6.3-.1.2v.2l.1.4v2.8l-.1.4v.4l-.2.5-.2.4v.3l-.2.5-.1.4-.2.3-.1.4-.1.4-.2.8-.2.8v.8l-.1.8-.2.8-.1.4h-.4l-.2-.4-.1-.2h-.4l-.2.4v.6l-.1.4v.6l-.2.2v.7l-.1.2v.6l-.1.3-.1.3v.3l-.1.3-.2.3-.1.3-.2.2-.1.4-.2.4-.3.4-.2.3-.3.4-.2.3-.3.4-.3.4-.2.3-.3.4-.3.4-.3.3-.3.4-.3.3-.2.4-.2.4-.3.3-.2.5-.2.3-.2.4-.1.4-.2.3-.2.2-.2-.1-.2-.3-.1-.3h-.3l-.2.1-.1.2v.4l-.2.5-.2.4-.2.3-3.8 4.9-.1.3-.2.3h-.1l-.1-.2v-.9h-.4l-.1.3-.2.4-.2.3-.1.4-.2.3-.2.3-.2.3-.2.3-.2.3-.3.2-.2.3-.2.2-.1.2-.3.3-.2.2-.2.2-.2.2-.2.3-.1.2-.2.2-.1.3-1.4 2.5-.3.6v.3l-.1.3v.1l1.2 1.9.2.3.2.4.2.5.2.4.1.4.3.5.1.5.2.5.2.4.2.5.1.5.2.4.2.5.2.4.2.4.3.4.2.4.3.4.4.3.3.4.2.2.1.1v.1l-.2.1h-1.6v.2l.4.4.3.4.4.4.4.4.2.5.3.5.2.4.2.5.2.5.3.4.1.6.1.5.2.5.1.6.2.4.1.6v.5l.2.5.2.6v.4l.2.5v.3l-.1.2h-.1l-.3-.3-.4-.4-.4-.3-.3-.2h-.1v.5l.3.5.1.5.1.4.2.4v.3l.1.4v2.1l-.1.3v1l.1.4.4 2.4v.3h-1.6l-.2.2h-.1v.4l-.4 2.6-.2.6-.2.6-.3.6-.3.6-.2.5-.3.5-.4.5-.3.4-.3.5-.4.4-.4.4-.3.4-.4.4-.5.3-.4.4-.4.2-.5.3-.4.4-.5.2-.5.3-.5.3-.6.2-.5.2-.5.3-.2.1v.2l-.2.8-.2.8-.1.7-.2.7-.4.5-.2.6-.3.6-.3.6-.2.5-.2.7-.2.6-.1.3v.1h-1v.2l-.2.3-.1.4v.4l-.2.3-.1.4-.1.3-.1.4v.4l-.2.4v.7l-.2.3v2.5l.1.5v.5h-.5l-.3-.1-.3-.1h-.2v.4l.1.4v.3l.2.3v1l.2.4v.3l.2.3v.3l.1.4v.3l.2.3.2.3.1.3.1.3.2.3.2.2.2.3.3.2.2.2v.4l-.3.1-.3.2-.1.2.1.3.3.3v.4l.3.3.2.4.2.3.2.4.3.3.2.4.3.3.3.4.3.3.2.2.3.3.4.2.3.3.4.2.3.2.4.2.3.1.5.2h.5v-.2l-.3-.3-.2-.3v-.4l.2-.2.3-.2.2-.1.3-.2.3-.2.2-.1.3-.1.3-.1h.2l.4-.1h.5l.2.1-.1.2-.4.5-.1.2-.1.2.2.1h.4l.3.2.4.2.5.2.3.3.4.2.4.3.3.4.4.3.3.4.4.4.3.4.2.4.3.5.2.5.2.4.3.4.1.4.1.5.1.4v3.5l.2.5v.4l.2.3-.1.1h-.2l-.2-.3-.2-.2h-.2v2.2l-.2 1-.2.9-.1 1-.2.8-.2 1-.2.8-.3.8-.2.9-.4.8-.3.8-.5.9-.4.8-.5.7-.5.8-.6.8-.6.7-.6.7-.7.8-.2.2-.1.1-.3.2-.2.2-.2.2-.1.2-.3.2-.2.1-.2.2-.2.2-.2.1-.3.2-.2.2-.2.1-.3.2h-.2l-.2.2-.3.1-.2.1-.3.1-.5.2-.5.2-.5.1h-.5l-.6.2h-.9l-.5.2h-.5l-.5-.1h-1.5l-.5-.2h-.5l-.5-.2-.5-.1h-.5l-.5-.2-.6-.2h-.2l-.3-.2-.4-.2-.2-.2-.2-.1-.2-.2-.1-.2-.3-.3-.1-.2-.1-.3-.2-.2v-.2l-.2-.3v-1.6l1.2-2.4v-.2l-.1-.2h-.4l-1.3 2v.1l-.2.2-.1.2v2.2l.1.2v.2l.1.2v.8h-.7l-.6-.2-.5-.1-.5-.3-.5-.2-.4-.3-.4-.3-.3-.5-.3-.4-.2-.4-.2-.5-.2-.5-.1-.5v-2.1l.2-.5.2-.6.2-.6.2-.3h-.3l-.4.1-.2.2-.1.2-.2.2-.2.3v.2l-.2.3v.3l-.1.2-.1.4v2.3l.1.3.1.2v.3l.2.4-.1.2h-.2l-.3-.2-.3-.2-.2-.2-.2-.2-.3-.3-.1-.3-.2-.2-.2-.3-.1-.4-.2-.3v-.4l-.1-.2v-1.4l.1-.3.2-.3.2-.3.2-.2.3-.3.3-.3v-.2l-.2-.2h-.4l-.4.2v-.7l.3-.5.4-.5.3-.4.4-.4.3-.4.5-.3.4-.3.4-.3.5-.3.5-.2.5-.3.5-.2.4-.3.5-.3.5-.2.5-.3.4-.3.5-.3.4-.3.4-.3.2-.3.2-.2.1-.2.1-.3.2-.2.1-.2.2-.3.1-.2.2-.2v-.3l.2-.3.1-.3.1-.2.2-.2.1-.3.2-.2.1-.2.2-.2h.2l.3-.2.2-.2v-.4l-.3-.2h-.2l-.2-.3-.2-.2-.2-.2-.2-.3-.2-.3-.3-.3-.2-.4-.2-.3-.3-.4-.1-.3-.3-.4-.2-.4-.2-.4-.3-.3-.1-.3-.2-.3-.2-.2v-.3l-.2-.2-.2-.5-.1-.4v-.5l-.2-.5v-.5l-.2-.3-.1-.1H70l-.2.3-.2.3-.2.1-.1-.1v-1.4l-.2-.6-.1-.5-.2-.5-.2-.5-.2-.4-.2-.5-.3-.5-.2-.5-.2-.5-.3-.5-.1-.6-.2-.5-.1-.4-.1-.5v-1.6l.2-.5v-.3l-.1-.2-.3.2-.3.5-.2.3v.6h-.4l-.1-.2v-2.3l-.2-.5v-1l.1-.4v-.7l.2-.4.1-.4v-.4l.2-.4.2-.4.2-.5.2-.4.3-.6.3-.6.3-.6.2-.3v-.2h-1l-.5.2h-.2l-.1-.1v-.1l.1-.3.3-.4.2-.4.3-.4.3-.3.2-.4.2-.3.3-.4.2-.3.2-.4.2-.3.2-.4.2-.4.2-.3.2-.5.1-.4.1-.3.2-.5.1-.4.2-.4.1-.4v-.5h-.5l-.2.2h-1.3l-.4-.1-.4-.2-.4-.1-.4-.2-.4-.1-.4-.2-.4-.2-.5-.2-.3-.2-.4-.3h-.3l-.3-.3-.3-.2-.2-.2-.2-.2-.3-.1h-.1v.5l.2.4v.1H62l-.4-.4-.3-.4-1.4-1.3-.2-.2-.1-.1-.2-.2v-.2l-.2-.2-.2-.3-.1-.2-.2-.2-.2-.3-.1-.3-.2-.3-.2-.3-.1-.3-.1-.3-.3-.4v-.2l-.2-.4-.1-.3-.1-.2-.1-.4-.2-.3v-.5l-.2-.3v-.2l-.2-.2h-.2l-.4.1h-.5l-.1-.4-.3-.6-.2-.6-.2-.7-.1-.7v-.7l-.1-.7v-2.9l.2-.7v-.7l.2-.7.1-.8.2-.7.2-.7.1-.6.2-.7.2-.7.2-.6v-.5l-.1-.2h-.2l-.3.4-.3.3h-.2v-.8l.2-.3.2-.3.1-.3.2-.3.2-.3.2-.4.2-.2.2-.3.2-.4.1-.2.3-.3.2-.3.3-.2.2-.3.2-.3.3-.3.2-.2.2-.2.3-.3.2-.2v-.2l-.2-.2-.3-.2-.2-.1V83l.2-.2 4.7-3.5.2-.3.3-.4.2-.4.2-.4.1-.4V77l.2-.1-.1-.1H64l-.6.3-.5.2h-.4v-.2l.2-.3.1-.2.2-.2v-.2l.2-.2.2-.3.1-.2.2-.2.1-.3.1-.2.2-.2.1-.3v-.2l.2-.2.1-.3v-.2l.1-.3v-1.3h-.4l-.2.3-1 2.2v.3l-.1.2-.2.1h-.1l-.2.1h-.5l-3.5-.6-.6-.1-.7-.2-.6-.2-.7-.1-.6-.2-.7-.2-.7-.3-.7-.2-.7-.3-.6-.3-.6-.3-.7-.3-.7-.4-.6-.3-.6-.3-.6-.4-.6-.4-.5-.3-.6-.4-.5-.4-1.7-1.4h-.3v.3l.8 1.6v.3l-.3-.1-2.1-1.3-.4-.2-.3-.3-.3-.2-.4-.4-.3-.3-.4-.5-.4-.4-.3-.4-.4-.4-.4-.5-.4-.5-.3-.4-.4-.5-.3-.4-.4-.5-.3-.5-.4-.4-.3-.3-.4-.4-.3-.3-.1-.1h-.1l-.1-.2-.1-.2-.2-.2-.2-.1-.1-.1-.2-.2-.1-.2-.2-.1-.2-.2-.1-.1h-.2l-.2-.2-.2-.1h-1.1l-.2-.1-.5-.7-.5-.5-5-5-.2-.3v-.2h-.1l.1-.2h.2l.3-.2.4-.2v-.1l-.1-.2h-.3l-.4.1h-1.3l-.5-.1-.4-.2-.5-.1-.5-.1-.5-.2-.4-.2-.4-.2-.4-.2-.4-.2-.5-.3-.3-.3-.4-.3-.3-.2-.4-.3-.2-.4-.3-.3-.4-.3h-.5l-.5-.4-.4-.3-.6-.4-.6-.5-.5-.4-.5-.4-.3-.2-.6-.3-.8-.3-1-.3-1-.4-.7-.3-.3-.1v-.2l-.2-.1-.3-.1H5.9l-.2-.2h-.5l-.3-.2h-.2l-.3-.1h-.2l-.3-.2-.2-.2h-.3l-.2-.2-.3-.1-.1-.1-.2-.2-.2-.1-.2-.2-.2-.2-.1-.2-.2-.2-.2-.3v-.2l-.1-.3v-.3l-.2-.2v-1.2l.1-.2v-.6l.2-.3V36l.2-.3.2-.2.2-.2.2-.1.2-.2h.2l.2-.2h.2l.3-.2h.3l.2-.1.3-.1h.3l.3-.1H5l.3-.1h1.9l2.6.5.2.2.2.3 1.1 3.9v.2l.2.2v.2l.2.2.1.3.1.2.2.2.1.2.2.1.2.2.1.2.2.2.2.1.2.2.2.1.2.1.1.2.2.1.3.2.1.1.4.1.2-.2-.2-.2-.5-.5-.5-.6-.5-.6-.3-.8-.4-.8-.4-.8-.3-1-.2-.8-.2-1-.1-.9v-.9l-.2-.9.1-.9.2-.8.2-.9.2-.8.4-.7.4-.6.6-.6.6-.4.6-.3.5-.2h1.3l.3.2.4.3.3.3.3.4.2.4.3.5.2.5.2.4v.5l.2.5V33l-.2.4v.2h.2v1.5h.2l.1-.2.1-.1.2-.3.1-.1v-.3l.2-.1.1-.2.1-.3v-.2h-.4l-.2.2-.1.2h-.2v-.3l.2-.3.1-.3.2-.2.1-.1.2-.1h.3l3.5 1.8.2.2h.5v-.2l.2-.2v-.2l1.4-3 .2-.4.2-.4.2-.3.2-.3.3-.3.2-.3.4-.3.3-.2.3-.3.4-.2.4-.2.4-.2.4-.1.3-.1.4-.1.4-.1h1.8l.2.1.3.1h.2l.2.1.3.1.2.1.2.2h.3v.3l.3.1.1.2.2.2.1.2.2.1.1.2v.5l.1.2v.7l-.4.2-.2.1v1.7l-.2.2-.1.3-.2.2-.2.3-.1.2-.3.2-.2.2-.2.2-.2.3-.3.2-.2.2-.2.2-.1.3-.2.2v.2l-.2.3v.2l-.1.3v1.5l.1.3.1.2v.5l.1.3.1.2V41l-.8 2.8v.5l.2-.1.3-.3.2-.2h.3l.2.2 3.5 3.8.2.2.1.4v.6l-.1.5v.5l.2.4.1.1.3.2h.8l.3-.2h.5V53l.1.3v.4l.1.3.2.4v.3l.2.4.1.3.2.4.1.3.2.2.2.3.2.3.3.3.2.2.3.1.2.2h.3l.4-.1h.2l.3-.1h.2l.1.2.1.4.3.5.2.5.3.5.4.5.4.4.4.5.5.5.5.4.5.4.5.4.6.2.6.3.5.2.6.2.6.1h1l.5-.3.5-.2.3-.1h.1l.4.2.6.5.7.3.6.4.7.3.7.4.7.3.8.3.7.2.8.2.7.2.8.3h.7l.8.2h.8l.7.1h3.1l.8-.1 1.7-.2v-.1l-5.9-.4h-.4l-.3-.1H62l-.4-.1-.5-.1-.5-.2-.5-.1-.4-.1-.5-.3h-.5l-.5-.3-.5-.1-.5-.3-.4-.2-.5-.2-.4-.2-.4-.1-.3-.2-.3-.2-.3-.2-3.5-2.7-.4-.3-.2-.1h-.2v.2l.2 1.6v.5l-.1.1H49l-.5-.1-.4-.2-.4-.3-.5-.3-.5-.4-.3-.3-.4-.4-.4-.4-.3-.5-.4-.5-.3-.4-.3-.5-.3-.5-.3-.5-.2-.4-.2-.4-.2-.4-.2-.4v-.2l-.2-.2H42l-.1.2-.2.2-.4.2-.2.1-.2-.1-.2-.2v-.4l-.2-.3-.2-.3V54l-.2-.3-.1-.4V53l-.1-.3v-.4l-.1-.3v-3.1l.1-.3v-.2l-.1.1-.4.2-.4.2h-.3l-.5.1h-.3v-.6l.1-.2.2-.2.1-.3.2-.2v-.3l.2-.2.2-.3.3-.3.1-.3.2-.3.2-.2.2-.3.2-.2.2-.3.2-.2.1-.2.2-.2h.2l1.5-1.2.3-.3v-.2h-2.2l-.1-.2v-.2l.3-.2h.3l.2-.1.3-.2.3-.2.4-.1.4-.3.3-.2.4-.2.2-.2.3-.2.2-.3h.1l2.5-4.8.2-.3.1-.2h.2l.5.2h.3l.4.2.3.1h.4l.3.1.4.1h2.8l.3-.1.4-.1h.3l.4-.2.3-.1.4-.2h.3l.2.2.1.3v.4l.1.2.1.3v.2l.2.3v.2l.2.3.1.2.1.2.1.3.2.2.1.2.1.2.2.3.1.2.2.2.1.2.2.2.2.1.3.4.4.3.4.4.4.3.4.2.4.4.5.2.4.3.5.2.5.2.5.1.4.1.5.2h2.1l.5-.2.5-.1.5-.2.7-.3.5-.4.6-.4.5-.4.3-.6.4-.5.3-.5.4-.6.2-.6.1-.7.2-.6V34l-.1-.7-.2-.6-.2-.6-.2-.7-.4-.5-.2-.4-.2-.5-.2-.4-.3-.4-.3-.4-.3-.2-.2-.2-.1-.2v-.1l.1-.2.3-.3.3-.2.3-.3.2-.3.3-.2.2-.3.2-.3.3-.2.2-.2.3-.4v-.3l.3-.3.2-.3.2-.6.2-.7.2-.6.2-.2h.2l.5-.4.5-.2h.8l.4-.3.9-.3.8-.4.7-.5h.2l.1-.1v1.3l-.1.2v.1h.9l.3-.1h.4l.3-.2h.3l.4-.1h1.7l.4.2.6.2.5.2.5.2.5.2.5.1.5.2h.2l.1.2v.1l-.2.2-.2.4v.1h.6l.4.2.5.1z"/>
    <path d="M71.5 167v-.2l.2-.3.3-.4.3-.3.4-.3.3-.3.4-.4.1-.2-.1-.2-.3-.1-.4.3-.1.1-.2.1-.2.1-.2.1-.3.2-.2.2-.1.1-.2.3-.2.1v.2l-.1.2-.1.3.1.3.1.1z"/>
    <path fill="#ed1c24" d="m29 108.7-.2-.2v-.3l.4-2.3.1-.5.2-.5.2-.5.2-.5.3-.4.3-.5.2-.4v-.3l-.2-.2h-.2v-.5l.2-.5.3-.5.2-.6.3-.5.3-.7.4-.5.4-.7.4-.5.4-.6.4-.5.5-.6.5-.5.5-.4.6-.5.4-.4.6-.4.6-.3.5-.2.6-.2h.6l.2-.1.2-.2V92l-.2-.2H39l-.3-.1-.1-.2.1-.3.5-.2.3-.1.4-.1.3-.2h.4l.3-.2h.4l.5-.1.4-.1H45l.3.2h.4l.3.2.4.2.3.2.3.1.2.2.1-.1.1-.2v-1.3l.3.1.2.3.4.2.3.3.3.2.3.3.3.2.3.2.3.3.3.2.3.2.3.2.4.3.3.2.3.2.4.1.3.2.4.2.2.2.1.3v1.4l-.1.5v.5l-.2.4v.8l-.1.5v2.7l.1.6v.6l.2.5.1.6.2.5.2.5.2.5.2.4.3.3.3.3.4.2.4.2.3.2.1.3v.4l.2.4v.2h-.3l-.3-.3-.4-.2-.4-.3-.4-.2-.4-.3h-.4l-.4-.3-.4-.2-.4-.2-.4-.2-.4-.1-.4-.1-.4-.1-.5-.2h-.9l-.4-.1h-1.3l-.5.1h-.5v-.1l.2-.3.1-.5.3-.5.2-.4v-.1h-.2l-.3.1-.4.2-.4.2-.4.1-.4.2H45l-.4.2-.4.2-.3.3-.2.2-.2.2-.3.2-.2.3-.2.3-.2.3-.3.3-.2.4-.2.4-.2.4-.2.4-.2.4-.2.4-.1.4-.1.3-.1.4v.3c-.2.7-.2 1.5.1 2.3v.3h-.5l-.3-.1h-.3v1.5l.1.4.2.5.1.5.2.4v.5l.1.5v.8l.1.3v.4l.1.4v1.5l.2.4v.8l.2.4v.3l.1.4v.4l.2.3.2.4.2.4.1.3.2.4v.2h-.2l-.3-.3h-.4l-.1.1-.1.3v3.5l.1.4v2.1l-.1.3v.4l-.1.3-.3.9-.4.7-.3.6-.6.6-.6.5-.5.5-.6.3-.7.3-.8.3-.7.1-.8.2h-2.4l-.8-.2-.8-.1-.8-.2-.7-.3-.7-.2-.7-.4-.4-.2-.4-.2-.4-.2-.3-.2-.4-.3-.3-.2-.4-.3-.4-.3-.3-.2-.4-.3-.3-.3-.4-.2-.3-.3-.4-.2-.3-.3-.4-.3-.4-.2-.3-.3-.4-.2-.4-.2-.4-.3-.3-.2-.5-.1-.4-.2-.4-.2-.4-.1-.4-.2-.4-.1-.4-.1-.4-.1-.5-.2h-.4l-.4-.3-.2-.1v-.4l.3-.3.2-.3-.1-.2h-1l-.5.1h-2.4l-.4-.1-.4-.1-.4-.2h-.4l-.3-.2-.4-.2-.3-.3-.3-.3-.4-.3-.3-.3-.4-.5-.3-.4-.4-.5-.1-.2-.1-.2-.2-.2v-.2l-.1-.2-.2-.2v-.2l-.1-.3v-.2l-.1-.2-.1-.2v-.7l-.2-.2v-1l.1-.2v-.4l.2-.2H6l.1.1v.7l.2.2v.2l.2.2v.2l.2.2.1.2v.2l.3.2.1.2.2.1.1.2.1.2.2.1.2.2h.1l.2.2.3.2h.2l.1.1 1.6.6h.1v-.1h.1l-.1-.2-2.3-1.8v-.1l-.2-.1-.2-.3-.1-.1-.2-.2-.1-.2v-.2l-.2-.2v-.3l-.2-.2v-.2l-.2-.3v-.2l-.1-.2v-.3l-.1-.2v-.2l-.1-.2v-.2l-.2-.3H6v.2l-.1.2-.2.1h-.2v-1.7l.1-.3v-.4l.2-.3v-.2l.2-.2.1-.3v-.2l.2-.2.2-.2.2-.2.1-.2.1-.2.3-.2.2-.2.2-.3h.2v1.1l.1.4.1.3.1.3.1.3.1.4.2.3.2.3.2.3.2.3.2.2.3.3.3.2.2.1.4.2.2.2h.4l.3.1h.8v-.3l-.2-.2-.2-.2-.1-.1-.5-.3-.5-.4-.4-.3-.4-.4-.3-.4-.2-.4-.3-.5-.2-.5-.1-.4v-2l.1-.5.2-.5.2-.5.3-.4.3-.5.3-.5.4-.4.4-.3.5-.3.5-.3.4-.3.5-.2.5-.3.5-.2.5-.1.6-.2h.5l.6-.2.6-.1h3.2l.5.1.5.2h.3v-.8l.2-.1h.2l.3.3.4.4.5.5.6.4.5.3.5.4.6.4.6.3.6.3.5.4.6.3.6.4.5.3.6.4.6.3.4.4.6.4.5.5.4.4.5.5.4.5 1.4 1.8.2.1.2-.1.2-.2v-.2c-1.8-2.7-2.9-3.6-5.4-5.8z"/>
    <path d="m34.9 125.5-.1-.3-.1-.2v-1.2l-.1-.2-.1-.2v-.2l-.2-.2-.1-.2-.1-.2-.1-.2-.2-.2-.1-.1-.2-.2-.1-.1-.1-.1-.2-.1-2.3-1.4-.2-.1-.1.2v.3l2.3 1.7.3.3.3.3.2.4.2.4.1.3v.1l-.2.2-.2.2v.2l.1.3 2.2 3.2.1.1h.2l.2-.2v-.2l-1.1-2.1zm-9.6-9.5h-.2l-.1.1v.2l.1.2 4 2.1.4.3.3.4.2.1.2.1.3-.1v-.2l-.2-.2-.2-.3-.6-.4-.5-.4-.5-.5-.6-.3zm42.1-71.8-.3.3-.3.2-.3.3-.2.3-.3.2-.3.3-.3.3-.3.2-.3.2-.3.1-.2.1h-1.8l-.2.1-.2.1-.3.4-.4.4-.3.3-.3.4-.5.2-.3.1-.2.1-.3.1h-.2l-.3.1-.2.1h-1.7l-.2-.1h-1l-.2.1h-.2l-.2.1-.2.1H55l-.3.2h-.2l-.1.2-.2.1-.2.1-.2.1h-.2l-.3.1-.2.1h-.5l-.3-.1-.2-.1-.2-.2v-.5l-.1-.2h-.1l-.3.1-.2.1h-.5l-.2.1-.2.1h-.5l-.2.1h-.9l-.1-.1h-.5l-.2-.1-.2-.1h-.1l-.2-.2-.4-.2-.3-.3v-.2l.3-.5.2-.4v-.2H47l-.3.1-.3.1-.2.1-.2.2v.2l-.2.2v.4l-.1.3v.2l-.1.2.1.2h.6l.3.1.4.2.3.3.4.1.3.1h.4l.3.1.4-.1h.3l.4-.1h.3l.4-.1.2-.1.3.1.2.1.3.3.3.2h1.3l.4.2.3.1.2.2.3.4.4.3.4.4.4.3.3.4.4.3.4.3.4.3.4.4.4.2.5.2.4.3.5.3.4.2.4.2.5.3.5.2.5.2.4.2.5.2.8.3.7.2.8.3.8.2.7.2.7.2.7.1.6.1.7.1h1.4l.6-.1.7-.1.6-.2.7-.3.7-.2.7-.3.7-.5.7-.4.7-.5.3-.2.2-.2.2-.2.3-.2.2-.1.2-.3.1-.2.2-.2.2-.2.3-.2.1-.3.2-.2.1-.2.2-.3.1-.3.2-.2.3-.8.4-.9.2-.9.3-1 .2-.8.2-.9v-.9l.2-.9.1-1v-.9l.1-.9v-7.4l.1-1v-.4l.1-.2.3-.2h.3l.3-.2.1-.1-.1-.2-.3-.1-.2-.1h-.9l-.3.1-.2.1-.3.2-.2.3-.1.2.1.2.2.1.2.1.1.1-.2.4-.1.3-.2.2-.2.3-.2.2-.3.2-.2.3-.2.2-.3.2-.2.2-.3.2-.2.2-.3.2-.2.2-.2.2-.2.2.1.2.1.2.2.2v.2l-.2.2-.3.2-.2.3-.2.2-.3.1-.2.2-.3.2-.3.2-.3.1-.3.1-.3.1-.3.2h-.3l-.3.2v.4l.2.3v.1l-.2.2-.3.3-.3.3-.3.2-.3.2-.4.1-.2.2-.4.1h-.3l-.3.1h-.3l-.3.1h-.9l-.3.1-.3.1h-.3l-.3.2-.3.1-.3.1z"/>
    <path fill="#f49129" d="m60 26.6 1.2-.3 1.2-.1 1.1.2 1.1.4 1 .5 1 .7.9.8.8.9.6 1.1.6 1.1.4 1.1.3 1.2.1 1.2v1.1l-.2 1.1-.5 1.1-.6.9-.8 1-1.1.7-1 .5-1 .2-.9.1-1-.1-1-.2-.9-.3-.9-.5-.8-.6-.8-.7-.7-.8-.6-.9-.5-1-.5-.9-.3-1-.3-1.1v-2l.3-1.1.3-.9.6-1 .2-.3.3-.4.2-.3.3-.4.4-.2.3-.3z"/>
    <path d="m21.5 37.9-.2-.3-.1-.3-.2-.3-.1-.3-.1-.4-.1-.2-.1-.4-.1-.3-.1-.3v-.4l-.1-.3V34l-.2-.2h-.2v.3l.1.3V36l.1.2v.5l.1.1.1.2.1.3.2.1.1.2.2.2.4.3h.2z"/>
    <path fill="#fff" d="m50 19.8.6-.1.6.1h.6l.6.1.6.2.6.2.6.2.5.4.5.3.6.4.5.4.4.4.4.5.4.5.3.5.2.6.2.5.1.5v.7l-.1.3-.3.3-.3.3-.3.4-.3.3-.3.3-.2.2-.2.3-.1.3-.2.3-.1.3-.1.2-.1.3-.1.3-.1.4v.2l-.1.3-.1.4-.1.4v.3l-.1.5-.1.4-.1.3-.3.2-1.1.5-1.1.4-1.2.1h-1l-1.1-.2-1-.4-.8-.5-.8-.6-.8-.7-.6-.8-.6-.9-.4-1-.3-1-.1-1v-1.1l.1-1 .3-1.1.5-1 .7-1 1-.9.2-.3.2-.1.3-.2.3-.1.4-.3.2-.1.3-.1.3-.1.3-.1.4-.1.3-.2z"/>
    <path fill="#ed1c24" d="m6.8 33.1-.3.1h-.1l.5-.4.2-.2.2-.2.3-.1h.2l.3-.1.2-.1h1.4l.3.2v.1l-.1.6v.3l-.2.2h-.3z"/>
    <path d="m52.2 24.2-.5.1-.5.2-.3.2-.4.3-.2.4-.3.4-.1.4-.1.5v.9l.2.5.1.5.2.3.3.4.4.3.4.3.5.2.5.1h1.1l.5-.2.4-.2.3-.2.3-.3.2-.4.3-.3v-.5l.2-.4v-.4l-.1-.4-.1-.5-.1-.4-.2-.4-.3-.3-.3-.3-.3-.4-.5-.1-.5-.2-.5-.1z"/>
    <path fill="#fff" d="m58 16.1.2-.2.2-.2.1-.2.3-.1.2-.3.2-.1.2-.2.2-.2.2-.1.2-.1.3-.2h.2l.3-.2.2-.1.6-.2.6-.1.5-.1H65l.6.2.5.1.5.2.5.2.5.3.5.3.5.3.3.5.5.4.3.4.4.5.3.5.3.5.1.5.2.5.1.5.1.5v1.7l-.1.6-.1.5-.2.5-.1.6-.2.5-.3.5-.3.5-.3.4-.3.4-.4.3-.4.4-.5.2-.5.2-.3.1-.3-.1-.3-.2-.3-.2-.4-.2-.3-.2-.4-.2-.3-.1-.4-.1-.3-.1-.4-.1-.3-.1h-2.6l-.4.1-.4.1-.4.1h-.5l-.1-.1-.1-.4v-.2l-.1-.3-.1-.3-.1-.2-.2-.3v-.3l-.2-.2-.1-.2-.2-.2-.1-.2-.1-.2-.2-.3-.2-.2-.1-.2-.2-.2-.2-.3-.1-.2-.2-.3-.1-.2-.1-.2v-1.3l.1-.3.1-.3v-.2l.2-.3.1-.3.1-.3.1-.2.1-.3.2-.2.1-.2.1-.2.2-.2.1-.2z"/>
    <path d="M62.9 18.9h-.6l-.4.1-.4.2-.4.3-.2.3-.3.5-.2.4-.1.4-.1.4v1l.1.4.2.5.2.4.4.3.3.3.5.2.5.2.6.1h.5l.4-.1.5-.2.4-.2.3-.3.3-.3.2-.4.2-.3.2-.4v-.5l.1-.5-.1-.4-.1-.4-.1-.4-.3-.4-.3-.3-.3-.3-.5-.3-.4-.2-.5-.1z"/>
  </g>
</svg>
