<?xml version="1.0" encoding="utf-8" standalone="no"?>
<!DOCTYPE svg PUBLIC "-//W3C//DTD SVG 1.1//EN"
  "http://www.w3.org/Graphics/SVG/1.1/DTD/svg11.dtd">
<svg xmlns:xlink="http://www.w3.org/1999/xlink" width="1145.481873pt" height="639.95775pt" viewBox="0 0 1145.481873 639.95775" xmlns="http://www.w3.org/2000/svg" version="1.1">
 <metadata>
  <rdf:RDF xmlns:dc="http://purl.org/dc/elements/1.1/" xmlns:cc="http://creativecommons.org/ns#" xmlns:rdf="http://www.w3.org/1999/02/22-rdf-syntax-ns#">
   <cc:Work>
    <dc:type rdf:resource="http://purl.org/dc/dcmitype/StillImage"/>
    <dc:date>2024-01-02T19:54:31.001750</dc:date>
    <dc:format>image/svg+xml</dc:format>
    <dc:creator>
     <cc:Agent>
      <dc:title>Matplotlib v3.8.2, https://matplotlib.org/</dc:title>
     </cc:Agent>
    </dc:creator>
   </cc:Work>
  </rdf:RDF>
 </metadata>
 <defs>
  <style type="text/css">*{stroke-linejoin: round; stroke-linecap: butt}</style>
 </defs>
 <g id="figure_1">
  <g id="patch_1">
   <path d="M 0 639.95775 
L 1145.481873 639.95775 
L 1145.481873 0 
L 0 0 
L 0 639.95775 
z
" style="fill: none"/>
  </g>
  <g id="axes_1">
   <g id="patch_2">
    <path d="M 72.5385 581.702 
L 1123.474373 581.702 
L 1123.474373 27.927 
L 72.5385 27.927 
L 72.5385 581.702 
z
" style="fill: none"/>
   </g>
   <g id="matplotlib.axis_1">
    <g id="xtick_1">
     <g id="line2d_1">
      <defs>
       <path id="m95e50c399a" d="M 0 0 
L 0 3.5 
" style="stroke: #e4e4e9; stroke-opacity: 0.819608; stroke-width: 1.6"/>
      </defs>
      <g>
       <use xlink:href="#m95e50c399a" x="72.5385" y="581.702" style="fill: #e4e4e9; fill-opacity: 0.819608; stroke: #e4e4e9; stroke-opacity: 0.819608; stroke-width: 1.6"/>
      </g>
     </g>
     <g id="text_1">
      <!-- 0.00 -->
      <g style="fill: #e4e4e9; opacity: 0.819608" transform="translate(57.22725 608.402) scale(0.16 -0.16)">
       <defs>
        <path id="FiraSans-Regular-30" d="M 1786 4346 
C 826 4346 352 3558 352 2138 
C 352 717 826 -77 1786 -77 
C 2746 -77 3219 717 3219 2138 
C 3219 3552 2746 4346 1786 4346 
z
M 1786 3878 
C 2317 3878 2605 3392 2605 2138 
C 2605 877 2317 390 1786 390 
C 1248 390 966 877 966 2138 
C 966 3392 1248 3878 1786 3878 
z
" transform="scale(0.015625)"/>
        <path id="FiraSans-Regular-2e" d="M 762 813 
C 512 813 320 614 320 371 
C 320 122 512 -77 762 -77 
C 1018 -77 1210 122 1210 371 
C 1210 614 1018 813 762 813 
z
" transform="scale(0.015625)"/>
       </defs>
       <use xlink:href="#FiraSans-Regular-30"/>
       <use xlink:href="#FiraSans-Regular-2e" x="55.799988"/>
       <use xlink:href="#FiraSans-Regular-30" x="79.799973"/>
       <use xlink:href="#FiraSans-Regular-30" x="135.59996"/>
      </g>
     </g>
    </g>
    <g id="xtick_2">
     <g id="line2d_2">
      <g>
       <use xlink:href="#m95e50c399a" x="203.905484" y="581.702" style="fill: #e4e4e9; fill-opacity: 0.819608; stroke: #e4e4e9; stroke-opacity: 0.819608; stroke-width: 1.6"/>
      </g>
     </g>
     <g id="text_2">
      <!-- 0.25 -->
      <g style="fill: #e4e4e9; opacity: 0.819608" transform="translate(189.554234 608.402) scale(0.16 -0.16)">
       <defs>
        <path id="FiraSans-Regular-32" d="M 1459 4346 
C 922 4346 506 4128 160 3699 
L 544 3392 
C 832 3718 1069 3859 1427 3859 
C 1843 3859 2131 3597 2131 3149 
C 2131 2451 1760 2042 250 467 
L 250 0 
L 2778 0 
L 2848 493 
L 922 493 
C 2234 1805 2746 2374 2746 3174 
C 2746 3840 2246 4346 1459 4346 
z
" transform="scale(0.015625)"/>
        <path id="FiraSans-Regular-35" d="M 2771 4282 
L 454 4282 
L 454 2125 
L 915 2125 
C 1120 2221 1293 2272 1523 2272 
C 1965 2272 2304 2042 2304 1382 
C 2304 755 1965 403 1427 403 
C 1056 403 781 538 512 806 
L 166 467 
C 499 128 890 -77 1434 -77 
C 2323 -77 2918 518 2918 1370 
C 2918 2221 2426 2726 1702 2726 
C 1472 2726 1242 2675 1018 2560 
L 1018 3821 
L 2688 3821 
L 2771 4282 
z
" transform="scale(0.015625)"/>
       </defs>
       <use xlink:href="#FiraSans-Regular-30"/>
       <use xlink:href="#FiraSans-Regular-2e" x="55.799988"/>
       <use xlink:href="#FiraSans-Regular-32" x="79.799973"/>
       <use xlink:href="#FiraSans-Regular-35" x="129.299957"/>
      </g>
     </g>
    </g>
    <g id="xtick_3">
     <g id="line2d_3">
      <g>
       <use xlink:href="#m95e50c399a" x="335.272468" y="581.702" style="fill: #e4e4e9; fill-opacity: 0.819608; stroke: #e4e4e9; stroke-opacity: 0.819608; stroke-width: 1.6"/>
      </g>
     </g>
     <g id="text_3">
      <!-- 0.50 -->
      <g style="fill: #e4e4e9; opacity: 0.819608" transform="translate(320.417468 608.402) scale(0.16 -0.16)">
       <use xlink:href="#FiraSans-Regular-30"/>
       <use xlink:href="#FiraSans-Regular-2e" x="55.799988"/>
       <use xlink:href="#FiraSans-Regular-35" x="79.799973"/>
       <use xlink:href="#FiraSans-Regular-30" x="129.899963"/>
      </g>
     </g>
    </g>
    <g id="xtick_4">
     <g id="line2d_4">
      <g>
       <use xlink:href="#m95e50c399a" x="466.639453" y="581.702" style="fill: #e4e4e9; fill-opacity: 0.819608; stroke: #e4e4e9; stroke-opacity: 0.819608; stroke-width: 1.6"/>
      </g>
     </g>
     <g id="text_4">
      <!-- 0.75 -->
      <g style="fill: #e4e4e9; opacity: 0.819608" transform="translate(452.695703 608.402) scale(0.16 -0.16)">
       <defs>
        <path id="FiraSans-Regular-37" d="M 2650 4282 
L 160 4282 
L 160 3802 
L 2054 3802 
L 512 115 
L 1050 -64 
L 2650 3840 
L 2650 4282 
z
" transform="scale(0.015625)"/>
       </defs>
       <use xlink:href="#FiraSans-Regular-30"/>
       <use xlink:href="#FiraSans-Regular-2e" x="55.799988"/>
       <use xlink:href="#FiraSans-Regular-37" x="79.799973"/>
       <use xlink:href="#FiraSans-Regular-35" x="124.199966"/>
      </g>
     </g>
    </g>
    <g id="xtick_5">
     <g id="line2d_5">
      <g>
       <use xlink:href="#m95e50c399a" x="598.006437" y="581.702" style="fill: #e4e4e9; fill-opacity: 0.819608; stroke: #e4e4e9; stroke-opacity: 0.819608; stroke-width: 1.6"/>
      </g>
     </g>
     <g id="text_5">
      <!-- 1.00 -->
      <g style="fill: #e4e4e9; opacity: 0.819608" transform="translate(583.695187 608.402) scale(0.16 -0.16)">
       <defs>
        <path id="FiraSans-Regular-31" d="M 2067 4282 
L 1549 4282 
L 224 3462 
L 480 3046 
L 1478 3654 
L 1478 0 
L 2067 0 
L 2067 4282 
z
" transform="scale(0.015625)"/>
       </defs>
       <use xlink:href="#FiraSans-Regular-31"/>
       <use xlink:href="#FiraSans-Regular-2e" x="43.299988"/>
       <use xlink:href="#FiraSans-Regular-30" x="67.299973"/>
       <use xlink:href="#FiraSans-Regular-30" x="123.09996"/>
      </g>
     </g>
    </g>
    <g id="xtick_6">
     <g id="line2d_6">
      <g>
       <use xlink:href="#m95e50c399a" x="729.373421" y="581.702" style="fill: #e4e4e9; fill-opacity: 0.819608; stroke: #e4e4e9; stroke-opacity: 0.819608; stroke-width: 1.6"/>
      </g>
     </g>
     <g id="text_6">
      <!-- 1.25 -->
      <g style="fill: #e4e4e9; opacity: 0.819608" transform="translate(716.022171 608.402) scale(0.16 -0.16)">
       <use xlink:href="#FiraSans-Regular-31"/>
       <use xlink:href="#FiraSans-Regular-2e" x="43.299988"/>
       <use xlink:href="#FiraSans-Regular-32" x="67.299973"/>
       <use xlink:href="#FiraSans-Regular-35" x="116.799957"/>
      </g>
     </g>
    </g>
    <g id="xtick_7">
     <g id="line2d_7">
      <g>
       <use xlink:href="#m95e50c399a" x="860.740405" y="581.702" style="fill: #e4e4e9; fill-opacity: 0.819608; stroke: #e4e4e9; stroke-opacity: 0.819608; stroke-width: 1.6"/>
      </g>
     </g>
     <g id="text_7">
      <!-- 1.50 -->
      <g style="fill: #e4e4e9; opacity: 0.819608" transform="translate(846.885405 608.402) scale(0.16 -0.16)">
       <use xlink:href="#FiraSans-Regular-31"/>
       <use xlink:href="#FiraSans-Regular-2e" x="43.299988"/>
       <use xlink:href="#FiraSans-Regular-35" x="67.299973"/>
       <use xlink:href="#FiraSans-Regular-30" x="117.399963"/>
      </g>
     </g>
    </g>
    <g id="xtick_8">
     <g id="line2d_8">
      <g>
       <use xlink:href="#m95e50c399a" x="992.107389" y="581.702" style="fill: #e4e4e9; fill-opacity: 0.819608; stroke: #e4e4e9; stroke-opacity: 0.819608; stroke-width: 1.6"/>
      </g>
     </g>
     <g id="text_8">
      <!-- 1.75 -->
      <g style="fill: #e4e4e9; opacity: 0.819608" transform="translate(979.163639 608.402) scale(0.16 -0.16)">
       <use xlink:href="#FiraSans-Regular-31"/>
       <use xlink:href="#FiraSans-Regular-2e" x="43.299988"/>
       <use xlink:href="#FiraSans-Regular-37" x="67.299973"/>
       <use xlink:href="#FiraSans-Regular-35" x="111.699966"/>
      </g>
     </g>
    </g>
    <g id="xtick_9">
     <g id="line2d_9">
      <g>
       <use xlink:href="#m95e50c399a" x="1123.474373" y="581.702" style="fill: #e4e4e9; fill-opacity: 0.819608; stroke: #e4e4e9; stroke-opacity: 0.819608; stroke-width: 1.6"/>
      </g>
     </g>
     <g id="text_9">
      <!-- 2.00 -->
      <g style="fill: #e4e4e9; opacity: 0.819608" transform="translate(1108.666873 608.402) scale(0.16 -0.16)">
       <use xlink:href="#FiraSans-Regular-32"/>
       <use xlink:href="#FiraSans-Regular-2e" x="49.499985"/>
       <use xlink:href="#FiraSans-Regular-30" x="73.499969"/>
       <use xlink:href="#FiraSans-Regular-30" x="129.299957"/>
      </g>
     </g>
    </g>
    <g id="text_10">
     <!-- $X$ -->
     <g style="fill: #e4e4e9; opacity: 0.819608" transform="translate(591.934437 629.0095) scale(0.176 -0.176)">
      <defs>
       <path id="DejaVuSans-Oblique-58" d="M 878 4666 
L 1516 4666 
L 2316 2981 
L 3763 4666 
L 4500 4666 
L 2578 2438 
L 3738 0 
L 3103 0 
L 2163 1966 
L 459 0 
L -275 0 
L 1906 2509 
L 878 4666 
z
" transform="scale(0.015625)"/>
      </defs>
      <use xlink:href="#DejaVuSans-Oblique-58" transform="translate(0 0.09375)"/>
     </g>
    </g>
   </g>
   <g id="matplotlib.axis_2">
    <g id="ytick_1">
     <g id="line2d_10">
      <defs>
       <path id="m972475984a" d="M 0 0 
L -3.5 0 
" style="stroke: #e4e4e9; stroke-opacity: 0.819608; stroke-width: 1.6"/>
      </defs>
      <g>
       <use xlink:href="#m972475984a" x="72.5385" y="581.702" style="fill: #e4e4e9; fill-opacity: 0.819608; stroke: #e4e4e9; stroke-opacity: 0.819608; stroke-width: 1.6"/>
      </g>
     </g>
     <g id="text_11">
      <!-- 0.00 -->
      <g style="fill: #e4e4e9; opacity: 0.819608" transform="translate(27.216 587.702) scale(0.16 -0.16)">
       <use xlink:href="#FiraSans-Regular-30"/>
       <use xlink:href="#FiraSans-Regular-2e" x="55.799988"/>
       <use xlink:href="#FiraSans-Regular-30" x="79.799973"/>
       <use xlink:href="#FiraSans-Regular-30" x="135.59996"/>
      </g>
     </g>
    </g>
    <g id="ytick_2">
     <g id="line2d_11">
      <g>
       <use xlink:href="#m972475984a" x="72.5385" y="518.773023" style="fill: #e4e4e9; fill-opacity: 0.819608; stroke: #e4e4e9; stroke-opacity: 0.819608; stroke-width: 1.6"/>
      </g>
     </g>
     <g id="text_12">
      <!-- 0.25 -->
      <g style="fill: #e4e4e9; opacity: 0.819608" transform="translate(29.136 524.773023) scale(0.16 -0.16)">
       <use xlink:href="#FiraSans-Regular-30"/>
       <use xlink:href="#FiraSans-Regular-2e" x="55.799988"/>
       <use xlink:href="#FiraSans-Regular-32" x="79.799973"/>
       <use xlink:href="#FiraSans-Regular-35" x="129.299957"/>
      </g>
     </g>
    </g>
    <g id="ytick_3">
     <g id="line2d_12">
      <g>
       <use xlink:href="#m972475984a" x="72.5385" y="455.844045" style="fill: #e4e4e9; fill-opacity: 0.819608; stroke: #e4e4e9; stroke-opacity: 0.819608; stroke-width: 1.6"/>
      </g>
     </g>
     <g id="text_13">
      <!-- 0.50 -->
      <g style="fill: #e4e4e9; opacity: 0.819608" transform="translate(28.1285 461.844045) scale(0.16 -0.16)">
       <use xlink:href="#FiraSans-Regular-30"/>
       <use xlink:href="#FiraSans-Regular-2e" x="55.799988"/>
       <use xlink:href="#FiraSans-Regular-35" x="79.799973"/>
       <use xlink:href="#FiraSans-Regular-30" x="129.899963"/>
      </g>
     </g>
    </g>
    <g id="ytick_4">
     <g id="line2d_13">
      <g>
       <use xlink:href="#m972475984a" x="72.5385" y="392.915068" style="fill: #e4e4e9; fill-opacity: 0.819608; stroke: #e4e4e9; stroke-opacity: 0.819608; stroke-width: 1.6"/>
      </g>
     </g>
     <g id="text_14">
      <!-- 0.75 -->
      <g style="fill: #e4e4e9; opacity: 0.819608" transform="translate(29.951 398.915068) scale(0.16 -0.16)">
       <use xlink:href="#FiraSans-Regular-30"/>
       <use xlink:href="#FiraSans-Regular-2e" x="55.799988"/>
       <use xlink:href="#FiraSans-Regular-37" x="79.799973"/>
       <use xlink:href="#FiraSans-Regular-35" x="124.199966"/>
      </g>
     </g>
    </g>
    <g id="ytick_5">
     <g id="line2d_14">
      <g>
       <use xlink:href="#m972475984a" x="72.5385" y="329.986091" style="fill: #e4e4e9; fill-opacity: 0.819608; stroke: #e4e4e9; stroke-opacity: 0.819608; stroke-width: 1.6"/>
      </g>
     </g>
     <g id="text_15">
      <!-- 1.00 -->
      <g style="fill: #e4e4e9; opacity: 0.819608" transform="translate(29.216 335.986091) scale(0.16 -0.16)">
       <use xlink:href="#FiraSans-Regular-31"/>
       <use xlink:href="#FiraSans-Regular-2e" x="43.299988"/>
       <use xlink:href="#FiraSans-Regular-30" x="67.299973"/>
       <use xlink:href="#FiraSans-Regular-30" x="123.09996"/>
      </g>
     </g>
    </g>
    <g id="ytick_6">
     <g id="line2d_15">
      <g>
       <use xlink:href="#m972475984a" x="72.5385" y="267.057114" style="fill: #e4e4e9; fill-opacity: 0.819608; stroke: #e4e4e9; stroke-opacity: 0.819608; stroke-width: 1.6"/>
      </g>
     </g>
     <g id="text_16">
      <!-- 1.25 -->
      <g style="fill: #e4e4e9; opacity: 0.819608" transform="translate(31.136 273.057114) scale(0.16 -0.16)">
       <use xlink:href="#FiraSans-Regular-31"/>
       <use xlink:href="#FiraSans-Regular-2e" x="43.299988"/>
       <use xlink:href="#FiraSans-Regular-32" x="67.299973"/>
       <use xlink:href="#FiraSans-Regular-35" x="116.799957"/>
      </g>
     </g>
    </g>
    <g id="ytick_7">
     <g id="line2d_16">
      <g>
       <use xlink:href="#m972475984a" x="72.5385" y="204.128136" style="fill: #e4e4e9; fill-opacity: 0.819608; stroke: #e4e4e9; stroke-opacity: 0.819608; stroke-width: 1.6"/>
      </g>
     </g>
     <g id="text_17">
      <!-- 1.50 -->
      <g style="fill: #e4e4e9; opacity: 0.819608" transform="translate(30.1285 210.128136) scale(0.16 -0.16)">
       <use xlink:href="#FiraSans-Regular-31"/>
       <use xlink:href="#FiraSans-Regular-2e" x="43.299988"/>
       <use xlink:href="#FiraSans-Regular-35" x="67.299973"/>
       <use xlink:href="#FiraSans-Regular-30" x="117.399963"/>
      </g>
     </g>
    </g>
    <g id="ytick_8">
     <g id="line2d_17">
      <g>
       <use xlink:href="#m972475984a" x="72.5385" y="141.199159" style="fill: #e4e4e9; fill-opacity: 0.819608; stroke: #e4e4e9; stroke-opacity: 0.819608; stroke-width: 1.6"/>
      </g>
     </g>
     <g id="text_18">
      <!-- 1.75 -->
      <g style="fill: #e4e4e9; opacity: 0.819608" transform="translate(31.951 147.199159) scale(0.16 -0.16)">
       <use xlink:href="#FiraSans-Regular-31"/>
       <use xlink:href="#FiraSans-Regular-2e" x="43.299988"/>
       <use xlink:href="#FiraSans-Regular-37" x="67.299973"/>
       <use xlink:href="#FiraSans-Regular-35" x="111.699966"/>
      </g>
     </g>
    </g>
    <g id="ytick_9">
     <g id="line2d_18">
      <g>
       <use xlink:href="#m972475984a" x="72.5385" y="78.270182" style="fill: #e4e4e9; fill-opacity: 0.819608; stroke: #e4e4e9; stroke-opacity: 0.819608; stroke-width: 1.6"/>
      </g>
     </g>
     <g id="text_19">
      <!-- 2.00 -->
      <g style="fill: #e4e4e9; opacity: 0.819608" transform="translate(28.2235 84.270182) scale(0.16 -0.16)">
       <use xlink:href="#FiraSans-Regular-32"/>
       <use xlink:href="#FiraSans-Regular-2e" x="49.499985"/>
       <use xlink:href="#FiraSans-Regular-30" x="73.499969"/>
       <use xlink:href="#FiraSans-Regular-30" x="129.299957"/>
      </g>
     </g>
    </g>
    <g id="text_20">
     <!-- $f(X)$ -->
     <g style="fill: #e4e4e9; opacity: 0.819608" transform="translate(7.2 301.06625) scale(0.176 -0.176)">
      <defs>
       <path id="DejaVuSans-Oblique-66" d="M 3059 4863 
L 2969 4384 
L 2419 4384 
Q 2106 4384 1964 4261 
Q 1822 4138 1753 3809 
L 1691 3500 
L 2638 3500 
L 2553 3053 
L 1606 3053 
L 1013 0 
L 434 0 
L 1031 3053 
L 481 3053 
L 563 3500 
L 1113 3500 
L 1159 3744 
Q 1278 4363 1576 4613 
Q 1875 4863 2516 4863 
L 3059 4863 
z
" transform="scale(0.015625)"/>
       <path id="DejaVuSans-28" d="M 1984 4856 
Q 1566 4138 1362 3434 
Q 1159 2731 1159 2009 
Q 1159 1288 1364 580 
Q 1569 -128 1984 -844 
L 1484 -844 
Q 1016 -109 783 600 
Q 550 1309 550 2009 
Q 550 2706 781 3412 
Q 1013 4119 1484 4856 
L 1984 4856 
z
" transform="scale(0.015625)"/>
       <path id="DejaVuSans-29" d="M 513 4856 
L 1013 4856 
Q 1481 4119 1714 3412 
Q 1947 2706 1947 2009 
Q 1947 1309 1714 600 
Q 1481 -109 1013 -844 
L 513 -844 
Q 928 -128 1133 580 
Q 1338 1288 1338 2009 
Q 1338 2731 1133 3434 
Q 928 4138 513 4856 
z
" transform="scale(0.015625)"/>
      </defs>
      <use xlink:href="#DejaVuSans-Oblique-66" transform="translate(0 0.015625)"/>
      <use xlink:href="#DejaVuSans-28" transform="translate(35.205078 0.015625)"/>
      <use xlink:href="#DejaVuSans-Oblique-58" transform="translate(74.21875 0.015625)"/>
      <use xlink:href="#DejaVuSans-29" transform="translate(142.724609 0.015625)"/>
     </g>
    </g>
   </g>
   <g id="line2d_19">
    <path d="M 72.5385 329.986091 
L 79.902415 336.895609 
L 87.26633 343.524488 
L 94.630245 349.887722 
L 103.046148 356.852634 
L 111.462051 363.508305 
L 119.877954 369.872773 
L 128.293857 375.962782 
L 136.70976 381.793889 
L 145.125662 387.380564 
L 154.593553 393.39014 
L 164.061444 399.125189 
L 173.529335 404.602181 
L 182.997225 409.836368 
L 193.517104 415.384528 
L 204.036983 420.668303 
L 214.556861 425.704227 
L 225.07674 430.507565 
L 236.648606 435.539401 
L 248.220473 440.32416 
L 259.792339 444.877758 
L 272.416194 449.59887 
L 285.040048 454.079779 
L 297.663902 458.336508 
L 311.339745 462.712014 
L 325.015587 466.858798 
L 339.743417 471.086716 
L 354.471247 475.085387 
L 370.251065 479.133747 
L 386.030883 482.955828 
L 402.862688 486.801929 
L 420.746482 490.647298 
L 438.630276 494.263593 
L 457.566057 497.862727 
L 477.553827 501.425954 
L 497.541596 504.766756 
L 518.581353 508.063005 
L 540.673098 511.301179 
L 563.816831 514.469705 
L 588.012552 517.558884 
L 613.260261 520.560774 
L 639.559957 523.469069 
L 667.963629 526.382946 
L 697.41929 529.179659 
L 728.978925 531.947141 
L 761.590549 534.583248 
L 796.306149 537.165671 
L 833.125724 539.679304 
L 872.049275 542.112018 
L 913.076801 544.454447 
L 957.260291 546.751933 
L 1004.599745 548.985368 
L 1055.095162 551.139684 
L 1108.746543 553.20355 
L 1123.474373 553.733566 
L 1123.474373 553.733566 
" clip-path="url(#pd5ef2802dd)" style="fill: none; stroke: #a6cee3; stroke-opacity: 0.8; stroke-width: 3; stroke-linecap: square"/>
   </g>
   <g id="line2d_20">
    <path d="M 72.5385 78.270182 
L 77.798439 93.090565 
L 83.058379 107.334886 
L 88.318318 121.030865 
L 93.578257 134.204635 
L 99.890184 149.358457 
L 106.202112 163.835715 
L 112.514039 177.67375 
L 118.825966 190.907455 
L 125.137893 203.569463 
L 131.44982 215.690317 
L 137.761747 227.298619 
L 144.073675 238.421179 
L 150.385602 249.083139 
L 156.697529 259.308099 
L 163.009456 269.118219 
L 169.321383 278.534326 
L 175.63331 287.576005 
L 181.945238 296.261683 
L 188.257165 304.60871 
L 194.569092 312.633433 
L 201.933007 321.608756 
L 209.296922 330.189291 
L 216.660837 338.396507 
L 224.024752 346.250488 
L 231.388667 353.770034 
L 238.752582 360.972761 
L 246.116497 367.875177 
L 253.480412 374.492775 
L 260.844327 380.840093 
L 269.26023 387.7807 
L 277.676133 394.405187 
L 286.092036 400.731347 
L 294.507939 406.775788 
L 302.923842 412.554018 
L 311.339745 418.080533 
L 320.807635 424.013832 
L 330.275526 429.663691 
L 339.743417 435.046833 
L 349.211308 440.178815 
L 358.679198 445.074115 
L 369.199077 450.252121 
L 379.718955 455.171746 
L 390.238834 459.848907 
L 400.758713 464.298359 
L 412.330579 468.946063 
L 423.902446 473.351648 
L 435.474312 477.530678 
L 448.098166 481.848099 
L 460.722021 485.930196 
L 474.397863 490.105224 
L 488.073705 494.041064 
L 501.749547 497.754602 
L 516.477377 501.522911 
L 531.205208 505.069011 
L 546.985025 508.640132 
L 563.816831 512.20892 
L 580.648637 515.549013 
L 598.532431 518.867416 
L 617.468212 522.143482 
L 636.403994 525.195706 
L 656.391763 528.195396 
L 677.43152 531.127933 
L 699.523265 533.98095 
L 722.666998 536.744253 
L 746.862719 539.409703 
L 772.110428 541.971077 
L 799.462112 544.517757 
L 827.865784 546.937161 
L 858.373432 549.307574 
L 889.933068 551.538295 
L 923.59668 553.69762 
L 959.364267 555.771896 
L 998.287818 557.802874 
L 1039.315345 559.720409 
L 1083.498835 561.562789 
L 1123.474373 563.056377 
L 1123.474373 563.056377 
" clip-path="url(#pd5ef2802dd)" style="fill: none; stroke: #1f78b4; stroke-opacity: 0.8; stroke-width: 3; stroke-linecap: square"/>
   </g>
   <g id="line2d_21">
    <path d="M 107.722747 -1 
L 112.514039 18.505411 
L 117.773978 38.983133 
L 123.033917 58.538549 
L 128.293857 77.221062 
L 133.553796 95.077015 
L 138.813735 112.149905 
L 144.073675 128.480581 
L 149.333614 144.107428 
L 154.593553 159.066537 
L 159.853492 173.391855 
L 165.113432 187.115333 
L 170.373371 200.267061 
L 175.63331 212.875386 
L 180.89325 224.96703 
L 186.153189 236.567193 
L 191.413128 247.699654 
L 196.673068 258.38686 
L 201.933007 268.650011 
L 208.244934 280.434168 
L 214.556861 291.66902 
L 220.868788 302.38501 
L 227.180716 312.610628 
L 233.492643 322.372558 
L 239.80457 331.695804 
L 246.116497 340.603811 
L 252.428424 349.118575 
L 258.740351 357.260746 
L 265.052279 365.049718 
L 271.364206 372.503719 
L 277.676133 379.639887 
L 283.98806 386.474348 
L 290.299987 393.022279 
L 297.663902 400.318416 
L 305.027817 407.265265 
L 312.391732 413.882702 
L 319.755647 420.189295 
L 327.119562 426.202403 
L 334.483477 431.938262 
L 341.847392 437.412072 
L 349.211308 442.63807 
L 357.62721 448.324271 
L 366.043113 453.722791 
L 374.459016 458.850919 
L 382.874919 463.724746 
L 391.290822 468.359255 
L 400.758713 473.304368 
L 410.226603 477.982707 
L 419.694494 482.411356 
L 429.162385 486.606137 
L 439.682264 491.010517 
L 450.202142 495.162837 
L 460.722021 499.08021 
L 472.293887 503.136747 
L 483.865754 506.947353 
L 495.43762 510.529706 
L 508.061475 514.196418 
L 520.685329 517.630012 
L 534.361171 521.107001 
L 548.037013 524.3513 
L 562.764843 527.606047 
L 577.492673 530.633144 
L 593.272491 533.645212 
L 610.104297 536.617359 
L 626.936103 539.363246 
L 644.819897 542.055571 
L 663.755678 544.6771 
L 683.743447 547.21346 
L 704.783205 549.653058 
L 726.87495 551.986929 
L 750.018683 554.208552 
L 775.266391 556.400496 
L 801.566088 558.456423 
L 829.96976 560.447707 
L 860.477408 562.35473 
L 893.089032 564.162681 
L 927.804631 565.861217 
L 965.676194 567.48624 
L 1006.703721 569.018418 
L 1050.887211 570.444622 
L 1099.278653 571.784161 
L 1123.474373 572.379189 
L 1123.474373 572.379189 
" clip-path="url(#pd5ef2802dd)" style="fill: none; stroke: #b2df8a; stroke-opacity: 0.8; stroke-width: 3; stroke-linecap: square"/>
   </g>
   <g id="line2d_22">
    <path d="M 72.5385 581.702 
L 99.890184 555.638764 
L 114.618014 541.899272 
L 127.241869 530.410467 
L 138.813735 520.179053 
L 149.333614 511.172396 
L 158.801505 503.33729 
L 168.269395 495.78366 
L 177.737286 488.532969 
L 186.153189 482.357589 
L 194.569092 476.448116 
L 202.984995 470.814451 
L 211.400898 465.464835 
L 219.816801 460.405863 
L 227.180716 456.221627 
L 234.544631 452.266082 
L 241.908546 448.54067 
L 249.272461 445.045965 
L 256.636376 441.781718 
L 264.000291 438.746891 
L 271.364206 435.939709 
L 278.728121 433.357703 
L 286.092036 430.997759 
L 293.455951 428.856171 
L 300.819866 426.928694 
L 308.183781 425.210589 
L 315.547696 423.696685 
L 323.963599 422.209399 
L 332.379502 420.972717 
L 340.795405 419.977325 
L 349.211308 419.213522 
L 357.62721 418.671303 
L 366.043113 418.340441 
L 375.511004 418.207942 
L 384.978895 418.314934 
L 394.446786 418.646533 
L 403.914676 419.187954 
L 414.434555 420.01787 
L 424.954434 421.069176 
L 436.5263 422.458533 
L 448.098166 424.068112 
L 460.722021 426.047566 
L 474.397863 428.422561 
L 489.125693 431.209817 
L 505.957499 434.63673 
L 524.89328 438.735113 
L 546.985025 443.753608 
L 576.440686 450.687862 
L 663.755678 471.381176 
L 693.211338 478.050018 
L 719.511035 483.779373 
L 744.758743 489.054821 
L 768.954464 493.890541 
L 793.150185 498.504188 
L 817.345906 502.89347 
L 841.541627 507.059509 
L 865.737347 511.006036 
L 890.985056 514.89627 
L 916.232765 518.561749 
L 942.532461 522.150893 
L 968.832158 525.51738 
L 996.183842 528.794875 
L 1024.587514 531.971121 
L 1054.043175 535.035947 
L 1084.550823 537.981241 
L 1116.110458 540.800874 
L 1123.474373 541.427455 
L 1123.474373 541.427455 
" clip-path="url(#pd5ef2802dd)" style="fill: none; stroke: #33a02c; stroke-opacity: 0.8; stroke-width: 3; stroke-linecap: square"/>
   </g>
   <g id="line2d_23">
    <path d="M 72.5385 581.702 
L 78.850427 581.593041 
L 85.162354 581.266176 
L 91.474282 580.72146 
L 97.786209 579.959041 
L 104.098136 578.979203 
L 110.410063 577.782408 
L 116.72199 576.369347 
L 123.033917 574.740979 
L 129.345845 572.898575 
L 135.657772 570.843763 
L 141.969699 568.578569 
L 148.281626 566.105454 
L 155.645541 562.961308 
L 163.009456 559.54372 
L 170.373371 555.859246 
L 177.737286 551.915522 
L 185.101201 547.721316 
L 192.465116 543.286564 
L 200.881019 537.938084 
L 209.296922 532.30861 
L 217.712825 526.418828 
L 227.180716 519.510082 
L 236.648606 512.336161 
L 247.168485 504.101012 
L 259.792339 493.929683 
L 276.624145 480.051021 
L 310.287757 452.21173 
L 322.911611 442.097749 
L 333.43149 433.935446 
L 342.89938 426.851067 
L 352.367271 420.058805 
L 360.783174 414.298505 
L 369.199077 408.825764 
L 376.562992 404.291203 
L 383.926907 400.008342 
L 391.290822 395.989424 
L 398.654737 392.245037 
L 406.018652 388.784073 
L 412.330579 386.048603 
L 418.642506 383.53018 
L 424.954434 381.231398 
L 431.266361 379.153941 
L 437.578288 377.298606 
L 443.890215 375.665327 
L 450.202142 374.253205 
L 456.514069 373.060547 
L 462.825997 372.084902 
L 469.137924 371.32311 
L 475.449851 370.771346 
L 481.761778 370.425171 
L 488.073705 370.279582 
L 494.385632 370.329067 
L 501.749547 370.625366 
L 509.113462 371.168877 
L 516.477377 371.948804 
L 523.841292 372.953831 
L 531.205208 374.172233 
L 539.62111 375.810523 
L 548.037013 377.693507 
L 556.452916 379.802734 
L 565.920807 382.423069 
L 575.388698 385.280339 
L 585.908576 388.701884 
L 596.428455 392.350286 
L 608.000321 396.586481 
L 621.676164 401.839201 
L 637.455982 408.152863 
L 657.443751 416.407099 
L 733.186877 447.946841 
L 752.122658 455.466843 
L 770.006452 462.333481 
L 786.838258 468.562179 
L 803.670064 474.547803 
L 819.449882 479.929493 
L 835.229699 485.084013 
L 851.009517 490.009782 
L 866.789335 494.707694 
L 882.569153 499.180647 
L 898.348971 503.433133 
L 915.180777 507.732594 
L 932.012583 511.795877 
L 948.844388 515.631979 
L 966.728182 519.469634 
L 984.611976 523.073545 
L 1002.495769 526.4558 
L 1021.431551 529.808827 
L 1040.367332 532.940993 
L 1060.355102 536.022733 
L 1081.394859 539.034448 
L 1102.434616 541.824998 
L 1123.474373 544.410754 
L 1123.474373 544.410754 
" clip-path="url(#pd5ef2802dd)" style="fill: none; stroke: #fb9a99; stroke-opacity: 0.8; stroke-width: 3; stroke-linecap: square"/>
   </g>
   <g id="line2d_24">
    <path d="M 100.673394 -1 
L 101.99416 19.695399 
L 104.098136 49.551022 
L 106.202112 76.299852 
L 108.306087 100.421254 
L 110.410063 122.298454 
L 112.514039 142.241851 
L 114.618014 160.505794 
L 116.72199 177.300878 
L 118.825966 192.803105 
L 120.929942 207.160811 
L 124.085905 226.821907 
L 127.241869 244.538713 
L 130.397832 260.593192 
L 133.553796 275.21428 
L 136.70976 288.589945 
L 139.865723 300.876083 
L 143.021687 312.203159 
L 146.17765 322.681258 
L 149.333614 332.40396 
L 152.489577 341.451362 
L 155.645541 349.892448 
L 158.801505 357.786976 
L 161.957468 365.186987 
L 165.113432 372.138027 
L 169.321383 380.776205 
L 173.529335 388.769133 
L 177.737286 396.186984 
L 181.945238 403.089995 
L 186.153189 409.530184 
L 190.36114 415.55272 
L 194.569092 421.197022 
L 198.777043 426.497655 
L 202.984995 431.48506 
L 207.192946 436.186159 
L 212.452886 441.696068 
L 217.712825 446.83682 
L 222.972764 451.644129 
L 228.232703 456.149218 
L 233.492643 460.379512 
L 238.752582 464.359198 
L 245.064509 468.834006 
L 251.376436 473.011206 
L 257.688364 476.91919 
L 264.000291 480.582843 
L 271.364206 484.577377 
L 278.728121 488.299519 
L 286.092036 491.775774 
L 294.507939 495.477145 
L 302.923842 498.91766 
L 311.339745 502.123436 
L 320.807635 505.477555 
L 330.275526 508.591427 
L 340.795405 511.799016 
L 351.315283 514.768838 
L 362.88715 517.790576 
L 374.459016 520.583079 
L 387.082871 523.396633 
L 400.758713 526.201051 
L 414.434555 528.780803 
L 429.162385 531.336523 
L 444.942203 533.848342 
L 461.774009 536.30006 
L 479.657802 538.678887 
L 498.593584 540.975103 
L 519.633341 543.292205 
L 541.725086 545.494462 
L 565.920807 547.671967 
L 591.168516 549.718616 
L 618.5202 551.712368 
L 647.97586 553.636685 
L 680.587484 555.537469 
L 715.303083 557.335886 
L 753.174646 559.074536 
L 795.254161 560.777149 
L 840.489639 562.383056 
L 890.985056 563.948366 
L 946.740413 565.447722 
L 1007.755709 566.863905 
L 1076.13492 568.225356 
L 1123.474373 569.052638 
L 1123.474373 569.052638 
" clip-path="url(#pd5ef2802dd)" style="fill: none; stroke: #e31a1c; stroke-opacity: 0.8; stroke-width: 3; stroke-linecap: square"/>
   </g>
   <g id="patch_3">
    <path d="M 72.5385 581.702 
L 72.5385 27.927 
" style="fill: none; stroke: #ffffff; stroke-width: 0.8; stroke-linejoin: miter; stroke-linecap: square"/>
   </g>
   <g id="patch_4">
    <path d="M 72.5385 581.702 
L 1123.474373 581.702 
" style="fill: none; stroke: #ffffff; stroke-width: 0.8; stroke-linejoin: miter; stroke-linecap: square"/>
   </g>
   <g id="text_21">
    <!-- PDF of $X \sim \mathrm{Burr XII}(\alpha, \beta)$ -->
    <g style="fill: #e4e4e9; opacity: 0.819608" transform="translate(491.542437 21.927) scale(0.192 -0.192)">
     <defs>
      <path id="FiraSans-Regular-50" d="M 1798 4410 
L 640 4410 
L 640 0 
L 1248 0 
L 1248 1619 
L 1805 1619 
C 2778 1619 3514 2035 3514 3046 
C 3514 3974 2861 4410 1798 4410 
z
M 1779 2099 
L 1248 2099 
L 1248 3936 
L 1792 3936 
C 2445 3936 2867 3699 2867 3040 
C 2867 2291 2432 2099 1779 2099 
z
" transform="scale(0.015625)"/>
      <path id="FiraSans-Regular-44" d="M 1562 4410 
L 640 4410 
L 640 0 
L 1696 0 
C 2650 0 3770 429 3770 2227 
C 3770 4058 2688 4410 1562 4410 
z
M 1696 3923 
C 2400 3923 3123 3718 3123 2227 
C 3123 774 2432 480 1741 480 
L 1248 480 
L 1248 3923 
L 1696 3923 
z
" transform="scale(0.015625)"/>
      <path id="FiraSans-Regular-46" d="M 640 0 
L 1248 0 
L 1248 1939 
L 2688 1939 
L 2688 2419 
L 1248 2419 
L 1248 3923 
L 2912 3923 
L 2982 4410 
L 640 4410 
L 640 0 
z
" transform="scale(0.015625)"/>
      <path id="FiraSans-Regular-20" transform="scale(0.015625)"/>
      <path id="FiraSans-Regular-6f" d="M 1875 3450 
C 915 3450 365 2726 365 1683 
C 365 614 909 -77 1869 -77 
C 2822 -77 3373 646 3373 1690 
C 3373 2758 2835 3450 1875 3450 
z
M 1875 2976 
C 2432 2976 2739 2566 2739 1690 
C 2739 806 2432 397 1869 397 
C 1306 397 998 806 998 1683 
C 998 2566 1312 2976 1875 2976 
z
" transform="scale(0.015625)"/>
      <path id="FiraSans-Regular-66" d="M 1754 4326 
C 1926 4326 2125 4294 2342 4198 
L 2528 4627 
C 2259 4742 2042 4800 1722 4800 
C 1037 4800 666 4397 666 3834 
L 666 3373 
L 64 3373 
L 64 2918 
L 666 2918 
L 666 0 
L 1254 0 
L 1254 2918 
L 2010 2918 
L 2074 3373 
L 1254 3373 
L 1254 3840 
C 1254 4166 1382 4326 1754 4326 
z
" transform="scale(0.015625)"/>
      <path id="DejaVuSans-223c" d="M 4684 2556 
L 4684 1997 
Q 4356 1753 4076 1645 
Q 3797 1538 3494 1538 
Q 3150 1538 2694 1722 
Q 2663 1734 2641 1744 
Q 2622 1750 2575 1769 
Q 2091 1959 1797 1959 
Q 1522 1959 1253 1840 
Q 984 1722 678 1459 
L 678 2019 
Q 1006 2263 1286 2370 
Q 1566 2478 1869 2478 
Q 2213 2478 2672 2294 
Q 2706 2278 2722 2272 
Q 2741 2266 2788 2247 
Q 3272 2056 3566 2056 
Q 3834 2056 4098 2173 
Q 4363 2291 4684 2556 
z
" transform="scale(0.015625)"/>
      <path id="DejaVuSans-42" d="M 1259 2228 
L 1259 519 
L 2272 519 
Q 2781 519 3026 730 
Q 3272 941 3272 1375 
Q 3272 1813 3026 2020 
Q 2781 2228 2272 2228 
L 1259 2228 
z
M 1259 4147 
L 1259 2741 
L 2194 2741 
Q 2656 2741 2882 2914 
Q 3109 3088 3109 3444 
Q 3109 3797 2882 3972 
Q 2656 4147 2194 4147 
L 1259 4147 
z
M 628 4666 
L 2241 4666 
Q 2963 4666 3353 4366 
Q 3744 4066 3744 3513 
Q 3744 3084 3544 2831 
Q 3344 2578 2956 2516 
Q 3422 2416 3680 2098 
Q 3938 1781 3938 1306 
Q 3938 681 3513 340 
Q 3088 0 2303 0 
L 628 0 
L 628 4666 
z
" transform="scale(0.015625)"/>
      <path id="DejaVuSans-75" d="M 544 1381 
L 544 3500 
L 1119 3500 
L 1119 1403 
Q 1119 906 1312 657 
Q 1506 409 1894 409 
Q 2359 409 2629 706 
Q 2900 1003 2900 1516 
L 2900 3500 
L 3475 3500 
L 3475 0 
L 2900 0 
L 2900 538 
Q 2691 219 2414 64 
Q 2138 -91 1772 -91 
Q 1169 -91 856 284 
Q 544 659 544 1381 
z
M 1991 3584 
L 1991 3584 
z
" transform="scale(0.015625)"/>
      <path id="DejaVuSans-72" d="M 2631 2963 
Q 2534 3019 2420 3045 
Q 2306 3072 2169 3072 
Q 1681 3072 1420 2755 
Q 1159 2438 1159 1844 
L 1159 0 
L 581 0 
L 581 3500 
L 1159 3500 
L 1159 2956 
Q 1341 3275 1631 3429 
Q 1922 3584 2338 3584 
Q 2397 3584 2469 3576 
Q 2541 3569 2628 3553 
L 2631 2963 
z
" transform="scale(0.015625)"/>
      <path id="DejaVuSans-58" d="M 403 4666 
L 1081 4666 
L 2241 2931 
L 3406 4666 
L 4084 4666 
L 2584 2425 
L 4184 0 
L 3506 0 
L 2194 1984 
L 872 0 
L 191 0 
L 1856 2491 
L 403 4666 
z
" transform="scale(0.015625)"/>
      <path id="DejaVuSans-49" d="M 628 4666 
L 1259 4666 
L 1259 0 
L 628 0 
L 628 4666 
z
" transform="scale(0.015625)"/>
      <path id="DejaVuSans-Oblique-3b1" d="M 2619 1628 
L 2622 2350 
Q 2625 3088 2069 3091 
Q 1653 3094 1394 2747 
Q 1069 2319 959 1747 
Q 825 1059 994 731 
Q 1169 397 1547 397 
Q 1966 397 2319 1063 
L 2619 1628 
z
M 2166 3578 
Q 3141 3594 3128 2584 
Q 3128 2584 3616 3500 
L 4128 3500 
L 3119 1603 
L 3109 919 
Q 3109 766 3194 638 
Q 3291 488 3391 488 
L 3669 488 
L 3575 0 
L 3228 0 
Q 2934 0 2722 263 
Q 2622 394 2619 669 
Q 2416 334 2066 50 
Q 1900 -81 1453 -78 
Q 722 -72 456 397 
Q 184 884 353 1747 
Q 534 2675 1009 3097 
Q 1544 3569 2166 3578 
z
" transform="scale(0.015625)"/>
      <path id="DejaVuSans-2c" d="M 750 794 
L 1409 794 
L 1409 256 
L 897 -744 
L 494 -744 
L 750 256 
L 750 794 
z
" transform="scale(0.015625)"/>
      <path id="DejaVuSans-Oblique-3b2" d="M 872 216 
L 572 -1331 
L -6 -1331 
L 928 3478 
Q 1206 4903 2538 4903 
Q 3888 4903 3659 3700 
Q 3503 2844 2894 2531 
Q 3713 2250 3553 1416 
Q 3272 -69 1759 -66 
Q 1097 -63 872 216 
z
M 1019 966 
Q 1259 422 1875 425 
Q 2775 425 2966 1406 
Q 3138 2288 1675 2219 
L 1778 2750 
Q 2909 2731 3106 3750 
Q 3241 4438 2509 4434 
Q 1691 4434 1503 3459 
L 1019 966 
z
" transform="scale(0.015625)"/>
     </defs>
     <use xlink:href="#FiraSans-Regular-50" transform="translate(0 0.390625)"/>
     <use xlink:href="#FiraSans-Regular-44" transform="translate(58.099991 0.390625)"/>
     <use xlink:href="#FiraSans-Regular-46" transform="translate(122.499985 0.390625)"/>
     <use xlink:href="#FiraSans-Regular-20" transform="translate(171.599976 0.390625)"/>
     <use xlink:href="#FiraSans-Regular-6f" transform="translate(198.09996 0.390625)"/>
     <use xlink:href="#FiraSans-Regular-66" transform="translate(256.499954 0.390625)"/>
     <use xlink:href="#FiraSans-Regular-20" transform="translate(289.999939 0.390625)"/>
     <use xlink:href="#DejaVuSans-Oblique-58" transform="translate(316.499924 0.390625)"/>
     <use xlink:href="#DejaVuSans-223c" transform="translate(404.488205 0.390625)"/>
     <use xlink:href="#DejaVuSans-42" transform="translate(507.759689 0.390625)"/>
     <use xlink:href="#DejaVuSans-75" transform="translate(576.363205 0.390625)"/>
     <use xlink:href="#DejaVuSans-72" transform="translate(639.742111 0.390625)"/>
     <use xlink:href="#DejaVuSans-72" transform="translate(680.855392 0.390625)"/>
     <use xlink:href="#DejaVuSans-58" transform="translate(721.968674 0.390625)"/>
     <use xlink:href="#DejaVuSans-49" transform="translate(790.474533 0.390625)"/>
     <use xlink:href="#DejaVuSans-49" transform="translate(819.966721 0.390625)"/>
     <use xlink:href="#DejaVuSans-28" transform="translate(849.458908 0.390625)"/>
     <use xlink:href="#DejaVuSans-Oblique-3b1" transform="translate(888.47258 0.390625)"/>
     <use xlink:href="#DejaVuSans-2c" transform="translate(954.390549 0.390625)"/>
     <use xlink:href="#DejaVuSans-Oblique-3b2" transform="translate(1005.66008 0.390625)"/>
     <use xlink:href="#DejaVuSans-29" transform="translate(1069.478439 0.390625)"/>
    </g>
   </g>
   <g id="legend_1">
    <g id="patch_5">
     <path d="M 952.274373 182.807 
L 1112.274373 182.807 
Q 1115.474373 182.807 1115.474373 179.607 
L 1115.474373 39.127 
Q 1115.474373 35.927 1112.274373 35.927 
L 952.274373 35.927 
Q 949.074373 35.927 949.074373 39.127 
L 949.074373 179.607 
Q 949.074373 182.807 952.274373 182.807 
z
" style="opacity: 0.8; stroke: #cccccc; stroke-width: 0.48; stroke-linejoin: miter"/>
    </g>
    <g id="line2d_25">
     <path d="M 955.474373 48.9995 
L 971.474373 48.9995 
L 987.474373 48.9995 
" style="fill: none; stroke: #a6cee3; stroke-opacity: 0.8; stroke-width: 3; stroke-linecap: square"/>
    </g>
    <g id="text_22">
     <!-- $\alpha = 1,\ \beta = 1$ -->
     <g style="fill: #e4e4e9; opacity: 0.819608" transform="translate(1000.274373 54.5995) scale(0.16 -0.16)">
      <defs>
       <path id="DejaVuSans-3d" d="M 678 2906 
L 4684 2906 
L 4684 2381 
L 678 2381 
L 678 2906 
z
M 678 1631 
L 4684 1631 
L 4684 1100 
L 678 1100 
L 678 1631 
z
" transform="scale(0.015625)"/>
       <path id="DejaVuSans-31" d="M 794 531 
L 1825 531 
L 1825 4091 
L 703 3866 
L 703 4441 
L 1819 4666 
L 2450 4666 
L 2450 531 
L 3481 531 
L 3481 0 
L 794 0 
L 794 531 
z
" transform="scale(0.015625)"/>
      </defs>
      <use xlink:href="#DejaVuSans-Oblique-3b1" transform="translate(0 0.390625)"/>
      <use xlink:href="#DejaVuSans-3d" transform="translate(85.400391 0.390625)"/>
      <use xlink:href="#DejaVuSans-31" transform="translate(188.671875 0.390625)"/>
      <use xlink:href="#DejaVuSans-2c" transform="translate(252.294922 0.390625)"/>
      <use xlink:href="#DejaVuSans-Oblique-3b2" transform="translate(336.034832 0.390625)"/>
      <use xlink:href="#DejaVuSans-3d" transform="translate(419.335613 0.390625)"/>
      <use xlink:href="#DejaVuSans-31" transform="translate(522.607097 0.390625)"/>
     </g>
    </g>
    <g id="line2d_26">
     <path d="M 955.474373 72.6795 
L 971.474373 72.6795 
L 987.474373 72.6795 
" style="fill: none; stroke: #1f78b4; stroke-opacity: 0.8; stroke-width: 3; stroke-linecap: square"/>
    </g>
    <g id="text_23">
     <!-- $\alpha = 1,\ \beta = 2$ -->
     <g style="fill: #e4e4e9; opacity: 0.819608" transform="translate(1000.274373 78.2795) scale(0.16 -0.16)">
      <defs>
       <path id="DejaVuSans-32" d="M 1228 531 
L 3431 531 
L 3431 0 
L 469 0 
L 469 531 
Q 828 903 1448 1529 
Q 2069 2156 2228 2338 
Q 2531 2678 2651 2914 
Q 2772 3150 2772 3378 
Q 2772 3750 2511 3984 
Q 2250 4219 1831 4219 
Q 1534 4219 1204 4116 
Q 875 4013 500 3803 
L 500 4441 
Q 881 4594 1212 4672 
Q 1544 4750 1819 4750 
Q 2544 4750 2975 4387 
Q 3406 4025 3406 3419 
Q 3406 3131 3298 2873 
Q 3191 2616 2906 2266 
Q 2828 2175 2409 1742 
Q 1991 1309 1228 531 
z
" transform="scale(0.015625)"/>
      </defs>
      <use xlink:href="#DejaVuSans-Oblique-3b1" transform="translate(0 0.390625)"/>
      <use xlink:href="#DejaVuSans-3d" transform="translate(85.400391 0.390625)"/>
      <use xlink:href="#DejaVuSans-31" transform="translate(188.671875 0.390625)"/>
      <use xlink:href="#DejaVuSans-2c" transform="translate(252.294922 0.390625)"/>
      <use xlink:href="#DejaVuSans-Oblique-3b2" transform="translate(336.034832 0.390625)"/>
      <use xlink:href="#DejaVuSans-3d" transform="translate(419.335613 0.390625)"/>
      <use xlink:href="#DejaVuSans-32" transform="translate(522.607097 0.390625)"/>
     </g>
    </g>
    <g id="line2d_27">
     <path d="M 955.474373 96.3595 
L 971.474373 96.3595 
L 987.474373 96.3595 
" style="fill: none; stroke: #b2df8a; stroke-opacity: 0.8; stroke-width: 3; stroke-linecap: square"/>
    </g>
    <g id="text_24">
     <!-- $\alpha = 1,\ \beta = 3$ -->
     <g style="fill: #e4e4e9; opacity: 0.819608" transform="translate(1000.274373 101.9595) scale(0.16 -0.16)">
      <defs>
       <path id="DejaVuSans-33" d="M 2597 2516 
Q 3050 2419 3304 2112 
Q 3559 1806 3559 1356 
Q 3559 666 3084 287 
Q 2609 -91 1734 -91 
Q 1441 -91 1130 -33 
Q 819 25 488 141 
L 488 750 
Q 750 597 1062 519 
Q 1375 441 1716 441 
Q 2309 441 2620 675 
Q 2931 909 2931 1356 
Q 2931 1769 2642 2001 
Q 2353 2234 1838 2234 
L 1294 2234 
L 1294 2753 
L 1863 2753 
Q 2328 2753 2575 2939 
Q 2822 3125 2822 3475 
Q 2822 3834 2567 4026 
Q 2313 4219 1838 4219 
Q 1578 4219 1281 4162 
Q 984 4106 628 3988 
L 628 4550 
Q 988 4650 1302 4700 
Q 1616 4750 1894 4750 
Q 2613 4750 3031 4423 
Q 3450 4097 3450 3541 
Q 3450 3153 3228 2886 
Q 3006 2619 2597 2516 
z
" transform="scale(0.015625)"/>
      </defs>
      <use xlink:href="#DejaVuSans-Oblique-3b1" transform="translate(0 0.390625)"/>
      <use xlink:href="#DejaVuSans-3d" transform="translate(85.400391 0.390625)"/>
      <use xlink:href="#DejaVuSans-31" transform="translate(188.671875 0.390625)"/>
      <use xlink:href="#DejaVuSans-2c" transform="translate(252.294922 0.390625)"/>
      <use xlink:href="#DejaVuSans-Oblique-3b2" transform="translate(336.034832 0.390625)"/>
      <use xlink:href="#DejaVuSans-3d" transform="translate(419.335613 0.390625)"/>
      <use xlink:href="#DejaVuSans-33" transform="translate(522.607097 0.390625)"/>
     </g>
    </g>
    <g id="line2d_28">
     <path d="M 955.474373 120.0395 
L 971.474373 120.0395 
L 987.474373 120.0395 
" style="fill: none; stroke: #33a02c; stroke-opacity: 0.8; stroke-width: 3; stroke-linecap: square"/>
    </g>
    <g id="text_25">
     <!-- $\alpha = 2,\ \beta = 1$ -->
     <g style="fill: #e4e4e9; opacity: 0.819608" transform="translate(1000.274373 125.6395) scale(0.16 -0.16)">
      <use xlink:href="#DejaVuSans-Oblique-3b1" transform="translate(0 0.390625)"/>
      <use xlink:href="#DejaVuSans-3d" transform="translate(85.400391 0.390625)"/>
      <use xlink:href="#DejaVuSans-32" transform="translate(188.671875 0.390625)"/>
      <use xlink:href="#DejaVuSans-2c" transform="translate(252.294922 0.390625)"/>
      <use xlink:href="#DejaVuSans-Oblique-3b2" transform="translate(336.034832 0.390625)"/>
      <use xlink:href="#DejaVuSans-3d" transform="translate(419.335613 0.390625)"/>
      <use xlink:href="#DejaVuSans-31" transform="translate(522.607097 0.390625)"/>
     </g>
    </g>
    <g id="line2d_29">
     <path d="M 955.474373 143.7195 
L 971.474373 143.7195 
L 987.474373 143.7195 
" style="fill: none; stroke: #fb9a99; stroke-opacity: 0.8; stroke-width: 3; stroke-linecap: square"/>
    </g>
    <g id="text_26">
     <!-- $\alpha = 3,\ \beta = 1$ -->
     <g style="fill: #e4e4e9; opacity: 0.819608" transform="translate(1000.274373 149.3195) scale(0.16 -0.16)">
      <use xlink:href="#DejaVuSans-Oblique-3b1" transform="translate(0 0.390625)"/>
      <use xlink:href="#DejaVuSans-3d" transform="translate(85.400391 0.390625)"/>
      <use xlink:href="#DejaVuSans-33" transform="translate(188.671875 0.390625)"/>
      <use xlink:href="#DejaVuSans-2c" transform="translate(252.294922 0.390625)"/>
      <use xlink:href="#DejaVuSans-Oblique-3b2" transform="translate(336.034832 0.390625)"/>
      <use xlink:href="#DejaVuSans-3d" transform="translate(419.335613 0.390625)"/>
      <use xlink:href="#DejaVuSans-31" transform="translate(522.607097 0.390625)"/>
     </g>
    </g>
    <g id="line2d_30">
     <path d="M 955.474373 167.3995 
L 971.474373 167.3995 
L 987.474373 167.3995 
" style="fill: none; stroke: #e31a1c; stroke-opacity: 0.8; stroke-width: 3; stroke-linecap: square"/>
    </g>
    <g id="text_27">
     <!-- $\alpha = 1/2,\ \beta = 2$ -->
     <g style="fill: #e4e4e9; opacity: 0.819608" transform="translate(1000.274373 172.9995) scale(0.16 -0.16)">
      <defs>
       <path id="DejaVuSans-2f" d="M 1625 4666 
L 2156 4666 
L 531 -594 
L 0 -594 
L 1625 4666 
z
" transform="scale(0.015625)"/>
      </defs>
      <use xlink:href="#DejaVuSans-Oblique-3b1" transform="translate(0 0.390625)"/>
      <use xlink:href="#DejaVuSans-3d" transform="translate(85.400391 0.390625)"/>
      <use xlink:href="#DejaVuSans-31" transform="translate(188.671875 0.390625)"/>
      <use xlink:href="#DejaVuSans-2f" transform="translate(252.294922 0.390625)"/>
      <use xlink:href="#DejaVuSans-32" transform="translate(282.361328 0.390625)"/>
      <use xlink:href="#DejaVuSans-2c" transform="translate(345.984375 0.390625)"/>
      <use xlink:href="#DejaVuSans-Oblique-3b2" transform="translate(429.724285 0.390625)"/>
      <use xlink:href="#DejaVuSans-3d" transform="translate(513.025066 0.390625)"/>
      <use xlink:href="#DejaVuSans-32" transform="translate(616.29655 0.390625)"/>
     </g>
    </g>
   </g>
  </g>
 </g>
 <defs>
  <clipPath id="pd5ef2802dd">
   <rect x="72.5385" y="27.927" width="1050.935873" height="553.775"/>
  </clipPath>
 </defs>
</svg>
