<?xml version="1.0" encoding="utf-8" standalone="no"?>
<!DOCTYPE svg PUBLIC "-//W3C//DTD SVG 1.1//EN"
  "http://www.w3.org/Graphics/SVG/1.1/DTD/svg11.dtd">
<svg xmlns:xlink="http://www.w3.org/1999/xlink" width="1145.421873pt" height="639.95775pt" viewBox="0 0 1145.421873 639.95775" xmlns="http://www.w3.org/2000/svg" version="1.1">
 <metadata>
  <rdf:RDF xmlns:dc="http://purl.org/dc/elements/1.1/" xmlns:cc="http://creativecommons.org/ns#" xmlns:rdf="http://www.w3.org/1999/02/22-rdf-syntax-ns#">
   <cc:Work>
    <dc:type rdf:resource="http://purl.org/dc/dcmitype/StillImage"/>
    <dc:date>2023-12-13T00:58:58.356534</dc:date>
    <dc:format>image/svg+xml</dc:format>
    <dc:creator>
     <cc:Agent>
      <dc:title>Matplotlib v3.8.2, https://matplotlib.org/</dc:title>
     </cc:Agent>
    </dc:creator>
   </cc:Work>
  </rdf:RDF>
 </metadata>
 <defs>
  <style type="text/css">*{stroke-linejoin: round; stroke-linecap: butt}</style>
 </defs>
 <g id="figure_1">
  <g id="patch_1">
   <path d="M 0 639.95775 
L 1145.421873 639.95775 
L 1145.421873 0 
L 0 0 
L 0 639.95775 
z
" style="fill: none"/>
  </g>
  <g id="axes_1">
   <g id="patch_2">
    <path d="M 63.611 581.702 
L 1127.878123 581.702 
L 1127.878123 27.927 
L 63.611 27.927 
L 63.611 581.702 
z
" style="fill: none"/>
   </g>
   <g id="matplotlib.axis_1">
    <g id="xtick_1">
     <g id="line2d_1">
      <defs>
       <path id="m5892b9d4ae" d="M 0 0 
L 0 3.5 
" style="stroke: #e4e4e9; stroke-opacity: 0.819608; stroke-width: 1.6"/>
      </defs>
      <g>
       <use xlink:href="#m5892b9d4ae" x="63.611" y="581.702" style="fill: #e4e4e9; fill-opacity: 0.819608; stroke: #e4e4e9; stroke-opacity: 0.819608; stroke-width: 1.6"/>
      </g>
     </g>
     <g id="text_1">
      <!-- −2.0 -->
      <g style="fill: #e4e4e9; opacity: 0.819608" transform="translate(49.26725 608.402) scale(0.16 -0.16)">
       <defs>
        <path id="FiraSans-Regular-2212" d="M 397 1882 
L 2803 1882 
L 2803 2374 
L 397 2374 
L 397 1882 
z
" transform="scale(0.015625)"/>
        <path id="FiraSans-Regular-32" d="M 1459 4346 
C 922 4346 506 4128 160 3699 
L 544 3392 
C 832 3718 1069 3859 1427 3859 
C 1843 3859 2131 3597 2131 3149 
C 2131 2451 1760 2042 250 467 
L 250 0 
L 2778 0 
L 2848 493 
L 922 493 
C 2234 1805 2746 2374 2746 3174 
C 2746 3840 2246 4346 1459 4346 
z
" transform="scale(0.015625)"/>
        <path id="FiraSans-Regular-2e" d="M 762 813 
C 512 813 320 614 320 371 
C 320 122 512 -77 762 -77 
C 1018 -77 1210 122 1210 371 
C 1210 614 1018 813 762 813 
z
" transform="scale(0.015625)"/>
        <path id="FiraSans-Regular-30" d="M 1786 4346 
C 826 4346 352 3558 352 2138 
C 352 717 826 -77 1786 -77 
C 2746 -77 3219 717 3219 2138 
C 3219 3552 2746 4346 1786 4346 
z
M 1786 3878 
C 2317 3878 2605 3392 2605 2138 
C 2605 877 2317 390 1786 390 
C 1248 390 966 877 966 2138 
C 966 3392 1248 3878 1786 3878 
z
" transform="scale(0.015625)"/>
       </defs>
       <use xlink:href="#FiraSans-Regular-2212"/>
       <use xlink:href="#FiraSans-Regular-32" x="49.999985"/>
       <use xlink:href="#FiraSans-Regular-2e" x="99.499969"/>
       <use xlink:href="#FiraSans-Regular-30" x="123.499954"/>
      </g>
     </g>
    </g>
    <g id="xtick_2">
     <g id="line2d_2">
      <g>
       <use xlink:href="#m5892b9d4ae" x="196.64439" y="581.702" style="fill: #e4e4e9; fill-opacity: 0.819608; stroke: #e4e4e9; stroke-opacity: 0.819608; stroke-width: 1.6"/>
      </g>
     </g>
     <g id="text_2">
      <!-- −1.5 -->
      <g style="fill: #e4e4e9; opacity: 0.819608" transform="translate(183.25314 608.402) scale(0.16 -0.16)">
       <defs>
        <path id="FiraSans-Regular-31" d="M 2067 4282 
L 1549 4282 
L 224 3462 
L 480 3046 
L 1478 3654 
L 1478 0 
L 2067 0 
L 2067 4282 
z
" transform="scale(0.015625)"/>
        <path id="FiraSans-Regular-35" d="M 2771 4282 
L 454 4282 
L 454 2125 
L 915 2125 
C 1120 2221 1293 2272 1523 2272 
C 1965 2272 2304 2042 2304 1382 
C 2304 755 1965 403 1427 403 
C 1056 403 781 538 512 806 
L 166 467 
C 499 128 890 -77 1434 -77 
C 2323 -77 2918 518 2918 1370 
C 2918 2221 2426 2726 1702 2726 
C 1472 2726 1242 2675 1018 2560 
L 1018 3821 
L 2688 3821 
L 2771 4282 
z
" transform="scale(0.015625)"/>
       </defs>
       <use xlink:href="#FiraSans-Regular-2212"/>
       <use xlink:href="#FiraSans-Regular-31" x="49.999985"/>
       <use xlink:href="#FiraSans-Regular-2e" x="93.299973"/>
       <use xlink:href="#FiraSans-Regular-35" x="117.299957"/>
      </g>
     </g>
    </g>
    <g id="xtick_3">
     <g id="line2d_3">
      <g>
       <use xlink:href="#m5892b9d4ae" x="329.677781" y="581.702" style="fill: #e4e4e9; fill-opacity: 0.819608; stroke: #e4e4e9; stroke-opacity: 0.819608; stroke-width: 1.6"/>
      </g>
     </g>
     <g id="text_3">
      <!-- −1.0 -->
      <g style="fill: #e4e4e9; opacity: 0.819608" transform="translate(315.830281 608.402) scale(0.16 -0.16)">
       <use xlink:href="#FiraSans-Regular-2212"/>
       <use xlink:href="#FiraSans-Regular-31" x="49.999985"/>
       <use xlink:href="#FiraSans-Regular-2e" x="93.299973"/>
       <use xlink:href="#FiraSans-Regular-30" x="117.299957"/>
      </g>
     </g>
    </g>
    <g id="xtick_4">
     <g id="line2d_4">
      <g>
       <use xlink:href="#m5892b9d4ae" x="462.711171" y="581.702" style="fill: #e4e4e9; fill-opacity: 0.819608; stroke: #e4e4e9; stroke-opacity: 0.819608; stroke-width: 1.6"/>
      </g>
     </g>
     <g id="text_4">
      <!-- −0.5 -->
      <g style="fill: #e4e4e9; opacity: 0.819608" transform="translate(448.319921 608.402) scale(0.16 -0.16)">
       <use xlink:href="#FiraSans-Regular-2212"/>
       <use xlink:href="#FiraSans-Regular-30" x="49.999985"/>
       <use xlink:href="#FiraSans-Regular-2e" x="105.799973"/>
       <use xlink:href="#FiraSans-Regular-35" x="129.799957"/>
      </g>
     </g>
    </g>
    <g id="xtick_5">
     <g id="line2d_5">
      <g>
       <use xlink:href="#m5892b9d4ae" x="595.744562" y="581.702" style="fill: #e4e4e9; fill-opacity: 0.819608; stroke: #e4e4e9; stroke-opacity: 0.819608; stroke-width: 1.6"/>
      </g>
     </g>
     <g id="text_5">
      <!-- 0.0 -->
      <g style="fill: #e4e4e9; opacity: 0.819608" transform="translate(584.897062 608.402) scale(0.16 -0.16)">
       <use xlink:href="#FiraSans-Regular-30"/>
       <use xlink:href="#FiraSans-Regular-2e" x="55.799988"/>
       <use xlink:href="#FiraSans-Regular-30" x="79.799973"/>
      </g>
     </g>
    </g>
    <g id="xtick_6">
     <g id="line2d_6">
      <g>
       <use xlink:href="#m5892b9d4ae" x="728.777952" y="581.702" style="fill: #e4e4e9; fill-opacity: 0.819608; stroke: #e4e4e9; stroke-opacity: 0.819608; stroke-width: 1.6"/>
      </g>
     </g>
     <g id="text_6">
      <!-- 0.5 -->
      <g style="fill: #e4e4e9; opacity: 0.819608" transform="translate(718.386702 608.402) scale(0.16 -0.16)">
       <use xlink:href="#FiraSans-Regular-30"/>
       <use xlink:href="#FiraSans-Regular-2e" x="55.799988"/>
       <use xlink:href="#FiraSans-Regular-35" x="79.799973"/>
      </g>
     </g>
    </g>
    <g id="xtick_7">
     <g id="line2d_7">
      <g>
       <use xlink:href="#m5892b9d4ae" x="861.811343" y="581.702" style="fill: #e4e4e9; fill-opacity: 0.819608; stroke: #e4e4e9; stroke-opacity: 0.819608; stroke-width: 1.6"/>
      </g>
     </g>
     <g id="text_7">
      <!-- 1.0 -->
      <g style="fill: #e4e4e9; opacity: 0.819608" transform="translate(851.963843 608.402) scale(0.16 -0.16)">
       <use xlink:href="#FiraSans-Regular-31"/>
       <use xlink:href="#FiraSans-Regular-2e" x="43.299988"/>
       <use xlink:href="#FiraSans-Regular-30" x="67.299973"/>
      </g>
     </g>
    </g>
    <g id="xtick_8">
     <g id="line2d_8">
      <g>
       <use xlink:href="#m5892b9d4ae" x="994.844733" y="581.702" style="fill: #e4e4e9; fill-opacity: 0.819608; stroke: #e4e4e9; stroke-opacity: 0.819608; stroke-width: 1.6"/>
      </g>
     </g>
     <g id="text_8">
      <!-- 1.5 -->
      <g style="fill: #e4e4e9; opacity: 0.819608" transform="translate(985.453483 608.402) scale(0.16 -0.16)">
       <use xlink:href="#FiraSans-Regular-31"/>
       <use xlink:href="#FiraSans-Regular-2e" x="43.299988"/>
       <use xlink:href="#FiraSans-Regular-35" x="67.299973"/>
      </g>
     </g>
    </g>
    <g id="xtick_9">
     <g id="line2d_9">
      <g>
       <use xlink:href="#m5892b9d4ae" x="1127.878123" y="581.702" style="fill: #e4e4e9; fill-opacity: 0.819608; stroke: #e4e4e9; stroke-opacity: 0.819608; stroke-width: 1.6"/>
      </g>
     </g>
     <g id="text_9">
      <!-- 2.0 -->
      <g style="fill: #e4e4e9; opacity: 0.819608" transform="translate(1117.534373 608.402) scale(0.16 -0.16)">
       <use xlink:href="#FiraSans-Regular-32"/>
       <use xlink:href="#FiraSans-Regular-2e" x="49.499985"/>
       <use xlink:href="#FiraSans-Regular-30" x="73.499969"/>
      </g>
     </g>
    </g>
    <g id="text_10">
     <!-- $X$ -->
     <g style="fill: #e4e4e9; opacity: 0.819608" transform="translate(589.672562 629.0095) scale(0.176 -0.176)">
      <defs>
       <path id="DejaVuSans-Oblique-58" d="M 878 4666 
L 1516 4666 
L 2316 2981 
L 3763 4666 
L 4500 4666 
L 2578 2438 
L 3738 0 
L 3103 0 
L 2163 1966 
L 459 0 
L -275 0 
L 1906 2509 
L 878 4666 
z
" transform="scale(0.015625)"/>
      </defs>
      <use xlink:href="#DejaVuSans-Oblique-58" transform="translate(0 0.09375)"/>
     </g>
    </g>
   </g>
   <g id="matplotlib.axis_2">
    <g id="ytick_1">
     <g id="line2d_10">
      <defs>
       <path id="m0d644928b0" d="M 0 0 
L -3.5 0 
" style="stroke: #e4e4e9; stroke-opacity: 0.819608; stroke-width: 1.6"/>
      </defs>
      <g>
       <use xlink:href="#m0d644928b0" x="63.611" y="581.702" style="fill: #e4e4e9; fill-opacity: 0.819608; stroke: #e4e4e9; stroke-opacity: 0.819608; stroke-width: 1.6"/>
      </g>
     </g>
     <g id="text_11">
      <!-- 0.0 -->
      <g style="fill: #e4e4e9; opacity: 0.819608" transform="translate(27.216 587.702) scale(0.16 -0.16)">
       <use xlink:href="#FiraSans-Regular-30"/>
       <use xlink:href="#FiraSans-Regular-2e" x="55.799988"/>
       <use xlink:href="#FiraSans-Regular-30" x="79.799973"/>
      </g>
     </g>
    </g>
    <g id="ytick_2">
     <g id="line2d_11">
      <g>
       <use xlink:href="#m0d644928b0" x="63.611" y="472.043584" style="fill: #e4e4e9; fill-opacity: 0.819608; stroke: #e4e4e9; stroke-opacity: 0.819608; stroke-width: 1.6"/>
      </g>
     </g>
     <g id="text_12">
      <!-- 0.2 -->
      <g style="fill: #e4e4e9; opacity: 0.819608" transform="translate(28.2235 478.043584) scale(0.16 -0.16)">
       <use xlink:href="#FiraSans-Regular-30"/>
       <use xlink:href="#FiraSans-Regular-2e" x="55.799988"/>
       <use xlink:href="#FiraSans-Regular-32" x="79.799973"/>
      </g>
     </g>
    </g>
    <g id="ytick_3">
     <g id="line2d_12">
      <g>
       <use xlink:href="#m0d644928b0" x="63.611" y="362.385168" style="fill: #e4e4e9; fill-opacity: 0.819608; stroke: #e4e4e9; stroke-opacity: 0.819608; stroke-width: 1.6"/>
      </g>
     </g>
     <g id="text_13">
      <!-- 0.4 -->
      <g style="fill: #e4e4e9; opacity: 0.819608" transform="translate(27.631 368.385168) scale(0.16 -0.16)">
       <defs>
        <path id="FiraSans-Regular-34" d="M 3213 1523 
L 2656 1523 
L 2656 2675 
L 2144 2675 
L 2093 1523 
L 877 1523 
L 2035 4141 
L 1542 4346 
L 256 1478 
L 256 1056 
L 2086 1056 
L 2086 0 
L 2656 0 
L 2656 1056 
L 3213 1056 
L 3213 1523 
z
" transform="scale(0.015625)"/>
       </defs>
       <use xlink:href="#FiraSans-Regular-30"/>
       <use xlink:href="#FiraSans-Regular-2e" x="55.799988"/>
       <use xlink:href="#FiraSans-Regular-34" x="79.799973"/>
      </g>
     </g>
    </g>
    <g id="ytick_4">
     <g id="line2d_13">
      <g>
       <use xlink:href="#m0d644928b0" x="63.611" y="252.726752" style="fill: #e4e4e9; fill-opacity: 0.819608; stroke: #e4e4e9; stroke-opacity: 0.819608; stroke-width: 1.6"/>
      </g>
     </g>
     <g id="text_14">
      <!-- 0.6 -->
      <g style="fill: #e4e4e9; opacity: 0.819608" transform="translate(27.616 258.726752) scale(0.16 -0.16)">
       <defs>
        <path id="FiraSans-Regular-36" d="M 1971 2816 
C 1568 2816 1222 2650 941 2253 
C 973 3232 1344 3878 1965 3878 
C 2202 3878 2426 3814 2624 3693 
L 2854 4083 
C 2605 4250 2317 4346 1971 4346 
C 960 4346 352 3411 352 2010 
C 352 781 749 -77 1792 -77 
C 2547 -77 3155 518 3155 1453 
C 3155 2368 2598 2816 1971 2816 
z
M 1792 390 
C 1222 390 973 826 947 1760 
C 1165 2112 1485 2349 1869 2349 
C 2272 2349 2560 2112 2560 1434 
C 2560 806 2298 390 1792 390 
z
" transform="scale(0.015625)"/>
       </defs>
       <use xlink:href="#FiraSans-Regular-30"/>
       <use xlink:href="#FiraSans-Regular-2e" x="55.799988"/>
       <use xlink:href="#FiraSans-Regular-36" x="79.799973"/>
      </g>
     </g>
    </g>
    <g id="ytick_5">
     <g id="line2d_14">
      <g>
       <use xlink:href="#m0d644928b0" x="63.611" y="143.068337" style="fill: #e4e4e9; fill-opacity: 0.819608; stroke: #e4e4e9; stroke-opacity: 0.819608; stroke-width: 1.6"/>
      </g>
     </g>
     <g id="text_15">
      <!-- 0.8 -->
      <g style="fill: #e4e4e9; opacity: 0.819608" transform="translate(27.3285 149.068337) scale(0.16 -0.16)">
       <defs>
        <path id="FiraSans-Regular-38" d="M 2336 2298 
C 2822 2541 3066 2829 3066 3264 
C 3066 3994 2406 4346 1766 4346 
C 1114 4346 467 3968 467 3245 
C 467 2803 672 2477 1133 2246 
C 608 2016 288 1683 288 1133 
C 288 429 870 -77 1754 -77 
C 2624 -77 3238 429 3238 1146 
C 3238 1683 2925 2061 2336 2298 
z
M 1766 3904 
C 2234 3904 2490 3642 2490 3245 
C 2490 2880 2330 2656 1946 2438 
L 1837 2477 
C 1344 2637 1043 2797 1043 3238 
C 1043 3667 1325 3904 1766 3904 
z
M 1760 390 
C 1229 390 902 666 902 1133 
C 902 1600 1107 1894 1530 2099 
L 1690 2042 
C 2381 1805 2624 1600 2624 1139 
C 2624 691 2298 390 1760 390 
z
" transform="scale(0.015625)"/>
       </defs>
       <use xlink:href="#FiraSans-Regular-30"/>
       <use xlink:href="#FiraSans-Regular-2e" x="55.799988"/>
       <use xlink:href="#FiraSans-Regular-38" x="79.799973"/>
      </g>
     </g>
    </g>
    <g id="ytick_6">
     <g id="line2d_15">
      <g>
       <use xlink:href="#m0d644928b0" x="63.611" y="33.409921" style="fill: #e4e4e9; fill-opacity: 0.819608; stroke: #e4e4e9; stroke-opacity: 0.819608; stroke-width: 1.6"/>
      </g>
     </g>
     <g id="text_16">
      <!-- 1.0 -->
      <g style="fill: #e4e4e9; opacity: 0.819608" transform="translate(29.216 39.409921) scale(0.16 -0.16)">
       <use xlink:href="#FiraSans-Regular-31"/>
       <use xlink:href="#FiraSans-Regular-2e" x="43.299988"/>
       <use xlink:href="#FiraSans-Regular-30" x="67.299973"/>
      </g>
     </g>
    </g>
    <g id="text_17">
     <!-- $f(X)$ -->
     <g style="fill: #e4e4e9; opacity: 0.819608" transform="translate(7.2 301.06625) scale(0.176 -0.176)">
      <defs>
       <path id="DejaVuSans-Oblique-66" d="M 3059 4863 
L 2969 4384 
L 2419 4384 
Q 2106 4384 1964 4261 
Q 1822 4138 1753 3809 
L 1691 3500 
L 2638 3500 
L 2553 3053 
L 1606 3053 
L 1013 0 
L 434 0 
L 1031 3053 
L 481 3053 
L 563 3500 
L 1113 3500 
L 1159 3744 
Q 1278 4363 1576 4613 
Q 1875 4863 2516 4863 
L 3059 4863 
z
" transform="scale(0.015625)"/>
       <path id="DejaVuSans-28" d="M 1984 4856 
Q 1566 4138 1362 3434 
Q 1159 2731 1159 2009 
Q 1159 1288 1364 580 
Q 1569 -128 1984 -844 
L 1484 -844 
Q 1016 -109 783 600 
Q 550 1309 550 2009 
Q 550 2706 781 3412 
Q 1013 4119 1484 4856 
L 1984 4856 
z
" transform="scale(0.015625)"/>
       <path id="DejaVuSans-29" d="M 513 4856 
L 1013 4856 
Q 1481 4119 1714 3412 
Q 1947 2706 1947 2009 
Q 1947 1309 1714 600 
Q 1481 -109 1013 -844 
L 513 -844 
Q 928 -128 1133 580 
Q 1338 1288 1338 2009 
Q 1338 2731 1133 3434 
Q 928 4138 513 4856 
z
" transform="scale(0.015625)"/>
      </defs>
      <use xlink:href="#DejaVuSans-Oblique-66" transform="translate(0 0.015625)"/>
      <use xlink:href="#DejaVuSans-28" transform="translate(35.205078 0.015625)"/>
      <use xlink:href="#DejaVuSans-Oblique-58" transform="translate(74.21875 0.015625)"/>
      <use xlink:href="#DejaVuSans-29" transform="translate(142.724609 0.015625)"/>
     </g>
    </g>
   </g>
   <g id="line2d_16">
    <path d="M 63.611 581.702 
L 71.068327 574.17614 
L 78.525654 566.952899 
L 85.982982 560.014909 
L 93.440309 553.347612 
L 101.962968 546.043701 
L 110.485628 539.06223 
L 119.008288 532.3907 
L 127.530947 526.018817 
L 136.053607 519.938087 
L 144.576267 514.141489 
L 153.098926 508.62319 
L 161.621586 503.378307 
L 170.144246 498.402709 
L 178.666905 493.692835 
L 187.189565 489.245545 
L 195.712225 485.057981 
L 204.234884 481.127449 
L 212.757544 477.451314 
L 221.280203 474.026906 
L 229.802863 470.851437 
L 238.325523 467.92193 
L 246.848182 465.235156 
L 255.370842 462.787584 
L 263.893502 460.575337 
L 272.416161 458.594158 
L 280.938821 456.839387 
L 289.461481 455.305945 
L 297.98414 453.988327 
L 306.5068 452.880605 
L 315.02946 451.976436 
L 324.617452 451.194154 
L 334.205444 450.650803 
L 343.793436 450.33569 
L 353.381428 450.237651 
L 362.96942 450.345123 
L 373.622745 450.691111 
L 384.276069 451.25953 
L 395.994726 452.121626 
L 407.713383 453.210076 
L 420.497373 454.629471 
L 434.346695 456.408338 
L 449.261349 458.565553 
L 465.241336 461.108739 
L 483.351988 464.22211 
L 504.658637 468.116858 
L 533.422613 473.620876 
L 620.779874 490.493454 
L 649.543851 495.742156 
L 676.177162 500.378285 
L 701.745141 504.606203 
L 727.31312 508.606809 
L 752.881099 512.378242 
L 778.449078 515.92371 
L 804.017057 519.249961 
L 830.650368 522.491521 
L 858.349012 525.633727 
L 887.112988 528.664915 
L 916.942297 531.576284 
L 947.836938 534.361684 
L 979.796912 537.01735 
L 1012.822218 539.541607 
L 1047.978189 542.006088 
L 1085.264825 544.393969 
L 1124.682126 546.692028 
L 1127.878123 546.86895 
L 1127.878123 546.86895 
" clip-path="url(#p080d129119)" style="fill: none; stroke: #a6cee3; stroke-opacity: 0.8; stroke-width: 3; stroke-linecap: square"/>
   </g>
   <g id="line2d_17">
    <path d="M 63.611 581.702 
L 71.068327 574.176115 
L 78.525654 566.952521 
L 85.982982 560.013096 
L 94.505641 552.410278 
L 103.028301 545.138081 
L 111.550961 538.179276 
L 120.07362 531.51906 
L 128.59628 525.144647 
L 137.118939 519.044951 
L 145.641599 513.210308 
L 154.164259 507.632258 
L 162.686918 502.30335 
L 171.209578 497.216983 
L 179.732238 492.367272 
L 188.254897 487.748923 
L 196.777557 483.357142 
L 206.365549 478.681749 
L 215.953541 474.281789 
L 225.541533 470.151901 
L 235.129525 466.287023 
L 244.717517 462.682299 
L 254.30551 459.332999 
L 263.893502 456.234455 
L 273.481494 453.381993 
L 283.069486 450.770889 
L 292.657478 448.396323 
L 302.24547 446.25334 
L 311.833462 444.336827 
L 321.421454 442.641485 
L 331.009446 441.161812 
L 340.597439 439.892096 
L 350.185431 438.826404 
L 360.838755 437.874098 
L 371.49208 437.157323 
L 382.145404 436.667013 
L 392.798729 436.39381 
L 403.452053 436.328091 
L 415.17071 436.48368 
L 426.889367 436.86502 
L 438.608024 437.458522 
L 451.392014 438.331817 
L 464.176003 439.423367 
L 478.025325 440.831463 
L 492.93998 442.585098 
L 508.919967 444.7064 
L 525.965286 447.209228 
L 544.075938 450.098062 
L 564.317254 453.554281 
L 587.754568 457.784925 
L 617.583877 463.406133 
L 680.438492 475.555943 
L 721.986458 483.447528 
L 755.011764 489.493095 
L 784.841073 494.726743 
L 813.605049 499.54279 
L 841.303693 503.952793 
L 869.002337 508.133416 
L 896.70098 512.08398 
L 924.399624 515.807726 
L 952.098268 519.310763 
L 980.862245 522.723651 
L 1010.691553 526.032167 
L 1040.520862 529.118443 
L 1071.415503 532.094916 
L 1103.375477 534.954125 
L 1127.878123 537.004755 
L 1127.878123 537.004755 
" clip-path="url(#p080d129119)" style="fill: none; stroke: #1f78b4; stroke-opacity: 0.8; stroke-width: 3; stroke-linecap: square"/>
   </g>
   <g id="line2d_18">
    <path d="M 63.611 581.702 
L 71.068327 574.17609 
L 78.525654 566.952143 
L 85.982982 560.011284 
L 94.505641 552.404072 
L 103.028301 545.122553 
L 111.550961 538.14714 
L 120.07362 531.460467 
L 128.59628 525.047075 
L 137.118939 518.893148 
L 145.641599 512.986288 
L 155.229591 506.622543 
L 164.817583 500.543127 
L 174.405575 494.735258 
L 183.993568 489.187444 
L 193.58156 483.88931 
L 203.169552 478.831459 
L 212.757544 474.005345 
L 223.410868 468.905326 
L 234.064193 464.072037 
L 244.717517 459.496595 
L 255.370842 455.170871 
L 266.024167 451.087393 
L 276.677491 447.239261 
L 287.330816 443.620074 
L 297.98414 440.223865 
L 308.637465 437.045045 
L 320.356122 433.793155 
L 332.074779 430.791334 
L 343.793436 428.033323 
L 355.512093 425.513162 
L 367.23075 423.225138 
L 378.949407 421.163745 
L 390.668064 419.323641 
L 402.386721 417.699621 
L 414.105378 416.286578 
L 426.889367 414.979789 
L 439.673357 413.91164 
L 452.457346 413.075712 
L 465.241336 412.465602 
L 478.025325 412.074896 
L 490.809315 411.897149 
L 504.658637 411.937374 
L 518.507959 412.211567 
L 532.357281 412.711285 
L 546.206603 413.427971 
L 561.121257 414.432472 
L 576.035911 415.66753 
L 590.950566 417.12197 
L 606.930552 418.910863 
L 622.910539 420.924442 
L 639.955859 423.303783 
L 657.001178 425.904925 
L 675.11183 428.891873 
L 694.287814 432.281978 
L 714.529131 436.086764 
L 736.901112 440.527433 
L 761.403759 445.629255 
L 789.102402 451.634404 
L 822.127709 459.029528 
L 874.328999 470.979674 
L 935.052949 484.822176 
L 971.274252 492.845025 
L 1002.168894 499.46682 
L 1030.93287 505.408519 
L 1058.631514 510.90017 
L 1085.264825 515.950095 
L 1110.832804 520.574027 
L 1127.878123 523.531053 
L 1127.878123 523.531053 
" clip-path="url(#p080d129119)" style="fill: none; stroke: #b2df8a; stroke-opacity: 0.8; stroke-width: 3; stroke-linecap: square"/>
   </g>
   <g id="line2d_19">
    <path d="M 63.611 581.702 
L 70.801994 574.439533 
L 78.791987 566.699082 
L 86.781981 559.281625 
L 94.771974 552.165307 
L 102.761968 545.330286 
L 111.550961 538.115161 
L 120.339953 531.196755 
L 129.128946 524.555275 
L 138.716938 517.604754 
L 148.30493 510.941205 
L 157.892922 504.545408 
L 168.279914 497.898562 
L 178.666905 491.525329 
L 189.053897 485.407437 
L 200.239887 479.085482 
L 211.425878 473.021587 
L 222.611869 467.198659 
L 234.596859 461.209571 
L 246.581849 455.46189 
L 259.365839 449.579345 
L 272.149828 443.936109 
L 285.732817 438.184736 
L 299.315806 432.668509 
L 313.697794 427.066786 
L 328.878782 421.402363 
L 344.059769 415.975628 
L 360.039756 410.502303 
L 376.818742 405.000834 
L 393.597728 399.733332 
L 411.175714 394.44839 
L 429.552699 389.160689 
L 448.728683 383.8835 
L 467.904667 378.834397 
L 487.879651 373.800254 
L 508.653633 368.791407 
L 530.226616 363.817059 
L 552.598597 358.885332 
L 575.769578 354.003345 
L 599.739558 349.177278 
L 624.508538 344.412445 
L 650.875516 339.56993 
L 678.041494 334.809951 
L 706.006471 330.134728 
L 735.569447 325.421478 
L 765.931422 320.807284 
L 797.891395 316.179004 
L 830.650368 311.659699 
L 861.811343 307.55596 
L 861.811343 307.55596 
" clip-path="url(#p080d129119)" style="fill: none; stroke: #33a02c; stroke-opacity: 0.8; stroke-width: 3; stroke-linecap: square"/>
   </g>
   <g id="line2d_20">
    <path d="M 63.611 581.702 
L 70.935161 574.307728 
L 78.925154 566.572457 
L 86.915147 559.158498 
L 94.905141 552.042653 
L 103.560967 544.645339 
L 112.216793 537.547433 
L 120.87262 530.725659 
L 130.194278 523.663359 
L 139.515937 516.871761 
L 149.503429 509.869725 
L 160.156754 502.685966 
L 170.810078 495.768731 
L 182.129236 488.682238 
L 194.114226 481.443421 
L 206.765049 474.064325 
L 220.081704 466.551861 
L 234.730026 458.549177 
L 250.710013 450.082497 
L 268.021665 441.163919 
L 287.996649 431.126709 
L 313.298294 418.6795 
L 401.188222 375.686513 
L 421.163206 365.527346 
L 438.474858 356.473565 
L 453.789012 348.222057 
L 468.437333 340.073277 
L 481.753989 332.410981 
L 494.404812 324.873355 
L 506.389802 317.468225 
L 517.708959 310.208262 
L 528.362284 303.110826 
L 538.349776 296.197803 
L 548.337267 289.006754 
L 557.658926 282.017979 
L 566.314753 275.264539 
L 574.970579 268.232076 
L 582.960572 261.469408 
L 590.950566 254.421846 
L 598.940559 247.062592 
L 606.26472 240.017153 
L 613.58888 232.658538 
L 620.247208 225.672637 
L 626.905536 218.379291 
L 633.563864 210.751044 
L 640.222192 202.757064 
L 646.214687 195.221135 
L 652.207182 187.332344 
L 658.199677 179.058667 
L 663.526339 171.352082 
L 668.853001 163.284409 
L 674.179664 154.823678 
L 679.506326 145.9339 
L 684.832988 136.574388 
L 689.493818 127.963318 
L 694.154647 118.922325 
L 698.815477 109.411957 
L 703.476306 99.387566 
L 708.137136 88.798382 
L 712.797965 77.586395 
L 716.792962 67.430171 
L 720.787959 56.719647 
L 724.782955 45.40032 
L 728.777952 33.409921 
L 728.777952 33.409921 
" clip-path="url(#p080d129119)" style="fill: none; stroke: #fb9a99; stroke-opacity: 0.8; stroke-width: 3; stroke-linecap: square"/>
   </g>
   <g id="line2d_21">
    <path d="M 63.611 536.344956 
L 212.757544 525.67243 
L 251.109512 523.227819 
L 284.134818 521.344104 
L 313.964127 519.867027 
L 341.662771 518.72056 
L 367.23075 517.878315 
L 392.798729 517.260742 
L 417.301375 516.890699 
L 441.804022 516.743403 
L 466.306668 516.819327 
L 490.809315 517.113872 
L 516.377294 517.644118 
L 543.010605 518.421905 
L 570.709249 519.451209 
L 601.60389 520.829382 
L 635.694529 522.581523 
L 675.11183 524.835358 
L 727.31312 528.057227 
L 898.831645 538.81187 
L 955.294266 542.036316 
L 1008.560888 544.858928 
L 1061.827511 547.460266 
L 1116.159466 549.889376 
L 1127.878123 550.384583 
L 1127.878123 550.384583 
" clip-path="url(#p080d129119)" style="fill: none; stroke-dasharray: 11.1,4.8; stroke-dashoffset: 0; stroke: #a6cee3; stroke-opacity: 0.8; stroke-width: 3"/>
   </g>
   <g id="line2d_22">
    <path d="M 63.611 533.747461 
L 108.354963 529.744302 
L 159.490921 524.939328 
L 315.02946 510.141304 
L 348.054766 507.344506 
L 376.818742 505.1339 
L 402.386721 503.388275 
L 426.889367 501.942125 
L 449.261349 500.83918 
L 471.633331 499.962412 
L 492.93998 499.350926 
L 514.246629 498.966665 
L 535.553278 498.81476 
L 556.859927 498.896301 
L 578.166576 499.208301 
L 599.473225 499.743843 
L 621.845207 500.535175 
L 644.217188 501.545383 
L 668.719835 502.880325 
L 694.287814 504.498365 
L 723.05179 506.551233 
L 755.011764 509.062469 
L 793.363732 512.305245 
L 849.826352 517.326757 
L 947.836938 526.049166 
L 997.907564 530.264722 
L 1043.716859 533.901206 
L 1087.39549 537.149607 
L 1127.878123 539.962388 
L 1127.878123 539.962388 
" clip-path="url(#p080d129119)" style="fill: none; stroke-dasharray: 11.1,4.8; stroke-dashoffset: 0; stroke: #1f78b4; stroke-opacity: 0.8; stroke-width: 3"/>
   </g>
   <g id="line2d_23">
    <path d="M 63.611 531.316989 
L 96.636306 527.858497 
L 129.661612 524.174248 
L 162.686918 520.26448 
L 196.777557 515.998211 
L 231.933528 511.368662 
L 270.285496 506.083952 
L 315.02946 499.682095 
L 433.281362 482.624581 
L 463.110671 478.633053 
L 488.67865 475.436859 
L 511.050631 472.85873 
L 532.357281 470.630781 
L 551.533265 468.843557 
L 569.643917 467.367221 
L 587.754568 466.115393 
L 604.799888 465.157474 
L 621.845207 464.425883 
L 637.825194 463.954958 
L 653.805181 463.699164 
L 669.785167 463.663597 
L 685.765154 463.851394 
L 701.745141 464.263647 
L 717.725128 464.899372 
L 733.705115 465.755515 
L 749.685102 466.827006 
L 766.730421 468.199386 
L 783.77574 469.798105 
L 801.886392 471.730419 
L 819.997044 473.886264 
L 839.173028 476.390965 
L 859.414345 479.255647 
L 881.786326 482.649451 
L 906.288973 486.592006 
L 935.052949 491.448184 
L 973.404917 498.163544 
L 1070.350171 515.238388 
L 1104.440809 520.964491 
L 1127.878123 524.755085 
L 1127.878123 524.755085 
" clip-path="url(#p080d129119)" style="fill: none; stroke-dasharray: 11.1,4.8; stroke-dashoffset: 0; stroke: #b2df8a; stroke-opacity: 0.8; stroke-width: 3"/>
   </g>
   <g id="line2d_24">
    <path d="M 63.611 529.091915 
L 90.776978 525.864702 
L 117.143956 522.514 
L 142.711935 519.04597 
L 167.480914 515.468263 
L 192.249894 511.663628 
L 216.219874 507.754052 
L 239.390855 503.75133 
L 262.561836 499.51889 
L 284.933818 495.205377 
L 307.305799 490.660445 
L 328.878782 486.051417 
L 350.451764 481.213701 
L 372.024746 476.141772 
L 392.798729 471.032042 
L 413.572712 465.69776 
L 434.346695 460.136926 
L 455.120678 454.348805 
L 475.89466 448.334066 
L 496.668643 442.09492 
L 518.241626 435.38246 
L 539.814608 428.438548 
L 562.186589 421.002097 
L 585.35757 413.060106 
L 609.327551 404.604406 
L 634.09653 395.632876 
L 661.262508 385.551305 
L 690.825483 374.338137 
L 725.182455 361.062905 
L 773.122416 342.275755 
L 852.22335 311.268665 
L 861.811343 307.55596 
L 861.811343 307.55596 
" clip-path="url(#p080d129119)" style="fill: none; stroke-dasharray: 11.1,4.8; stroke-dashoffset: 0; stroke: #33a02c; stroke-opacity: 0.8; stroke-width: 3"/>
   </g>
   <g id="line2d_25">
    <path d="M 63.611 527.095295 
L 87.58098 523.944649 
L 110.885128 520.660474 
L 133.523442 517.243439 
L 154.830092 513.806093 
L 175.470908 510.25462 
L 195.445891 506.593373 
L 214.755042 502.827714 
L 233.39836 498.964057 
L 251.375845 495.009924 
L 268.687498 490.973983 
L 285.333317 486.866096 
L 301.313304 482.697347 
L 316.627458 478.480078 
L 331.941612 474.029307 
L 346.589934 469.537465 
L 360.572422 465.020071 
L 373.889078 460.494059 
L 387.205733 455.73395 
L 399.856556 450.979312 
L 412.507379 445.98141 
L 424.492369 441.005645 
L 435.811527 436.075277 
L 447.130684 430.904031 
L 457.784009 425.800881 
L 468.437333 420.45182 
L 478.424825 415.197281 
L 488.412317 409.69333 
L 497.733976 404.314599 
L 507.055635 398.684954 
L 516.377294 392.785276 
L 525.03312 387.046558 
L 533.688946 381.037446 
L 541.67894 375.232113 
L 549.668933 369.159376 
L 557.658926 362.798248 
L 564.983087 356.693835 
L 572.307248 350.307092 
L 579.631408 343.615357 
L 586.289736 337.245952 
L 592.948064 330.582095 
L 599.606392 323.599838 
L 606.26472 316.27229 
L 612.257215 309.357294 
L 618.24971 302.113247 
L 624.242205 294.512247 
L 630.2347 286.522847 
L 635.561362 279.066426 
L 640.888025 271.246863 
L 646.214687 263.032424 
L 651.541349 254.387253 
L 656.868011 245.270653 
L 661.528841 236.870586 
L 666.18967 228.038843 
L 670.8505 218.735474 
L 675.511329 208.91506 
L 680.172159 198.525716 
L 684.167156 189.122813 
L 688.162152 179.215442 
L 692.157149 168.754901 
L 696.152146 157.685566 
L 700.147142 145.943568 
L 704.142139 133.455159 
L 708.137136 120.134646 
L 711.4663 108.326771 
L 714.795464 95.80442 
L 718.124628 82.489968 
L 721.453791 68.293371 
L 724.782955 53.109484 
L 728.112119 36.814642 
L 728.777952 33.409921 
L 728.777952 33.409921 
" clip-path="url(#p080d129119)" style="fill: none; stroke-dasharray: 11.1,4.8; stroke-dashoffset: 0; stroke: #fb9a99; stroke-opacity: 0.8; stroke-width: 3"/>
   </g>
   <g id="patch_3">
    <path d="M 63.611 581.702 
L 63.611 27.927 
" style="fill: none; stroke: #ffffff; stroke-width: 0.8; stroke-linejoin: miter; stroke-linecap: square"/>
   </g>
   <g id="patch_4">
    <path d="M 63.611 581.702 
L 1127.878123 581.702 
" style="fill: none; stroke: #ffffff; stroke-width: 0.8; stroke-linejoin: miter; stroke-linecap: square"/>
   </g>
   <g id="text_18">
    <!-- PDF of $X \sim \mathrm{GLD}(\beta, \delta, \phi = 0)$ -->
    <g style="fill: #e4e4e9; opacity: 0.819608" transform="translate(473.248562 21.927) scale(0.192 -0.192)">
     <defs>
      <path id="FiraSans-Regular-50" d="M 1798 4410 
L 640 4410 
L 640 0 
L 1248 0 
L 1248 1619 
L 1805 1619 
C 2778 1619 3514 2035 3514 3046 
C 3514 3974 2861 4410 1798 4410 
z
M 1779 2099 
L 1248 2099 
L 1248 3936 
L 1792 3936 
C 2445 3936 2867 3699 2867 3040 
C 2867 2291 2432 2099 1779 2099 
z
" transform="scale(0.015625)"/>
      <path id="FiraSans-Regular-44" d="M 1562 4410 
L 640 4410 
L 640 0 
L 1696 0 
C 2650 0 3770 429 3770 2227 
C 3770 4058 2688 4410 1562 4410 
z
M 1696 3923 
C 2400 3923 3123 3718 3123 2227 
C 3123 774 2432 480 1741 480 
L 1248 480 
L 1248 3923 
L 1696 3923 
z
" transform="scale(0.015625)"/>
      <path id="FiraSans-Regular-46" d="M 640 0 
L 1248 0 
L 1248 1939 
L 2688 1939 
L 2688 2419 
L 1248 2419 
L 1248 3923 
L 2912 3923 
L 2982 4410 
L 640 4410 
L 640 0 
z
" transform="scale(0.015625)"/>
      <path id="FiraSans-Regular-20" transform="scale(0.015625)"/>
      <path id="FiraSans-Regular-6f" d="M 1875 3450 
C 915 3450 365 2726 365 1683 
C 365 614 909 -77 1869 -77 
C 2822 -77 3373 646 3373 1690 
C 3373 2758 2835 3450 1875 3450 
z
M 1875 2976 
C 2432 2976 2739 2566 2739 1690 
C 2739 806 2432 397 1869 397 
C 1306 397 998 806 998 1683 
C 998 2566 1312 2976 1875 2976 
z
" transform="scale(0.015625)"/>
      <path id="FiraSans-Regular-66" d="M 1754 4326 
C 1926 4326 2125 4294 2342 4198 
L 2528 4627 
C 2259 4742 2042 4800 1722 4800 
C 1037 4800 666 4397 666 3834 
L 666 3373 
L 64 3373 
L 64 2918 
L 666 2918 
L 666 0 
L 1254 0 
L 1254 2918 
L 2010 2918 
L 2074 3373 
L 1254 3373 
L 1254 3840 
C 1254 4166 1382 4326 1754 4326 
z
" transform="scale(0.015625)"/>
      <path id="DejaVuSans-223c" d="M 4684 2556 
L 4684 1997 
Q 4356 1753 4076 1645 
Q 3797 1538 3494 1538 
Q 3150 1538 2694 1722 
Q 2663 1734 2641 1744 
Q 2622 1750 2575 1769 
Q 2091 1959 1797 1959 
Q 1522 1959 1253 1840 
Q 984 1722 678 1459 
L 678 2019 
Q 1006 2263 1286 2370 
Q 1566 2478 1869 2478 
Q 2213 2478 2672 2294 
Q 2706 2278 2722 2272 
Q 2741 2266 2788 2247 
Q 3272 2056 3566 2056 
Q 3834 2056 4098 2173 
Q 4363 2291 4684 2556 
z
" transform="scale(0.015625)"/>
      <path id="DejaVuSans-47" d="M 3809 666 
L 3809 1919 
L 2778 1919 
L 2778 2438 
L 4434 2438 
L 4434 434 
Q 4069 175 3628 42 
Q 3188 -91 2688 -91 
Q 1594 -91 976 548 
Q 359 1188 359 2328 
Q 359 3472 976 4111 
Q 1594 4750 2688 4750 
Q 3144 4750 3555 4637 
Q 3966 4525 4313 4306 
L 4313 3634 
Q 3963 3931 3569 4081 
Q 3175 4231 2741 4231 
Q 1884 4231 1454 3753 
Q 1025 3275 1025 2328 
Q 1025 1384 1454 906 
Q 1884 428 2741 428 
Q 3075 428 3337 486 
Q 3600 544 3809 666 
z
" transform="scale(0.015625)"/>
      <path id="DejaVuSans-4c" d="M 628 4666 
L 1259 4666 
L 1259 531 
L 3531 531 
L 3531 0 
L 628 0 
L 628 4666 
z
" transform="scale(0.015625)"/>
      <path id="DejaVuSans-44" d="M 1259 4147 
L 1259 519 
L 2022 519 
Q 2988 519 3436 956 
Q 3884 1394 3884 2338 
Q 3884 3275 3436 3711 
Q 2988 4147 2022 4147 
L 1259 4147 
z
M 628 4666 
L 1925 4666 
Q 3281 4666 3915 4102 
Q 4550 3538 4550 2338 
Q 4550 1131 3912 565 
Q 3275 0 1925 0 
L 628 0 
L 628 4666 
z
" transform="scale(0.015625)"/>
      <path id="DejaVuSans-Oblique-3b2" d="M 872 216 
L 572 -1331 
L -6 -1331 
L 928 3478 
Q 1206 4903 2538 4903 
Q 3888 4903 3659 3700 
Q 3503 2844 2894 2531 
Q 3713 2250 3553 1416 
Q 3272 -69 1759 -66 
Q 1097 -63 872 216 
z
M 1019 966 
Q 1259 422 1875 425 
Q 2775 425 2966 1406 
Q 3138 2288 1675 2219 
L 1778 2750 
Q 2909 2731 3106 3750 
Q 3241 4438 2509 4434 
Q 1691 4434 1503 3459 
L 1019 966 
z
" transform="scale(0.015625)"/>
      <path id="DejaVuSans-2c" d="M 750 794 
L 1409 794 
L 1409 256 
L 897 -744 
L 494 -744 
L 750 256 
L 750 794 
z
" transform="scale(0.015625)"/>
      <path id="DejaVuSans-Oblique-3b4" d="M 3472 4053 
Q 3197 4272 2450 4272 
Q 1659 4272 1588 3906 
Q 1531 3619 2328 3469 
Q 2953 3353 3253 3003 
Q 3616 2581 3447 1716 
Q 3284 888 2763 400 
Q 2238 -91 1488 -91 
Q 741 -91 406 400 
Q 72 888 241 1747 
Q 363 2384 891 2900 
Q 1097 3100 1353 3213 
Q 913 3459 1000 3900 
Q 1166 4750 2544 4750 
Q 3234 4750 3566 4531 
L 3472 4053 
z
M 1753 3056 
Q 1525 2966 1306 2738 
Q 969 2384 847 1747 
Q 722 1113 919 756 
Q 1119 397 1584 397 
Q 2044 397 2381 759 
Q 2722 1122 2838 1716 
Q 2956 2338 2731 2638 
Q 2491 2959 2103 2994 
Q 1906 3013 1753 3056 
z
" transform="scale(0.015625)"/>
      <path id="DejaVuSans-Oblique-3d5" d="M 2991 4863 
L 2738 3572 
Q 3363 3572 3684 3094 
Q 4016 2606 3850 1747 
Q 3681 888 3159 400 
Q 2653 -78 2028 -78 
L 1784 -1331 
L 1213 -1331 
L 1456 -78 
Q 834 -78 509 400 
Q 178 888 347 1747 
Q 513 2606 1034 3094 
Q 1544 3572 2166 3572 
L 2419 4863 
L 2991 4863 
z
M 2128 434 
Q 2481 434 2784 756 
Q 3116 1116 3244 1747 
Q 3369 2372 3169 2738 
Q 2991 3059 2638 3059 
L 2128 434 
z
M 1556 434 
L 2066 3059 
Q 1716 3059 1413 2738 
Q 1072 2372 953 1747 
Q 834 1116 1028 756 
Q 1203 434 1556 434 
z
" transform="scale(0.015625)"/>
      <path id="DejaVuSans-3d" d="M 678 2906 
L 4684 2906 
L 4684 2381 
L 678 2381 
L 678 2906 
z
M 678 1631 
L 4684 1631 
L 4684 1100 
L 678 1100 
L 678 1631 
z
" transform="scale(0.015625)"/>
      <path id="DejaVuSans-30" d="M 2034 4250 
Q 1547 4250 1301 3770 
Q 1056 3291 1056 2328 
Q 1056 1369 1301 889 
Q 1547 409 2034 409 
Q 2525 409 2770 889 
Q 3016 1369 3016 2328 
Q 3016 3291 2770 3770 
Q 2525 4250 2034 4250 
z
M 2034 4750 
Q 2819 4750 3233 4129 
Q 3647 3509 3647 2328 
Q 3647 1150 3233 529 
Q 2819 -91 2034 -91 
Q 1250 -91 836 529 
Q 422 1150 422 2328 
Q 422 3509 836 4129 
Q 1250 4750 2034 4750 
z
" transform="scale(0.015625)"/>
     </defs>
     <use xlink:href="#FiraSans-Regular-50" transform="translate(0 0.390625)"/>
     <use xlink:href="#FiraSans-Regular-44" transform="translate(58.099991 0.390625)"/>
     <use xlink:href="#FiraSans-Regular-46" transform="translate(122.499985 0.390625)"/>
     <use xlink:href="#FiraSans-Regular-20" transform="translate(171.599976 0.390625)"/>
     <use xlink:href="#FiraSans-Regular-6f" transform="translate(198.09996 0.390625)"/>
     <use xlink:href="#FiraSans-Regular-66" transform="translate(256.499954 0.390625)"/>
     <use xlink:href="#FiraSans-Regular-20" transform="translate(289.999939 0.390625)"/>
     <use xlink:href="#DejaVuSans-Oblique-58" transform="translate(316.499924 0.390625)"/>
     <use xlink:href="#DejaVuSans-223c" transform="translate(404.488205 0.390625)"/>
     <use xlink:href="#DejaVuSans-47" transform="translate(507.759689 0.390625)"/>
     <use xlink:href="#DejaVuSans-4c" transform="translate(585.249924 0.390625)"/>
     <use xlink:href="#DejaVuSans-44" transform="translate(640.962814 0.390625)"/>
     <use xlink:href="#DejaVuSans-28" transform="translate(717.964767 0.390625)"/>
     <use xlink:href="#DejaVuSans-Oblique-3b2" transform="translate(756.978439 0.390625)"/>
     <use xlink:href="#DejaVuSans-2c" transform="translate(820.796799 0.390625)"/>
     <use xlink:href="#DejaVuSans-Oblique-3b4" transform="translate(872.06633 0.390625)"/>
     <use xlink:href="#DejaVuSans-2c" transform="translate(933.247971 0.390625)"/>
     <use xlink:href="#DejaVuSans-Oblique-3d5" transform="translate(984.517502 0.390625)"/>
     <use xlink:href="#DejaVuSans-3d" transform="translate(1069.966721 0.390625)"/>
     <use xlink:href="#DejaVuSans-30" transform="translate(1173.238205 0.390625)"/>
     <use xlink:href="#DejaVuSans-29" transform="translate(1236.861252 0.390625)"/>
    </g>
   </g>
   <g id="legend_1">
    <g id="patch_5">
     <path d="M 917.478123 277.527 
L 1116.678123 277.527 
Q 1119.878123 277.527 1119.878123 274.327 
L 1119.878123 39.127 
Q 1119.878123 35.927 1116.678123 35.927 
L 917.478123 35.927 
Q 914.278123 35.927 914.278123 39.127 
L 914.278123 274.327 
Q 914.278123 277.527 917.478123 277.527 
z
" style="opacity: 0.8; stroke: #cccccc; stroke-width: 0.48; stroke-linejoin: miter"/>
    </g>
    <g id="line2d_26">
     <path d="M 920.678123 48.9995 
L 936.678123 48.9995 
L 952.678123 48.9995 
" style="fill: none; stroke: #a6cee3; stroke-opacity: 0.8; stroke-width: 3; stroke-linecap: square"/>
    </g>
    <g id="text_19">
     <!-- $\beta = \quad\;1/2,\ \delta = -2$ -->
     <g style="fill: #e4e4e9; opacity: 0.819608" transform="translate(965.478123 54.5995) scale(0.16 -0.16)">
      <defs>
       <path id="DejaVuSans-31" d="M 794 531 
L 1825 531 
L 1825 4091 
L 703 3866 
L 703 4441 
L 1819 4666 
L 2450 4666 
L 2450 531 
L 3481 531 
L 3481 0 
L 794 0 
L 794 531 
z
" transform="scale(0.015625)"/>
       <path id="DejaVuSans-2f" d="M 1625 4666 
L 2156 4666 
L 531 -594 
L 0 -594 
L 1625 4666 
z
" transform="scale(0.015625)"/>
       <path id="DejaVuSans-32" d="M 1228 531 
L 3431 531 
L 3431 0 
L 469 0 
L 469 531 
Q 828 903 1448 1529 
Q 2069 2156 2228 2338 
Q 2531 2678 2651 2914 
Q 2772 3150 2772 3378 
Q 2772 3750 2511 3984 
Q 2250 4219 1831 4219 
Q 1534 4219 1204 4116 
Q 875 4013 500 3803 
L 500 4441 
Q 881 4594 1212 4672 
Q 1544 4750 1819 4750 
Q 2544 4750 2975 4387 
Q 3406 4025 3406 3419 
Q 3406 3131 3298 2873 
Q 3191 2616 2906 2266 
Q 2828 2175 2409 1742 
Q 1991 1309 1228 531 
z
" transform="scale(0.015625)"/>
       <path id="DejaVuSans-2212" d="M 678 2272 
L 4684 2272 
L 4684 1741 
L 678 1741 
L 678 2272 
z
" transform="scale(0.015625)"/>
      </defs>
      <use xlink:href="#DejaVuSans-Oblique-3b2" transform="translate(0 0.390625)"/>
      <use xlink:href="#DejaVuSans-3d" transform="translate(83.300781 0.390625)"/>
      <use xlink:href="#DejaVuSans-31" transform="translate(311.043511 0.390625)"/>
      <use xlink:href="#DejaVuSans-2f" transform="translate(374.666558 0.390625)"/>
      <use xlink:href="#DejaVuSans-32" transform="translate(404.732964 0.390625)"/>
      <use xlink:href="#DejaVuSans-2c" transform="translate(468.356011 0.390625)"/>
      <use xlink:href="#DejaVuSans-Oblique-3b4" transform="translate(552.09592 0.390625)"/>
      <use xlink:href="#DejaVuSans-3d" transform="translate(632.759983 0.390625)"/>
      <use xlink:href="#DejaVuSans-2212" transform="translate(755.513889 0.390625)"/>
      <use xlink:href="#DejaVuSans-32" transform="translate(858.785374 0.390625)"/>
     </g>
    </g>
    <g id="line2d_27">
     <path d="M 920.678123 72.6795 
L 936.678123 72.6795 
L 952.678123 72.6795 
" style="fill: none; stroke: #1f78b4; stroke-opacity: 0.8; stroke-width: 3; stroke-linecap: square"/>
    </g>
    <g id="text_20">
     <!-- $\beta = \quad\;1/2,\ \delta = -1$ -->
     <g style="fill: #e4e4e9; opacity: 0.819608" transform="translate(965.478123 78.2795) scale(0.16 -0.16)">
      <use xlink:href="#DejaVuSans-Oblique-3b2" transform="translate(0 0.390625)"/>
      <use xlink:href="#DejaVuSans-3d" transform="translate(83.300781 0.390625)"/>
      <use xlink:href="#DejaVuSans-31" transform="translate(311.043511 0.390625)"/>
      <use xlink:href="#DejaVuSans-2f" transform="translate(374.666558 0.390625)"/>
      <use xlink:href="#DejaVuSans-32" transform="translate(404.732964 0.390625)"/>
      <use xlink:href="#DejaVuSans-2c" transform="translate(468.356011 0.390625)"/>
      <use xlink:href="#DejaVuSans-Oblique-3b4" transform="translate(552.09592 0.390625)"/>
      <use xlink:href="#DejaVuSans-3d" transform="translate(632.759983 0.390625)"/>
      <use xlink:href="#DejaVuSans-2212" transform="translate(755.513889 0.390625)"/>
      <use xlink:href="#DejaVuSans-31" transform="translate(858.785374 0.390625)"/>
     </g>
    </g>
    <g id="line2d_28">
     <path d="M 920.678123 96.3595 
L 936.678123 96.3595 
L 952.678123 96.3595 
" style="fill: none; stroke: #b2df8a; stroke-opacity: 0.8; stroke-width: 3; stroke-linecap: square"/>
    </g>
    <g id="text_21">
     <!-- $\beta = \quad\;1/2,\ \delta = \quad\;0$ -->
     <g style="fill: #e4e4e9; opacity: 0.819608" transform="translate(965.478123 101.9595) scale(0.16 -0.16)">
      <use xlink:href="#DejaVuSans-Oblique-3b2" transform="translate(0 0.390625)"/>
      <use xlink:href="#DejaVuSans-3d" transform="translate(83.300781 0.390625)"/>
      <use xlink:href="#DejaVuSans-31" transform="translate(311.043511 0.390625)"/>
      <use xlink:href="#DejaVuSans-2f" transform="translate(374.666558 0.390625)"/>
      <use xlink:href="#DejaVuSans-32" transform="translate(404.732964 0.390625)"/>
      <use xlink:href="#DejaVuSans-2c" transform="translate(468.356011 0.390625)"/>
      <use xlink:href="#DejaVuSans-Oblique-3b4" transform="translate(552.09592 0.390625)"/>
      <use xlink:href="#DejaVuSans-3d" transform="translate(632.759983 0.390625)"/>
      <use xlink:href="#DejaVuSans-30" transform="translate(860.502712 0.390625)"/>
     </g>
    </g>
    <g id="line2d_29">
     <path d="M 920.678123 120.0395 
L 936.678123 120.0395 
L 952.678123 120.0395 
" style="fill: none; stroke: #33a02c; stroke-opacity: 0.8; stroke-width: 3; stroke-linecap: square"/>
    </g>
    <g id="text_22">
     <!-- $\beta = \quad\;1/2,\ \delta = \quad\;1$ -->
     <g style="fill: #e4e4e9; opacity: 0.819608" transform="translate(965.478123 125.6395) scale(0.16 -0.16)">
      <use xlink:href="#DejaVuSans-Oblique-3b2" transform="translate(0 0.390625)"/>
      <use xlink:href="#DejaVuSans-3d" transform="translate(83.300781 0.390625)"/>
      <use xlink:href="#DejaVuSans-31" transform="translate(311.043511 0.390625)"/>
      <use xlink:href="#DejaVuSans-2f" transform="translate(374.666558 0.390625)"/>
      <use xlink:href="#DejaVuSans-32" transform="translate(404.732964 0.390625)"/>
      <use xlink:href="#DejaVuSans-2c" transform="translate(468.356011 0.390625)"/>
      <use xlink:href="#DejaVuSans-Oblique-3b4" transform="translate(552.09592 0.390625)"/>
      <use xlink:href="#DejaVuSans-3d" transform="translate(632.759983 0.390625)"/>
      <use xlink:href="#DejaVuSans-31" transform="translate(860.502712 0.390625)"/>
     </g>
    </g>
    <g id="line2d_30">
     <path d="M 920.678123 143.7195 
L 936.678123 143.7195 
L 952.678123 143.7195 
" style="fill: none; stroke: #fb9a99; stroke-opacity: 0.8; stroke-width: 3; stroke-linecap: square"/>
    </g>
    <g id="text_23">
     <!-- $\beta = \quad\;1/2,\ \delta = \quad\;2$ -->
     <g style="fill: #e4e4e9; opacity: 0.819608" transform="translate(965.478123 149.3195) scale(0.16 -0.16)">
      <use xlink:href="#DejaVuSans-Oblique-3b2" transform="translate(0 0.390625)"/>
      <use xlink:href="#DejaVuSans-3d" transform="translate(83.300781 0.390625)"/>
      <use xlink:href="#DejaVuSans-31" transform="translate(311.043511 0.390625)"/>
      <use xlink:href="#DejaVuSans-2f" transform="translate(374.666558 0.390625)"/>
      <use xlink:href="#DejaVuSans-32" transform="translate(404.732964 0.390625)"/>
      <use xlink:href="#DejaVuSans-2c" transform="translate(468.356011 0.390625)"/>
      <use xlink:href="#DejaVuSans-Oblique-3b4" transform="translate(552.09592 0.390625)"/>
      <use xlink:href="#DejaVuSans-3d" transform="translate(632.759983 0.390625)"/>
      <use xlink:href="#DejaVuSans-32" transform="translate(860.502712 0.390625)"/>
     </g>
    </g>
    <g id="line2d_31">
     <path d="M 920.678123 167.3995 
L 936.678123 167.3995 
L 952.678123 167.3995 
" style="fill: none; stroke-dasharray: 11.1,4.8; stroke-dashoffset: 0; stroke: #a6cee3; stroke-opacity: 0.8; stroke-width: 3"/>
    </g>
    <g id="text_24">
     <!-- $\beta = -1/2,\ \delta = -2$ -->
     <g style="fill: #e4e4e9; opacity: 0.819608" transform="translate(965.478123 172.9995) scale(0.16 -0.16)">
      <use xlink:href="#DejaVuSans-Oblique-3b2" transform="translate(0 0.390625)"/>
      <use xlink:href="#DejaVuSans-3d" transform="translate(83.300781 0.390625)"/>
      <use xlink:href="#DejaVuSans-2212" transform="translate(206.054688 0.390625)"/>
      <use xlink:href="#DejaVuSans-31" transform="translate(309.326172 0.390625)"/>
      <use xlink:href="#DejaVuSans-2f" transform="translate(372.949219 0.390625)"/>
      <use xlink:href="#DejaVuSans-32" transform="translate(403.015625 0.390625)"/>
      <use xlink:href="#DejaVuSans-2c" transform="translate(466.638672 0.390625)"/>
      <use xlink:href="#DejaVuSans-Oblique-3b4" transform="translate(550.378582 0.390625)"/>
      <use xlink:href="#DejaVuSans-3d" transform="translate(631.042644 0.390625)"/>
      <use xlink:href="#DejaVuSans-2212" transform="translate(753.79655 0.390625)"/>
      <use xlink:href="#DejaVuSans-32" transform="translate(857.068035 0.390625)"/>
     </g>
    </g>
    <g id="line2d_32">
     <path d="M 920.678123 191.0795 
L 936.678123 191.0795 
L 952.678123 191.0795 
" style="fill: none; stroke-dasharray: 11.1,4.8; stroke-dashoffset: 0; stroke: #1f78b4; stroke-opacity: 0.8; stroke-width: 3"/>
    </g>
    <g id="text_25">
     <!-- $\beta = -1/2,\ \delta = -1$ -->
     <g style="fill: #e4e4e9; opacity: 0.819608" transform="translate(965.478123 196.6795) scale(0.16 -0.16)">
      <use xlink:href="#DejaVuSans-Oblique-3b2" transform="translate(0 0.390625)"/>
      <use xlink:href="#DejaVuSans-3d" transform="translate(83.300781 0.390625)"/>
      <use xlink:href="#DejaVuSans-2212" transform="translate(206.054688 0.390625)"/>
      <use xlink:href="#DejaVuSans-31" transform="translate(309.326172 0.390625)"/>
      <use xlink:href="#DejaVuSans-2f" transform="translate(372.949219 0.390625)"/>
      <use xlink:href="#DejaVuSans-32" transform="translate(403.015625 0.390625)"/>
      <use xlink:href="#DejaVuSans-2c" transform="translate(466.638672 0.390625)"/>
      <use xlink:href="#DejaVuSans-Oblique-3b4" transform="translate(550.378582 0.390625)"/>
      <use xlink:href="#DejaVuSans-3d" transform="translate(631.042644 0.390625)"/>
      <use xlink:href="#DejaVuSans-2212" transform="translate(753.79655 0.390625)"/>
      <use xlink:href="#DejaVuSans-31" transform="translate(857.068035 0.390625)"/>
     </g>
    </g>
    <g id="line2d_33">
     <path d="M 920.678123 214.7595 
L 936.678123 214.7595 
L 952.678123 214.7595 
" style="fill: none; stroke-dasharray: 11.1,4.8; stroke-dashoffset: 0; stroke: #b2df8a; stroke-opacity: 0.8; stroke-width: 3"/>
    </g>
    <g id="text_26">
     <!-- $\beta = -1/2,\ \delta = \quad\;0$ -->
     <g style="fill: #e4e4e9; opacity: 0.819608" transform="translate(965.478123 220.3595) scale(0.16 -0.16)">
      <use xlink:href="#DejaVuSans-Oblique-3b2" transform="translate(0 0.390625)"/>
      <use xlink:href="#DejaVuSans-3d" transform="translate(83.300781 0.390625)"/>
      <use xlink:href="#DejaVuSans-2212" transform="translate(206.054688 0.390625)"/>
      <use xlink:href="#DejaVuSans-31" transform="translate(309.326172 0.390625)"/>
      <use xlink:href="#DejaVuSans-2f" transform="translate(372.949219 0.390625)"/>
      <use xlink:href="#DejaVuSans-32" transform="translate(403.015625 0.390625)"/>
      <use xlink:href="#DejaVuSans-2c" transform="translate(466.638672 0.390625)"/>
      <use xlink:href="#DejaVuSans-Oblique-3b4" transform="translate(550.378582 0.390625)"/>
      <use xlink:href="#DejaVuSans-3d" transform="translate(631.042644 0.390625)"/>
      <use xlink:href="#DejaVuSans-30" transform="translate(858.785374 0.390625)"/>
     </g>
    </g>
    <g id="line2d_34">
     <path d="M 920.678123 238.4395 
L 936.678123 238.4395 
L 952.678123 238.4395 
" style="fill: none; stroke-dasharray: 11.1,4.8; stroke-dashoffset: 0; stroke: #33a02c; stroke-opacity: 0.8; stroke-width: 3"/>
    </g>
    <g id="text_27">
     <!-- $\beta = -1/2,\ \delta = \quad\;1$ -->
     <g style="fill: #e4e4e9; opacity: 0.819608" transform="translate(965.478123 244.0395) scale(0.16 -0.16)">
      <use xlink:href="#DejaVuSans-Oblique-3b2" transform="translate(0 0.390625)"/>
      <use xlink:href="#DejaVuSans-3d" transform="translate(83.300781 0.390625)"/>
      <use xlink:href="#DejaVuSans-2212" transform="translate(206.054688 0.390625)"/>
      <use xlink:href="#DejaVuSans-31" transform="translate(309.326172 0.390625)"/>
      <use xlink:href="#DejaVuSans-2f" transform="translate(372.949219 0.390625)"/>
      <use xlink:href="#DejaVuSans-32" transform="translate(403.015625 0.390625)"/>
      <use xlink:href="#DejaVuSans-2c" transform="translate(466.638672 0.390625)"/>
      <use xlink:href="#DejaVuSans-Oblique-3b4" transform="translate(550.378582 0.390625)"/>
      <use xlink:href="#DejaVuSans-3d" transform="translate(631.042644 0.390625)"/>
      <use xlink:href="#DejaVuSans-31" transform="translate(858.785374 0.390625)"/>
     </g>
    </g>
    <g id="line2d_35">
     <path d="M 920.678123 262.1195 
L 936.678123 262.1195 
L 952.678123 262.1195 
" style="fill: none; stroke-dasharray: 11.1,4.8; stroke-dashoffset: 0; stroke: #fb9a99; stroke-opacity: 0.8; stroke-width: 3"/>
    </g>
    <g id="text_28">
     <!-- $\beta = -1/2,\ \delta = \quad\;2$ -->
     <g style="fill: #e4e4e9; opacity: 0.819608" transform="translate(965.478123 267.7195) scale(0.16 -0.16)">
      <use xlink:href="#DejaVuSans-Oblique-3b2" transform="translate(0 0.390625)"/>
      <use xlink:href="#DejaVuSans-3d" transform="translate(83.300781 0.390625)"/>
      <use xlink:href="#DejaVuSans-2212" transform="translate(206.054688 0.390625)"/>
      <use xlink:href="#DejaVuSans-31" transform="translate(309.326172 0.390625)"/>
      <use xlink:href="#DejaVuSans-2f" transform="translate(372.949219 0.390625)"/>
      <use xlink:href="#DejaVuSans-32" transform="translate(403.015625 0.390625)"/>
      <use xlink:href="#DejaVuSans-2c" transform="translate(466.638672 0.390625)"/>
      <use xlink:href="#DejaVuSans-Oblique-3b4" transform="translate(550.378582 0.390625)"/>
      <use xlink:href="#DejaVuSans-3d" transform="translate(631.042644 0.390625)"/>
      <use xlink:href="#DejaVuSans-32" transform="translate(858.785374 0.390625)"/>
     </g>
    </g>
   </g>
  </g>
 </g>
 <defs>
  <clipPath id="p080d129119">
   <rect x="63.611" y="27.927" width="1064.267123" height="553.775"/>
  </clipPath>
 </defs>
</svg>
